<svg fill="none" height="56" viewBox="0 0 57 56" width="57" xmlns="http://www.w3.org/2000/svg"><g fill="#ddb4ff"><path d="m10.0036 45.0846c.2182-.2205.2182-.5779 0-.7984-.21822-.2205-.57205-.2205-.79029 0s-.21824.5779 0 .7984c.21824.2204.57207.2204.79029 0z"/><path d="m12.5282 47.6348c.2516-.2542.2516-.6663 0-.9205s-.6596-.2542-.9113 0c-.2516.2542-.2516.6663 0 .9205.2517.2543.6597.2543.9113 0z"/><path d="m14.9923 50.124c.2516-.2542.2516-.6663 0-.9205s-.6596-.2542-.9113 0c-.2516.2542-.2516.6663 0 .9205.2517.2543.6597.2543.9113 0z"/><path d="m17.3959 52.5521c.2182-.2204.2182-.5778 0-.7983s-.5721-.2205-.7903 0-.2182.5779 0 .7983c.2182.2205.5721.2205.7903 0z"/><path d="m7.6 37.6781c.25164-.2543.25164-.6664 0-.9206s-.65963-.2542-.91127 0-.25164.6663 0 .9206c.25164.2542.65963.2542.91127 0z"/><path d="m10.1864 40.2908c.3192-.3224.3192-.8452 0-1.1677-.31919-.3224-.83669-.3224-1.15588 0-.31919.3225-.31919.8453 0 1.1677s.8367.3224 1.15588 0z"/><path d="m12.7728 42.9036c.3867-.3907.3867-1.0241 0-1.4148s-1.0138-.3907-1.4005 0-.3867 1.0241 0 1.4148c.3867.3906 1.0138.3906 1.4005 0z"/><path d="m15.3579 45.515c.4535-.4582.4535-1.201 0-1.6592-.4536-.4582-1.1889-.4582-1.6425 0-.4535.4582-.4535 1.201 0 1.6592.4536.4581 1.1889.4581 1.6425 0z"/><path d="m17.822 48.0042c.4535-.4582.4535-1.201 0-1.6592-.4536-.4582-1.1889-.4582-1.6425 0-.4535.4582-.4535 1.201 0 1.6592.4536.4581 1.1889.4581 1.6425 0z"/><path d="m20.1651 50.3712c.3867-.3907.3867-1.0241 0-1.4148s-1.0138-.3907-1.4005 0-.3867 1.0241 0 1.4148c.3867.3906 1.0138.3906 1.4005 0z"/><path d="m22.5069 52.7368c.3192-.3224.3192-.8452 0-1.1677-.3192-.3224-.8367-.3224-1.1559 0-.3192.3225-.3192.8453 0 1.1677s.8367.3224 1.1559 0z"/><path d="m24.8487 55.1024c.2516-.2542.2516-.6663 0-.9205-.2517-.2542-.6596-.2542-.9113 0-.2516.2542-.2516.6663 0 .9205.2517.2542.6596.2542.9113 0z"/><path d="m7.6 32.6997c.25164-.2542.25164-.6664 0-.9206s-.65963-.2542-.91127 0-.25164.6664 0 .9206.65963.2542.91127 0z"/><path d="m10.2469 35.3735c.3526-.3562.3526-.9337 0-1.2898-.35261-.3562-.92427-.3562-1.27686 0-.3526.3561-.3526.9336 0 1.2898.35259.3562.92425.3562 1.27686 0z"/><path d="m12.8938 38.0474c.4535-.4582.4535-1.201 0-1.6592-.4536-.4582-1.1889-.4582-1.6425 0-.4535.4582-.4535 1.201 0 1.6592.4536.4581 1.1889.4581 1.6425 0z"/><path d="m15.542 40.7226c.5552-.5609.5552-1.4703 0-2.0312s-1.4555-.5609-2.0107 0-.5552 1.4703 0 2.0312 1.4555.5609 2.0107 0z"/><path d="m18.1889 43.3964c.6562-.6629.6562-1.7376 0-2.4005-.6562-.6628-1.7201-.6628-2.3763 0-.6562.6629-.6562 1.7376 0 2.4005s1.7201.6629 2.3763 0z"/><path d="m20.653 45.8856c.6562-.6629.6562-1.7376 0-2.4005-.6562-.6628-1.7201-.6628-2.3763 0-.6562.6629-.6562 1.7376 0 2.4005s1.7201.6629 2.3763 0z"/><path d="m22.9343 48.1902c.5552-.5609.5552-1.4703 0-2.0312s-1.4555-.5609-2.0107 0-.5552 1.4703 0 2.0312 1.4555.5609 2.0107 0z"/><path d="m25.2143 50.4934c.4535-.4582.4535-1.201 0-1.6592-.4536-.4582-1.1889-.4582-1.6425 0-.4535.4582-.4535 1.201 0 1.6592.4536.4581 1.1889.4581 1.6425 0z"/><path d="m27.4956 52.7979c.3526-.3562.3526-.9337 0-1.2899-.3526-.3561-.9243-.3561-1.2769 0-.3526.3562-.3526.9337 0 1.2899s.9243.3562 1.2769 0z"/><path d="m29.7769 55.1024c.2516-.2542.2516-.6663 0-.9205-.2517-.2542-.6597-.2542-.9113 0s-.2516.6663 0 .9205.6596.2542.9113 0z"/><path d="m10.1864 30.334c.3192-.3224.3192-.8452 0-1.1676-.31918-.3225-.83669-.3225-1.15588 0-.31919.3224-.31919.8452 0 1.1676.31919.3225.83669.3225 1.15588 0z"/><path d="m12.8938 33.069c.4535-.4582.4535-1.201 0-1.6592-.4536-.4582-1.1889-.4582-1.6425 0-.4535.4582-.4535 1.201 0 1.6592.4536.4581 1.1889.4581 1.6425 0z"/><path d="m15.6025 35.8053c.5886-.5947.5886-1.5588 0-2.1534-.5887-.5947-1.543-.5947-2.1317 0-.5886.5946-.5886 1.5587 0 2.1534.5887.5946 1.543.5946 2.1317 0z"/><path d="m18.3099 38.5402c.723-.7303.723-1.9145 0-2.6449-.723-.7303-1.8953-.7303-2.6183 0-.723.7304-.723 1.9146 0 2.6449.723.7304 1.8953.7304 2.6183 0z"/><path d="m21.0186 41.2765c.8581-.8668.8581-2.2722 0-3.1391-.8581-.8668-2.2494-.8668-3.1075 0-.8581.8669-.8581 2.2723 0 3.1391.8581.8669 2.2494.8669 3.1075 0z"/><path d="m23.4827 43.7657c.8581-.8668.8581-2.2722 0-3.1391-.8581-.8668-2.2494-.8668-3.1075 0-.8581.8669-.8581 2.2723 0 3.1391.8581.8669 2.2494.8669 3.1075 0z"/><path d="m25.7022 46.0078c.723-.7303.723-1.9145 0-2.6449-.723-.7303-1.8953-.7303-2.6183 0-.723.7304-.723 1.9146 0 2.6449.723.7304 1.8953.7304 2.6183 0z"/><path d="m27.923 48.2513c.5886-.5947.5886-1.5588 0-2.1534-.5887-.5947-1.543-.5947-2.1317 0-.5886.5946-.5886 1.5587 0 2.1534.5887.5946 1.543.5946 2.1317 0z"/><path d="m30.1425 50.4934c.4535-.4582.4535-1.201 0-1.6592-.4536-.4582-1.1889-.4582-1.6425 0-.4535.4582-.4535 1.201 0 1.6592.4536.4581 1.1889.4581 1.6425 0z"/><path d="m32.3633 52.7368c.3192-.3224.3192-.8452 0-1.1677-.3192-.3224-.8367-.3224-1.1559 0-.3192.3225-.3192.8453 0 1.1677s.8367.3224 1.1559 0z"/><path d="m10.0036 25.171c.2182-.2205.2182-.5779 0-.7984-.21822-.2205-.57205-.2205-.79029 0s-.21824.5779 0 .7984c.21824.2204.57207.2204.79029 0z"/><path d="m12.7728 27.9684c.3867-.3907.3867-1.0241 0-1.4148s-1.0138-.3907-1.4005 0-.3867 1.0241 0 1.4148c.3867.3906 1.0138.3906 1.4005 0z"/><path d="m15.5407 30.7644c.5545-.5601.5545-1.4683 0-2.0285-.5545-.5601-1.4536-.5601-2.0081 0-.5544.5602-.5544 1.4684 0 2.0285.5545.5602 1.4536.5602 2.0081 0z"/><path d="m18.3099 33.5618c.723-.7303.723-1.9145 0-2.6449-.723-.7303-1.8953-.7303-2.6183 0-.723.7304-.723 1.9146 0 2.6449.723.7304 1.8953.7304 2.6183 0z"/><path d="m21.0791 36.3592c.8915-.9006.8915-2.3607 0-3.2613s-2.337-.9006-3.2285 0-.8915 2.3607 0 3.2613 2.337.9006 3.2285 0z"/><path d="m23.8483 39.1566c1.06-1.0708 1.06-2.8069 0-3.8777s-2.7787-1.0708-3.8387 0-1.06 2.8069 0 3.8777 2.7787 1.0708 3.8387 0z"/><path d="m26.3124 41.6458c1.06-1.0708 1.06-2.8069 0-3.8777-1.0601-1.0708-2.7787-1.0708-3.8387 0s-1.06 2.8069 0 3.8777 2.7787 1.0708 3.8387 0z"/><path d="m28.4714 43.8268c.8915-.9006.8915-2.3607 0-3.2613s-2.337-.9006-3.2285 0-.8915 2.3607 0 3.2613 2.3369.9006 3.2285 0z"/><path d="m30.6303 46.0078c.723-.7303.723-1.9145 0-2.6449-.723-.7303-1.8952-.7303-2.6182 0-.723.7304-.723 1.9146 0 2.6449.723.7304 1.8952.7304 2.6182 0z"/><path d="m32.7893 48.1888c.5545-.5601.5545-1.4683 0-2.0285-.5545-.5601-1.4535-.5601-2.008 0-.5545.5602-.5545 1.4684 0 2.0285.5545.5602 1.4535.5602 2.008 0z"/><path d="m34.9497 50.3712c.3867-.3907.3867-1.0241 0-1.4148s-1.0138-.3907-1.4005 0c-.3868.3907-.3868 1.0241 0 1.4148.3867.3906 1.0138.3906 1.4005 0z"/><path d="m37.1087 52.5521c.2182-.2204.2182-.5778 0-.7983-.2183-.2205-.5721-.2205-.7903 0-.2183.2205-.2183.5779 0 .7983.2182.2205.572.2205.7903 0z"/><path d="m12.5282 22.7429c.2516-.2542.2516-.6664 0-.9206s-.6596-.2542-.9113 0c-.2516.2542-.2516.6664 0 .9206.2517.2542.6597.2542.9113 0z"/><path d="m15.3579 25.6014c.4535-.4582.4535-1.201 0-1.6592-.4536-.4582-1.1889-.4582-1.6425 0-.4535.4582-.4535 1.201 0 1.6592.4536.4581 1.1889.4581 1.6425 0z"/><path d="m18.1889 28.4612c.6562-.6628.6562-1.7376 0-2.4005-.6562-.6628-1.7201-.6628-2.3763 0-.6562.6629-.6562 1.7377 0 2.4005.6562.6629 1.7201.6629 2.3763 0z"/><path d="m21.0186 31.3197c.8581-.8668.8581-2.2722 0-3.1391-.8581-.8668-2.2494-.8668-3.1075 0-.8581.8669-.8581 2.2723 0 3.1391.8581.8669 2.2494.8669 3.1075 0z"/><path d="m23.8483 34.1782c1.06-1.0708 1.06-2.8069 0-3.8777s-2.7787-1.0708-3.8387 0-1.06 2.8069 0 3.8777 2.7787 1.0708 3.8387 0z"/><path d="m26.6793 37.0381c1.2626-1.2755 1.2626-3.3435 0-4.619-1.2627-1.2756-3.3098-1.2756-4.5725 0-1.2626 1.2755-1.2626 3.3435 0 4.619 1.2627 1.2755 3.3098 1.2755 4.5725 0z"/><path d="m29.1434 39.5273c1.2626-1.2755 1.2626-3.3435 0-4.619-1.2627-1.2756-3.3098-1.2756-4.5725 0-1.2626 1.2755-1.2626 3.3435 0 4.619 1.2627 1.2755 3.3098 1.2755 4.5725 0z"/><path d="m31.2405 41.6458c1.0601-1.0708 1.0601-2.8069 0-3.8777-1.06-1.0708-2.7786-1.0708-3.8386 0s-1.06 2.8069 0 3.8777 2.7786 1.0708 3.8386 0z"/><path d="m33.3391 43.7657c.8581-.8668.8581-2.2722 0-3.1391-.8581-.8668-2.2494-.8668-3.1075 0-.8581.8669-.8581 2.2723 0 3.1391.8581.8669 2.2494.8669 3.1075 0z"/><path d="m35.4376 45.8856c.6562-.6629.6562-1.7376 0-2.4005-.6562-.6628-1.7201-.6629-2.3763 0s-.6562 1.7376 0 2.4005 1.7201.6629 2.3763 0z"/><path d="m37.5347 48.0042c.4536-.4582.4536-1.201 0-1.6592-.4535-.4582-1.1888-.4582-1.6424 0-.4535.4582-.4535 1.201 0 1.6592.4536.4581 1.1889.4581 1.6424 0z"/><path d="m39.6333 50.124c.2516-.2542.2516-.6663 0-.9205-.2517-.2542-.6597-.2542-.9113 0s-.2516.6663 0 .9205.6596.2542.9113 0z"/><path d="m14.9923 20.2537c.2516-.2542.2516-.6664 0-.9206s-.6596-.2542-.9113 0c-.2516.2542-.2516.6664 0 .9206.2517.2542.6597.2542.9113 0z"/><path d="m17.822 23.1122c.4535-.4582.4535-1.201 0-1.6592-.4536-.4582-1.1889-.4582-1.6425 0-.4535.4582-.4535 1.201 0 1.6592.4536.4581 1.1889.4581 1.6425 0z"/><path d="m20.653 25.972c.6562-.6628.6562-1.7376 0-2.4005-.6562-.6628-1.7201-.6628-2.3763 0-.6562.6629-.6562 1.7377 0 2.4005.6562.6629 1.7201.6629 2.3763 0z"/><path d="m23.4827 28.8305c.8581-.8668.8581-2.2722 0-3.1391-.8581-.8668-2.2494-.8668-3.1075 0-.8581.8669-.8581 2.2723 0 3.1391.8581.8669 2.2494.8669 3.1075 0z"/><path d="m26.3124 31.689c1.06-1.0708 1.06-2.8069 0-3.8777s-2.7787-1.0708-3.8387 0-1.06 2.8069 0 3.8777 2.7786 1.0708 3.8387 0z"/><path d="m29.1434 34.5489c1.2626-1.2755 1.2626-3.3435 0-4.619-1.2627-1.2756-3.3098-1.2756-4.5725 0-1.2626 1.2755-1.2626 3.3435 0 4.619 1.2627 1.2755 3.3098 1.2755 4.5725 0z"/><path d="m31.6075 37.0381c1.2626-1.2755 1.2626-3.3435 0-4.619-1.2627-1.2756-3.3098-1.2756-4.5725 0-1.2626 1.2755-1.2626 3.3435 0 4.619 1.2627 1.2755 3.3098 1.2755 4.5725 0z"/><path d="m33.7046 39.1566c1.0601-1.0708 1.0601-2.8069 0-3.8777-1.06-1.0708-2.7786-1.0708-3.8386 0s-1.06 2.8069 0 3.8777 2.7786 1.0708 3.8386 0z"/><path d="m35.8032 41.2765c.8581-.8668.8581-2.2722 0-3.1391-.8581-.8668-2.2494-.8668-3.1075 0-.8581.8669-.8581 2.2723 0 3.1391.8581.8669 2.2494.8669 3.1075 0z"/><path d="m37.9017 43.3964c.6562-.6629.6562-1.7376 0-2.4005s-1.7201-.6629-2.3763 0-.6562 1.7376 0 2.4005 1.7201.6629 2.3763 0z"/><path d="m39.9988 45.515c.4536-.4582.4536-1.201 0-1.6592-.4535-.4582-1.1888-.4582-1.6424 0-.4535.4582-.4535 1.201 0 1.6592.4536.4581 1.1889.4581 1.6424 0z"/><path d="m42.0974 47.6348c.2516-.2542.2516-.6663 0-.9205-.2517-.2542-.6597-.2542-.9113 0s-.2516.6663 0 .9205.6596.2542.9113 0z"/><path d="m17.3959 17.7034c.2182-.2205.2182-.5779 0-.7984-.2182-.2204-.5721-.2204-.7903 0-.2182.2205-.2182.5779 0 .7984.2182.2204.5721.2204.7903 0z"/><path d="m20.1651 20.5008c.3867-.3907.3867-1.0241 0-1.4148s-1.0138-.3907-1.4005 0-.3867 1.0241 0 1.4148 1.0138.3906 1.4005 0z"/><path d="m22.933 23.2968c.5545-.5601.5545-1.4683 0-2.0284-.5545-.5602-1.4536-.5602-2.0081 0-.5545.5601-.5545 1.4683 0 2.0284.5545.5602 1.4536.5602 2.0081 0z"/><path d="m25.7022 26.0942c.723-.7303.723-1.9145 0-2.6449-.723-.7303-1.8953-.7303-2.6183 0-.723.7304-.723 1.9146 0 2.6449.723.7304 1.8953.7304 2.6183 0z"/><path d="m28.4714 28.8916c.8915-.9005.8915-2.3607 0-3.2613-.8916-.9006-2.337-.9006-3.2285 0s-.8915 2.3608 0 3.2613c.8915.9006 2.337.9006 3.2285 0z"/><path d="m31.2405 31.689c1.0601-1.0708 1.0601-2.8069 0-3.8777-1.06-1.0708-2.7786-1.0708-3.8386 0s-1.06 2.8069 0 3.8777 2.7786 1.0708 3.8386 0z"/><path d="m33.7046 34.1782c1.0601-1.0708 1.0601-2.8069 0-3.8777-1.06-1.0708-2.7786-1.0708-3.8386 0s-1.06 2.8069 0 3.8777 2.7786 1.0708 3.8386 0z"/><path d="m35.8636 36.3592c.8915-.9006.8915-2.3607 0-3.2613s-2.3369-.9006-3.2284 0-.8915 2.3607 0 3.2613 2.3369.9006 3.2284 0z"/><path d="m38.0226 38.5402c.723-.7303.723-1.9145 0-2.6449-.723-.7303-1.8952-.7303-2.6182 0-.723.7304-.723 1.9146 0 2.6449.723.7304 1.8952.7304 2.6182 0z"/><path d="m40.1816 40.7212c.5545-.5601.5545-1.4683 0-2.0285-.5545-.5601-1.4535-.5601-2.008 0-.5545.5602-.5545 1.4684 0 2.0285.5545.5602 1.4535.5602 2.008 0z"/><path d="m42.342 42.9036c.3867-.3907.3867-1.0241 0-1.4148-.3868-.3907-1.0138-.3907-1.4005 0-.3868.3907-.3868 1.0241 0 1.4148.3867.3906 1.0137.3906 1.4005 0z"/><path d="m44.501 45.0846c.2182-.2205.2182-.5779 0-.7984-.2183-.2205-.5721-.2205-.7903 0-.2183.2205-.2183.5779 0 .7984.2182.2204.572.2204.7903 0z"/><path d="m22.5069 17.888c.3192-.3224.3192-.8452 0-1.1676-.3192-.3225-.8367-.3225-1.1559 0-.3192.3224-.3192.8452 0 1.1676.3192.3225.8367.3225 1.1559 0z"/><path d="m25.2143 20.623c.4535-.4582.4535-1.201 0-1.6592-.4536-.4582-1.1889-.4582-1.6425 0-.4535.4582-.4535 1.201 0 1.6592.4536.4581 1.1889.4581 1.6425 0z"/><path d="m27.923 23.3593c.5886-.5947.5886-1.5588 0-2.1534-.5887-.5946-1.543-.5946-2.1317 0-.5886.5946-.5886 1.5587 0 2.1534.5887.5946 1.543.5946 2.1317 0z"/><path d="m30.6303 26.0942c.723-.7303.723-1.9145 0-2.6449-.723-.7303-1.8952-.7303-2.6182 0-.723.7304-.723 1.9146 0 2.6449.723.7304 1.8952.7304 2.6182 0z"/><path d="m33.3391 28.8305c.8581-.8668.8581-2.2722 0-3.1391-.8581-.8668-2.2494-.8668-3.1075 0-.8581.8669-.8581 2.2723 0 3.1391.8581.8669 2.2494.8669 3.1075 0z"/><path d="m35.8032 31.3197c.8581-.8668.8581-2.2722 0-3.1391-.8581-.8668-2.2494-.8668-3.1075 0-.8581.8669-.8581 2.2723 0 3.1391.8581.8669 2.2494.8669 3.1075 0z"/><path d="m38.0226 33.5618c.723-.7303.723-1.9145 0-2.6449-.723-.7303-1.8952-.7303-2.6182 0-.723.7304-.723 1.9146 0 2.6449.723.7304 1.8952.7304 2.6182 0z"/><path d="m40.2435 35.8053c.5886-.5947.5886-1.5588 0-2.1534-.5887-.5947-1.5431-.5947-2.1317 0-.5886.5946-.5886 1.5587 0 2.1534.5886.5946 1.543.5946 2.1317 0z"/><path d="m42.4629 38.0474c.4536-.4582.4536-1.201 0-1.6592-.4535-.4582-1.1888-.4582-1.6424 0-.4535.4582-.4535 1.201 0 1.6592.4536.4581 1.1889.4581 1.6424 0z"/><path d="m44.6838 40.2908c.3192-.3224.3192-.8452 0-1.1677-.3192-.3224-.8367-.3224-1.1559 0-.3192.3225-.3192.8453 0 1.1677s.8367.3224 1.1559 0z"/><path d="m24.8487 15.2753c.2516-.2542.2516-.6664 0-.9206-.2517-.2542-.6596-.2542-.9113 0-.2516.2542-.2516.6664 0 .9206.2517.2542.6596.2542.9113 0z"/><path d="m27.4956 17.9491c.3526-.3562.3526-.9337 0-1.2898-.3526-.3562-.9243-.3562-1.2769 0-.3526.3561-.3526.9336 0 1.2898s.9243.3562 1.2769 0z"/><path d="m30.1425 20.623c.4535-.4582.4535-1.201 0-1.6592-.4536-.4582-1.1889-.4582-1.6425 0-.4535.4582-.4535 1.201 0 1.6592.4536.4581 1.1889.4581 1.6425 0z"/><path d="m32.7907 23.2982c.5552-.5609.5552-1.4703 0-2.0312s-1.4555-.5609-2.0107 0c-.5553.5609-.5553 1.4703 0 2.0312.5552.5609 1.4555.5609 2.0107 0z"/><path d="m35.4376 25.972c.6562-.6628.6562-1.7376 0-2.4005-.6562-.6628-1.7201-.6628-2.3763 0-.6562.6629-.6562 1.7377 0 2.4005.6562.6629 1.7201.6629 2.3763 0z"/><path d="m37.9017 28.4612c.6562-.6628.6562-1.7376 0-2.4005-.6562-.6628-1.7201-.6628-2.3763 0-.6562.6629-.6562 1.7377 0 2.4005.6562.6629 1.7201.6629 2.3763 0z"/><path d="m40.183 30.7658c.5552-.5609.5552-1.4703 0-2.0312-.5553-.5609-1.4555-.5609-2.0107 0-.5553.5609-.5553 1.4703 0 2.0312.5552.5609 1.4554.5609 2.0107 0z"/><path d="m42.4629 33.069c.4536-.4582.4536-1.201 0-1.6592-.4535-.4582-1.1888-.4582-1.6424 0-.4535.4582-.4535 1.201 0 1.6592.4536.4581 1.1889.4581 1.6424 0z"/><path d="m44.7443 35.3735c.3525-.3562.3525-.9337 0-1.2898-.3526-.3562-.9243-.3562-1.2769 0-.3526.3561-.3526.9336 0 1.2898s.9243.3562 1.2769 0z"/><path d="m47.0256 37.6781c.2516-.2543.2516-.6664 0-.9206-.2517-.2542-.6597-.2542-.9113 0-.2517.2542-.2517.6663 0 .9206.2516.2542.6596.2542.9113 0z"/><path d="m29.7769 15.2753c.2516-.2542.2516-.6664 0-.9206-.2517-.2542-.6597-.2542-.9113 0s-.2516.6664 0 .9206.6596.2542.9113 0z"/><path d="m32.3633 17.888c.3192-.3224.3192-.8452 0-1.1676-.3192-.3225-.8367-.3225-1.1559 0-.3192.3224-.3192.8452 0 1.1676.3192.3225.8367.3225 1.1559 0z"/><path d="m34.9497 20.5008c.3867-.3907.3867-1.0241 0-1.4148s-1.0138-.3907-1.4005 0c-.3868.3907-.3868 1.0241 0 1.4148.3867.3907 1.0138.3907 1.4005 0z"/><path d="m37.5347 23.1122c.4536-.4582.4536-1.201 0-1.6592-.4535-.4582-1.1888-.4582-1.6424 0-.4535.4582-.4535 1.201 0 1.6592.4536.4581 1.1889.4581 1.6424 0z"/><path d="m39.9988 25.6014c.4536-.4582.4536-1.201 0-1.6592-.4535-.4582-1.1888-.4582-1.6424 0-.4535.4582-.4535 1.201 0 1.6592.4536.4581 1.1889.4581 1.6424 0z"/><path d="m42.342 27.9684c.3867-.3907.3867-1.0241 0-1.4148-.3868-.3907-1.0138-.3907-1.4005 0-.3868.3907-.3868 1.0241 0 1.4148.3867.3906 1.0137.3906 1.4005 0z"/><path d="m44.6838 30.334c.3192-.3224.3192-.8452 0-1.1676-.3192-.3225-.8367-.3225-1.1559 0-.3192.3224-.3192.8452 0 1.1676.3192.3225.8367.3225 1.1559 0z"/><path d="m47.0256 32.6997c.2516-.2542.2516-.6664 0-.9206-.2517-.2542-.6597-.2542-.9113 0-.2517.2542-.2517.6664 0 .9206.2516.2542.6596.2542.9113 0z"/><path d="m37.1087 17.7034c.2182-.2205.2182-.5779 0-.7984-.2183-.2204-.5721-.2204-.7903 0-.2183.2205-.2183.5779 0 .7984.2182.2204.572.2204.7903 0z"/><path d="m39.6333 20.2537c.2516-.2542.2516-.6664 0-.9206-.2517-.2542-.6597-.2542-.9113 0s-.2516.6664 0 .9206.6596.2542.9113 0z"/><path d="m42.0974 22.7429c.2516-.2542.2516-.6664 0-.9206-.2517-.2542-.6597-.2542-.9113 0s-.2516.6664 0 .9206.6596.2542.9113 0z"/><path d="m44.501 25.171c.2182-.2205.2182-.5779 0-.7984-.2183-.2205-.5721-.2205-.7903 0-.2183.2205-.2183.5779 0 .7984.2182.2204.572.2204.7903 0z"/><path d="m31.0886 3.55469-17.0066 10.02821 4.3999 2.5915v-.1197l3.7241 2.3169 8.8826 5.2394 17.0065-10.0281zm-4.1241 17.41551-8.1929-4.831 16.6686-9.83099 8.1998 4.83099z"/><path d="m18.4805 16.0547 3.724 2.3169-3.724-2.1972z"/></g><path d="m43.641 11.1396-16.6755 9.831h-.0069l-8.193-4.831 16.6755-9.83101z" fill="#fff"/><path d="m31.0886 23.6102v20.0563l-17.0066-10.0281v-20.0564l4.3999 2.5916v19.9366l8.393 4.9296v-19.7606l-4.6689-2.9084z" fill="#ddb4ff"/><path d="m26.8734 21.2775v19.7606l-8.3929-4.9296v-19.9366l3.724 2.1972z" fill="#ddb4ff"/><path d="m26.8734 21.28v19.7606l-8.3929-4.9296v-20.0563l3.724 2.3169z" fill="#fff"/><path d="m48.0994 13.582v20.0564l-17.0135 10.0281v-20.0563h.0069z" fill="#ddb4ff"/><path d="m31.0948 24.6669c-.1793 0-.3655-.0493-.5241-.1409l-17.0066-10.0281c-.3172-.1902-.5172-.5353-.5172-.9155 0-.3803.2-.7254.5172-.9155l17.0134-10.0282c.3173-.19014.7173-.19014 1.0345 0l17.0135 10.0282c.3172.1901.5172.5352.5172.9155 0 .3802-.2.7253-.5172.9155l-17.0066 10.0281c-.1586.0916-.3379.1409-.5172.1409zm-14.9445-11.0845 14.9445 8.8098 14.9376-8.8098-14.9376-8.8099z" fill="#b65bff"/><path d="m26.9687 22.0264c-.1793 0-.3655-.0493-.5242-.1408l-8.1929-4.831c-.3172-.1902-.5172-.5352-.5172-.9155s.2-.7254.5172-.9155l16.6755-9.83099c.3173-.19015.7173-.19015 1.0345 0l8.1998 4.83099c.3173.1901.5172.5352.5172.9155s-.1999.7253-.5172.9155l-16.6755 9.831c-.1586.0915-.3379.1408-.5172.1408zm-6.1309-5.8873 6.124 3.6127 14.6066-8.6127-6.1309-3.61269-14.6066 8.61269z" fill="#b65bff"/><path d="m31.0957 44.7224c-.1793 0-.3586-.0493-.5172-.1409l-17.0066-10.0281c-.3172-.1902-.5172-.5352-.5172-.9155v-20.0564c0-.3802.2-.7253.5172-.9155.3173-.1901.7172-.1901 1.0345 0l17.0065 10.0282c.3173.1902.5173.5352.5173.9155v20.0563c0 .3803-.2.7254-.5173.9155-.1586.0916-.3379.1409-.5172.1409zm-15.9721-11.6972 14.9376 8.8099v-17.6127l-14.9376-8.8099v17.6197z" fill="#b65bff"/><path d="m26.8727 42.0996c-.1793 0-.3586-.0493-.5172-.1409l-8.393-4.9295c-.3241-.1902-.5172-.5353-.5172-.9155v-20.0564c0-.3803.2-.7324.531-.9225.3242-.1831.7242-.1831 1.0483.0211l8.3929 5.2254c.3104.1901.4966.5352.4966.9014v19.7605c0 .3803-.2.7254-.5173.9155-.1586.0916-.3379.1409-.5172.1409zm-7.3585-6.5986 6.324 3.7113v-17.3381l-6.324-3.9366z" fill="#b65bff"/><path d="m31.0931 44.7224c-.1794 0-.3587-.0493-.5173-.1409-.3172-.1901-.5172-.5352-.5172-.9155v-20.0563c0-.4225.2414-.7887.5931-.9577l16.9376-9.986c.3172-.1901.7172-.1901 1.0344 0 .3173.1902.5173.5353.5173.9155v20.0564c0 .3803-.2.7253-.5173.9155l-17.0134 10.0281c-.1586.0916-.3379.1409-.5172.1409zm1.0344-20.5v17.6127l14.9445-8.8099v-17.6127z" fill="#b65bff"/><path d="m13.984 19.2806h-6.93782c-.5724 0-1.03446-.4718-1.03446-1.0563s.46206-1.0563 1.03446-1.0563h6.93782c.5724 0 1.0344.4718 1.0344 1.0563s-.462 1.0563-1.0344 1.0563z" fill="#b65bff"/><path d="m13.9849 23.7885h-12.28247c-.5724 0-1.034461-.4719-1.034461-1.0564s.462061-1.0563 1.034461-1.0563h12.28247c.5724 0 1.0345.4718 1.0345 1.0563s-.4621 1.0564-1.0345 1.0564z" fill="#b65bff"/><path d="m13.9859 28.2924h-7.59988c-.5724 0-1.03446-.4719-1.03446-1.0564s.46206-1.0563 1.03446-1.0563h7.59988c.5724 0 1.0344.4718 1.0344 1.0563s-.462 1.0564-1.0344 1.0564z" fill="#b65bff"/><path d="m13.9859 32.7963h-7.59988c-.5724 0-1.03446-.4719-1.03446-1.0564s.46206-1.0563 1.03446-1.0563h7.59988c.5724 0 1.0344.4718 1.0344 1.0563s-.462 1.0564-1.0344 1.0564z" fill="#b65bff"/><path d="m13.985 14.7806h-9.72398c-.5724 0-1.03446-.4718-1.03446-1.0563s.46206-1.0563 1.03446-1.0563h9.72398c.5724 0 1.0344.4718 1.0344 1.0563s-.462 1.0563-1.0344 1.0563z" fill="#b65bff"/></svg>