<svg fill="none" height="71" viewBox="0 0 51 71" width="51" xmlns="http://www.w3.org/2000/svg"><g fill="#ddb4ff"><path d="m4.33955 60.4205c.21824-.2205.21824-.5779 0-.7984-.21824-.2204-.57207-.2204-.7903 0-.21824.2205-.21824.5779 0 .7984.21823.2204.57207.2204.7903 0z"/><path d="m6.86413 62.9708c.25164-.2542.25164-.6664 0-.9206s-.65963-.2542-.91127 0-.25164.6664 0 .9206.65963.2542.91127 0z"/><path d="m9.32823 65.46c.25164-.2542.25164-.6664 0-.9206s-.65963-.2542-.91127 0-.25164.6664 0 .9206.65963.2542.91127 0z"/><path d="m11.7318 67.8881c.2183-.2205.2183-.5779 0-.7984-.2182-.2204-.572-.2204-.7903 0-.2182.2205-.2182.5779 0 .7984.2183.2204.5721.2204.7903 0z"/><path d="m1.93594 53.014c.25163-.2542.25163-.6664 0-.9206-.25164-.2542-.65963-.2542-.91127 0-.251642.2542-.251642.6664 0 .9206.25164.2542.65963.2542.91127 0z"/><path d="m4.52234 55.6267c.31919-.3224.31919-.8452 0-1.1676-.31919-.3225-.8367-.3225-1.15588 0-.31919.3224-.31919.8452 0 1.1676.31918.3225.83669.3225 1.15588 0z"/><path d="m7.10875 58.2395c.38674-.3907.38674-1.0241 0-1.4148s-1.01377-.3907-1.4005 0c-.38674.3907-.38674 1.0241 0 1.4148.38673.3907 1.01376.3907 1.4005 0z"/><path d="m9.69381 60.8509c.45359-.4582.45359-1.201 0-1.6592-.45354-.4581-1.18889-.4581-1.64243 0-.45355.4582-.45355 1.201 0 1.6592.45354.4582 1.18889.4582 1.64243 0z"/><path d="m12.1579 63.3401c.4536-.4582.4536-1.201 0-1.6592-.4535-.4581-1.1889-.4581-1.6424 0-.4536.4582-.4536 1.201 0 1.6592.4535.4582 1.1889.4582 1.6424 0z"/><path d="m14.501 65.7071c.3868-.3907.3868-1.0241 0-1.4148-.3867-.3907-1.0137-.3907-1.4005 0-.3867.3907-.3867 1.0241 0 1.4148.3868.3907 1.0138.3907 1.4005 0z"/><path d="m16.8428 68.0727c.3192-.3224.3192-.8452 0-1.1676-.3192-.3225-.8367-.3225-1.1559 0-.3191.3224-.3191.8452 0 1.1676.3192.3225.8367.3225 1.1559 0z"/><path d="m19.1846 70.4384c.2517-.2542.2517-.6664 0-.9206-.2516-.2542-.6596-.2542-.9113 0-.2516.2542-.2516.6664 0 .9206.2517.2542.6597.2542.9113 0z"/><path d="m1.93594 48.0356c.25163-.2542.25163-.6664 0-.9206-.25164-.2542-.65963-.2542-.91127 0-.251642.2542-.251642.6664 0 .9206.25164.2542.65963.2542.91127 0z"/><path d="m4.58282 50.7094c.3526-.3561.3526-.9336 0-1.2898-.35259-.3562-.92425-.3562-1.27685 0-.35259.3562-.35259.9337 0 1.2898.3526.3562.92426.3562 1.27685 0z"/><path d="m7.22971 53.3833c.45355-.4582.45355-1.201 0-1.6592-.45354-.4581-1.18889-.4581-1.64243 0-.45355.4582-.45355 1.201 0 1.6592.45354.4582 1.18889.4582 1.64243 0z"/><path d="m9.87795 56.0585c.55525-.5609.55525-1.4703 0-2.0312-.55524-.5609-1.45547-.5609-2.01071 0s-.55524 1.4703 0 2.0312 1.45547.5609 2.01071 0z"/><path d="m12.5248 58.7324c.6562-.6629.6562-1.7377 0-2.4005-.6562-.6629-1.7201-.6629-2.3763 0-.65614.6628-.65614 1.7376 0 2.4005.6562.6628 1.7201.6628 2.3763 0z"/><path d="m14.9889 61.2216c.6562-.6629.6562-1.7377 0-2.4005-.6562-.6629-1.7201-.6629-2.3763 0-.6561.6628-.6561 1.7376 0 2.4005.6562.6628 1.7201.6628 2.3763 0z"/><path d="m17.2702 63.5261c.5553-.5609.5553-1.4703 0-2.0312-.5552-.5609-1.4554-.5609-2.0107 0-.5552.5609-.5552 1.4703 0 2.0312.5553.5609 1.4555.5609 2.0107 0z"/><path d="m19.5502 65.8293c.4535-.4582.4535-1.201 0-1.6592-.4535-.4581-1.1889-.4581-1.6424 0-.4536.4582-.4536 1.201 0 1.6592.4535.4582 1.1889.4582 1.6424 0z"/><path d="m21.8315 68.1338c.3526-.3561.3526-.9336 0-1.2898s-.9243-.3562-1.2768 0c-.3526.3562-.3526.9337 0 1.2898.3525.3562.9242.3562 1.2768 0z"/><path d="m24.1128 70.4384c.2517-.2542.2517-.6664 0-.9206-.2516-.2542-.6596-.2542-.9113 0-.2516.2542-.2516.6664 0 .9206.2517.2542.6597.2542.9113 0z"/><path d="m4.52234 45.67c.31919-.3225.31919-.8453 0-1.1677-.31919-.3225-.8367-.3225-1.15588 0-.31919.3224-.31919.8452 0 1.1677.31918.3224.83669.3224 1.15588 0z"/><path d="m7.22971 48.4049c.45355-.4582.45355-1.201 0-1.6592-.45354-.4581-1.18889-.4581-1.64243 0-.45355.4582-.45355 1.201 0 1.6592.45354.4582 1.18889.4582 1.64243 0z"/><path d="m9.93843 51.1412c.58867-.5946.58867-1.5587 0-2.1534-.58865-.5946-1.54303-.5946-2.13167 0-.58865.5947-.58865 1.5588 0 2.1534.58864.5946 1.54302.5946 2.13167 0z"/><path d="m12.6458 53.8762c.723-.7304.723-1.9146 0-2.6449-.723-.7304-1.8952-.7304-2.6182 0-.72302.7303-.72302 1.9145 0 2.6449.723.7303 1.8952.7303 2.6182 0z"/><path d="m15.3545 56.6125c.8581-.8669.8581-2.2723 0-3.1391-.8581-.8669-2.2493-.8669-3.1074 0-.8581.8668-.8581 2.2722 0 3.1391.8581.8668 2.2493.8668 3.1074 0z"/><path d="m17.8186 59.1017c.8581-.8669.8581-2.2723 0-3.1391-.8581-.8669-2.2493-.8669-3.1074 0-.8581.8668-.8581 2.2722 0 3.1391.8581.8668 2.2493.8668 3.1074 0z"/><path d="m20.0381 61.3438c.723-.7304.723-1.9146 0-2.6449-.723-.7304-1.8952-.7304-2.6182 0-.723.7303-.723 1.9145 0 2.6449.723.7303 1.8952.7303 2.6182 0z"/><path d="m22.2589 63.5872c.5887-.5946.5887-1.5587 0-2.1534-.5886-.5946-1.543-.5946-2.1317 0-.5886.5947-.5886 1.5588 0 2.1534.5887.5946 1.5431.5946 2.1317 0z"/><path d="m24.4784 65.8293c.4535-.4582.4535-1.201 0-1.6592-.4536-.4581-1.1889-.4581-1.6424 0-.4536.4582-.4536 1.201 0 1.6592.4535.4582 1.1888.4582 1.6424 0z"/><path d="m26.6992 68.0727c.3192-.3224.3192-.8452 0-1.1676-.3192-.3225-.8367-.3225-1.1559 0-.3192.3224-.3192.8452 0 1.1676.3192.3225.8367.3225 1.1559 0z"/><path d="m4.33955 40.5069c.21824-.2205.21824-.5779 0-.7984-.21823-.2204-.57207-.2204-.7903 0-.21824.2205-.21824.5779 0 .7984.21823.2205.57206.2205.7903 0z"/><path d="m7.10875 43.3043c.38674-.3907.38674-1.0241 0-1.4148-.38674-.3906-1.01377-.3906-1.4005 0-.38674.3907-.38674 1.0241 0 1.4148.38673.3907 1.01376.3907 1.4005 0z"/><path d="m9.8766 46.1004c.5545-.5602.5545-1.4684 0-2.0285-.5545-.5602-1.45351-.5602-2.00801 0-.5545.5601-.5545 1.4683 0 2.0285.55449.5601 1.45351.5601 2.00801 0z"/><path d="m12.6458 48.8978c.723-.7304.723-1.9146 0-2.6449-.723-.7304-1.8952-.7304-2.6182 0-.72302.7303-.72302 1.9145 0 2.6449.723.7303 1.8952.7303 2.6182 0z"/><path d="m15.415 51.6952c.8915-.9006.8915-2.3608 0-3.2613-.8915-.9006-2.3369-.9006-3.2284 0-.8915.9005-.8915 2.3607 0 3.2613s2.3369.9006 3.2284 0z"/><path d="m18.1842 54.4926c1.06-1.0708 1.06-2.8069 0-3.8777s-2.7786-1.0708-3.8386 0-1.06 2.8069 0 3.8777 2.7786 1.0708 3.8386 0z"/><path d="m20.6483 56.9818c1.06-1.0708 1.06-2.8069 0-3.8777s-2.7786-1.0708-3.8386 0-1.06 2.8069 0 3.8777 2.7786 1.0708 3.8386 0z"/><path d="m22.8073 59.1628c.8915-.9006.8915-2.3608 0-3.2613-.8915-.9006-2.3369-.9006-3.2284 0-.8915.9005-.8915 2.3607 0 3.2613.8915.9005 2.3369.9005 3.2284 0z"/><path d="m24.9663 61.3438c.723-.7304.723-1.9146 0-2.6449-.723-.7304-1.8952-.7304-2.6182 0-.723.7303-.723 1.9145 0 2.6449.723.7303 1.8952.7303 2.6182 0z"/><path d="m27.1253 63.5247c.5545-.5601.5545-1.4683 0-2.0284-.5545-.5602-1.4535-.5602-2.008 0-.5545.5601-.5545 1.4683 0 2.0284.5545.5602 1.4535.5602 2.008 0z"/><path d="m29.2856 65.7071c.3868-.3907.3868-1.0241 0-1.4148-.3867-.3907-1.0137-.3907-1.4005 0-.3867.3907-.3867 1.0241 0 1.4148.3868.3907 1.0138.3907 1.4005 0z"/><path d="m31.4446 67.8881c.2183-.2205.2183-.5779 0-.7984-.2182-.2204-.572-.2204-.7903 0-.2182.2205-.2182.5779 0 .7984.2183.2204.5721.2204.7903 0z"/><path d="m6.86413 38.0788c.25164-.2542.25164-.6663 0-.9206-.25164-.2542-.65963-.2542-.91127 0-.25164.2543-.25164.6664 0 .9206s.65963.2542.91127 0z"/><path d="m9.69381 40.9373c.45359-.4582.45359-1.201 0-1.6592-.45354-.4581-1.18889-.4581-1.64243 0-.45355.4582-.45355 1.201 0 1.6592.45354.4582 1.18889.4582 1.64243 0z"/><path d="m12.5248 43.7972c.6562-.6629.6562-1.7376 0-2.4005s-1.7201-.6629-2.3763 0c-.65614.6629-.65614 1.7376 0 2.4005.6562.6628 1.7201.6628 2.3763 0z"/><path d="m15.3545 46.6557c.8581-.8669.8581-2.2723 0-3.1391-.8581-.8669-2.2493-.8669-3.1074 0-.8581.8668-.8581 2.2722 0 3.1391.8581.8668 2.2493.8668 3.1074 0z"/><path d="m18.1842 49.5142c1.06-1.0708 1.06-2.8069 0-3.8777s-2.7786-1.0708-3.8386 0-1.06 2.8069 0 3.8777 2.7786 1.0708 3.8386 0z"/><path d="m21.0152 52.374c1.2627-1.2755 1.2627-3.3435 0-4.619-1.2626-1.2755-3.3098-1.2755-4.5724 0-1.2627 1.2755-1.2627 3.3435 0 4.619 1.2626 1.2756 3.3098 1.2756 4.5724 0z"/><path d="m23.4793 54.8632c1.2627-1.2755 1.2627-3.3435 0-4.619-1.2626-1.2755-3.3098-1.2755-4.5725 0-1.2626 1.2755-1.2626 3.3435 0 4.619 1.2627 1.2756 3.3099 1.2756 4.5725 0z"/><path d="m25.5765 56.9818c1.06-1.0708 1.06-2.8069 0-3.8777s-2.7786-1.0708-3.8386 0-1.06 2.8069 0 3.8777 2.7786 1.0708 3.8386 0z"/><path d="m27.675 59.1017c.8581-.8669.8581-2.2723 0-3.1391-.8581-.8669-2.2494-.8669-3.1074 0-.8581.8668-.8582 2.2722-.0001 3.1391.8581.8668 2.2494.8668 3.1075 0z"/><path d="m29.7735 61.2216c.6562-.6629.6562-1.7377 0-2.4005-.6562-.6629-1.7201-.6629-2.3763 0-.6562.6628-.6562 1.7376 0 2.4005.6562.6628 1.7201.6628 2.3763 0z"/><path d="m31.8707 63.3401c.4535-.4582.4535-1.201 0-1.6592-.4536-.4581-1.1889-.4581-1.6424 0-.4536.4582-.4536 1.201 0 1.6592.4535.4582 1.1888.4582 1.6424 0z"/><path d="m33.9692 65.46c.2516-.2542.2516-.6664 0-.9206s-.6596-.2542-.9113 0c-.2516.2542-.2516.6664 0 .9206.2517.2542.6597.2542.9113 0z"/><path d="m9.32823 35.5896c.25164-.2542.25164-.6663 0-.9206-.25164-.2542-.65963-.2542-.91127 0-.25164.2543-.25164.6664 0 .9206s.65963.2542.91127 0z"/><path d="m12.1579 38.4481c.4536-.4582.4536-1.201 0-1.6592-.4535-.4581-1.1889-.4581-1.6424 0-.4536.4582-.4536 1.201 0 1.6592.4535.4582 1.1889.4582 1.6424 0z"/><path d="m14.9889 41.308c.6562-.6629.6562-1.7376 0-2.4005s-1.7201-.6629-2.3763 0c-.6561.6629-.6561 1.7376 0 2.4005.6562.6628 1.7201.6628 2.3763 0z"/><path d="m17.8186 44.1665c.8581-.8669.8581-2.2723 0-3.1391-.8581-.8669-2.2493-.8669-3.1074 0-.8581.8668-.8581 2.2722 0 3.1391.8581.8668 2.2493.8668 3.1074 0z"/><path d="m20.6483 47.025c1.06-1.0708 1.06-2.8069 0-3.8777s-2.7786-1.0708-3.8386 0-1.06 2.8069 0 3.8777 2.7786 1.0708 3.8386 0z"/><path d="m23.4793 49.8848c1.2627-1.2755 1.2627-3.3435 0-4.619-1.2626-1.2755-3.3098-1.2755-4.5725 0-1.2626 1.2755-1.2626 3.3435 0 4.619 1.2627 1.2756 3.3099 1.2756 4.5725 0z"/><path d="m25.9434 52.374c1.2627-1.2755 1.2627-3.3435 0-4.619-1.2626-1.2755-3.3098-1.2755-4.5725 0-1.2626 1.2755-1.2626 3.3435 0 4.619 1.2627 1.2756 3.3099 1.2756 4.5725 0z"/><path d="m28.0406 54.4926c1.06-1.0708 1.06-2.8069 0-3.8777s-2.7786-1.0708-3.8386 0-1.06 2.8069 0 3.8777 2.7786 1.0708 3.8386 0z"/><path d="m30.1391 56.6125c.8581-.8669.8581-2.2723 0-3.1391-.8581-.8669-2.2494-.8669-3.1075 0-.8581.8668-.8581 2.2722 0 3.1391.8581.8668 2.2494.8668 3.1075 0z"/><path d="m32.2376 58.7324c.6562-.6629.6562-1.7377 0-2.4005-.6562-.6629-1.7201-.6629-2.3763 0-.6562.6628-.6562 1.7376 0 2.4005.6562.6628 1.7201.6628 2.3763 0z"/><path d="m34.3348 60.8509c.4535-.4582.4535-1.201 0-1.6592-.4536-.4581-1.1889-.4581-1.6424 0-.4536.4582-.4536 1.201 0 1.6592.4535.4582 1.1888.4582 1.6424 0z"/><path d="m36.4333 62.9708c.2516-.2542.2516-.6664 0-.9206s-.6596-.2542-.9113 0c-.2516.2542-.2516.6664 0 .9206.2517.2542.6597.2542.9113 0z"/><path d="m11.7318 33.0393c.2183-.2205.2183-.5779 0-.7984-.2182-.2204-.572-.2204-.7903.0001-.2182.2204-.2182.5778 0 .7983.2183.2205.5721.2205.7903 0z"/><path d="m14.501 35.8367c.3868-.3907.3868-1.0241 0-1.4148-.3867-.3906-1.0137-.3906-1.4005 0-.3867.3907-.3867 1.0241 0 1.4148.3868.3907 1.0138.3907 1.4005 0z"/><path d="m17.2689 38.6328c.5545-.5602.5545-1.4684 0-2.0285-.5545-.5602-1.4535-.5602-2.008 0-.5545.5601-.5545 1.4683 0 2.0285.5545.5601 1.4535.5601 2.008 0z"/><path d="m20.0381 41.4302c.723-.7304.723-1.9146 0-2.6449-.723-.7304-1.8952-.7304-2.6182 0-.723.7303-.723 1.9145 0 2.6449.723.7303 1.8952.7303 2.6182 0z"/><path d="m22.8073 44.2276c.8915-.9006.8915-2.3607 0-3.2613s-2.3369-.9006-3.2284 0-.8915 2.3607 0 3.2613 2.3369.9006 3.2284 0z"/><path d="m25.5765 47.025c1.06-1.0708 1.06-2.8069 0-3.8777s-2.7786-1.0708-3.8386 0-1.06 2.8069 0 3.8777 2.7786 1.0708 3.8386 0z"/><path d="m28.0406 49.5142c1.06-1.0708 1.06-2.8069 0-3.8777s-2.7786-1.0708-3.8386 0-1.06 2.8069 0 3.8777 2.7786 1.0708 3.8386 0z"/><path d="m30.1996 51.6952c.8915-.9006.8915-2.3608 0-3.2613-.8915-.9006-2.3369-.9006-3.2284 0-.8915.9005-.8915 2.3607 0 3.2613s2.3369.9006 3.2284 0z"/><path d="m32.3586 53.8762c.723-.7304.723-1.9146 0-2.6449-.723-.7304-1.8952-.7304-2.6182 0-.723.7303-.723 1.9145 0 2.6449.723.7303 1.8952.7303 2.6182 0z"/><path d="m34.5176 56.0571c.5545-.5601.5545-1.4683 0-2.0284-.5545-.5602-1.4535-.5602-2.008 0-.5545.5601-.5545 1.4683 0 2.0284.5545.5602 1.4535.5602 2.008 0z"/><path d="m36.6779 58.2395c.3868-.3907.3868-1.0241 0-1.4148-.3867-.3907-1.0137-.3907-1.4005 0-.3867.3907-.3867 1.0241 0 1.4148.3868.3907 1.0138.3907 1.4005 0z"/><path d="m38.8369 60.4205c.2182-.2205.2182-.5779 0-.7984-.2182-.2204-.5721-.2204-.7903 0-.2182.2205-.2182.5779 0 .7984.2182.2204.5721.2204.7903 0z"/><path d="m16.8428 33.224c.3192-.3225.3192-.8453 0-1.1677s-.8367-.3224-1.1559 0c-.3191.3224-.3191.8452 0 1.1677.3192.3224.8367.3224 1.1559 0z"/><path d="m19.5502 35.9589c.4535-.4582.4535-1.201 0-1.6592-.4535-.4581-1.1889-.4581-1.6424 0-.4536.4582-.4536 1.201 0 1.6592.4535.4582 1.1889.4582 1.6424 0z"/><path d="m22.2589 38.6952c.5887-.5946.5887-1.5587 0-2.1534-.5886-.5946-1.543-.5946-2.1317 0-.5886.5947-.5886 1.5588 0 2.1534.5887.5947 1.5431.5947 2.1317 0z"/><path d="m24.9663 41.4302c.723-.7304.723-1.9146 0-2.6449-.723-.7304-1.8952-.7304-2.6182 0-.723.7303-.723 1.9145 0 2.6449.723.7303 1.8952.7303 2.6182 0z"/><path d="m27.675 44.1665c.8581-.8669.8581-2.2723 0-3.1391-.8581-.8669-2.2494-.8669-3.1075 0-.8581.8668-.858 2.2722.0001 3.1391.858.8668 2.2493.8668 3.1074 0z"/><path d="m30.1391 46.6557c.8581-.8669.8581-2.2723 0-3.1391-.8581-.8669-2.2494-.8669-3.1075 0-.8581.8668-.8581 2.2722 0 3.1391.8581.8668 2.2494.8668 3.1075 0z"/><path d="m32.3586 48.8978c.723-.7304.723-1.9146 0-2.6449-.723-.7304-1.8952-.7304-2.6182 0-.723.7303-.723 1.9145 0 2.6449.723.7303 1.8952.7303 2.6182 0z"/><path d="m34.5794 51.1412c.5886-.5946.5886-1.5587 0-2.1534-.5886-.5946-1.543-.5946-2.1317 0-.5886.5947-.5886 1.5588 0 2.1534.5887.5946 1.5431.5946 2.1317 0z"/><path d="m36.7989 53.3833c.4535-.4582.4535-1.201 0-1.6592-.4536-.4581-1.1889-.4581-1.6425 0-.4535.4582-.4535 1.201 0 1.6592.4536.4582 1.1889.4582 1.6425 0z"/><path d="m39.0197 55.6267c.3192-.3224.3192-.8452 0-1.1676-.3192-.3225-.8367-.3225-1.1559 0-.3192.3224-.3192.8452 0 1.1676.3192.3225.8367.3225 1.1559 0z"/><path d="m19.1846 30.6112c.2517-.2542.2517-.6663 0-.9205-.2516-.2543-.6596-.2543-.9113 0-.2516.2542-.2516.6663 0 .9205.2517.2542.6597.2542.9113 0z"/><path d="m21.8315 33.2851c.3526-.3562.3526-.9337 0-1.2899s-.9243-.3562-1.2768 0c-.3526.3562-.3526.9337 0 1.2899.3525.3561.9242.3561 1.2768 0z"/><path d="m24.4784 35.9589c.4535-.4582.4535-1.201 0-1.6592-.4536-.4581-1.1889-.4581-1.6424 0-.4536.4582-.4536 1.201 0 1.6592.4535.4582 1.1888.4582 1.6424 0z"/><path d="m27.1266 38.6341c.5553-.5609.5553-1.4703 0-2.0312-.5552-.5609-1.4554-.5609-2.0107 0-.5552.5609-.5552 1.4703 0 2.0312.5553.5609 1.4555.5609 2.0107 0z"/><path d="m29.7735 41.308c.6562-.6629.6562-1.7376 0-2.4005s-1.7201-.6629-2.3763 0-.6562 1.7376 0 2.4005c.6562.6628 1.7201.6628 2.3763 0z"/><path d="m32.2376 43.7972c.6562-.6629.6562-1.7376 0-2.4005s-1.7201-.6629-2.3763 0-.6562 1.7376 0 2.4005c.6562.6628 1.7201.6628 2.3763 0z"/><path d="m34.5189 46.1017c.5553-.5609.5553-1.4703 0-2.0312-.5552-.5609-1.4554-.5609-2.0107 0-.5552.5609-.5552 1.4703 0 2.0312.5553.5609 1.4555.5609 2.0107 0z"/><path d="m36.7989 48.4049c.4535-.4582.4535-1.201 0-1.6592-.4536-.4581-1.1889-.4581-1.6425 0-.4535.4582-.4535 1.201 0 1.6592.4536.4582 1.1889.4582 1.6425 0z"/><path d="m39.0802 50.7094c.3526-.3561.3526-.9336 0-1.2898s-.9243-.3562-1.2769 0-.3526.9337 0 1.2898c.3526.3562.9243.3562 1.2769 0z"/><path d="m41.3615 53.014c.2516-.2542.2516-.6664 0-.9206s-.6596-.2542-.9113 0c-.2516.2542-.2516.6664 0 .9206.2517.2542.6597.2542.9113 0z"/><path d="m24.1128 30.6112c.2517-.2542.2517-.6663 0-.9205-.2516-.2543-.6596-.2543-.9113 0-.2516.2542-.2516.6663 0 .9205.2517.2542.6597.2542.9113 0z"/><path d="m26.6992 33.224c.3192-.3225.3192-.8453 0-1.1677s-.8367-.3224-1.1559 0-.3192.8452 0 1.1677c.3192.3224.8367.3224 1.1559 0z"/><path d="m29.2856 35.8367c.3868-.3907.3868-1.0241 0-1.4148-.3867-.3906-1.0137-.3906-1.4005 0-.3867.3907-.3867 1.0241 0 1.4148.3868.3907 1.0138.3907 1.4005 0z"/><path d="m31.8707 38.4481c.4535-.4582.4535-1.201 0-1.6592-.4536-.4581-1.1889-.4581-1.6424 0-.4536.4582-.4536 1.201 0 1.6592.4535.4582 1.1888.4582 1.6424 0z"/><path d="m34.3348 40.9373c.4535-.4582.4535-1.201 0-1.6592-.4536-.4581-1.1889-.4581-1.6424 0-.4536.4582-.4536 1.201 0 1.6592.4535.4582 1.1888.4582 1.6424 0z"/><path d="m36.6779 43.3043c.3868-.3907.3868-1.0241 0-1.4148-.3867-.3906-1.0137-.3906-1.4005 0-.3867.3907-.3867 1.0241 0 1.4148.3868.3907 1.0138.3907 1.4005 0z"/><path d="m39.0197 45.67c.3192-.3225.3192-.8453 0-1.1677-.3192-.3225-.8367-.3225-1.1559 0-.3192.3224-.3192.8452 0 1.1677.3192.3224.8367.3224 1.1559 0z"/><path d="m41.3615 48.0356c.2516-.2542.2516-.6664 0-.9206s-.6596-.2542-.9113 0c-.2516.2542-.2516.6664 0 .9206.2517.2542.6597.2542.9113 0z"/><path d="m31.4446 33.0393c.2183-.2205.2183-.5779 0-.7983-.2182-.2205-.572-.2205-.7903 0-.2182.2204-.2182.5778 0 .7983.2183.2205.5721.2205.7903 0z"/><path d="m33.9692 35.5896c.2516-.2542.2516-.6663 0-.9205-.2516-.2543-.6596-.2543-.9113 0-.2516.2542-.2516.6663 0 .9205.2517.2542.6597.2542.9113 0z"/><path d="m36.4333 38.0788c.2516-.2542.2516-.6663 0-.9206-.2516-.2542-.6596-.2542-.9113 0-.2516.2543-.2516.6664 0 .9206.2517.2542.6597.2542.9113 0z"/><path d="m38.8369 40.5069c.2182-.2205.2182-.5779 0-.7984-.2182-.2204-.5721-.2204-.7903 0-.2182.2205-.2182.5779 0 .7984s.5721.2205.7903 0z"/></g><path d="m42.1876 30.764-17.2309 9.9742h-.007l-17.23095-9.9742 11.73185-7.1234 5.534 5.2533 5.2406-4.9661z" fill="#fff"/><path d="m24.9497 40.7359v19.9483l-17.23095-9.9742v-19.9483z" fill="#ddb4ff"/><path d="m42.1871 30.7617v19.9483l-17.2379 9.9742v-19.9483h.007z" fill="#ddb4ff"/><path d="m24.954 41.7944c-.1817 0-.3703-.0491-.531-.1401l-17.23098-9.9742c-.32142-.1891-.52405-.5323-.52405-.9035 0-.3713.19565-.7215.51008-.9106l11.32655-6.7452c.4961-.2941 1.139-.133 1.4394.3643.2935.4973.1328 1.1417-.3633 1.4429l-9.78936 5.8346 15.16266 8.7764 15.1487-8.7694-10.1457-5.9677c-.4961-.2942-.6638-.9386-.3773-1.4359.2934-.4973.9363-.6654 1.4324-.3782l11.7039 6.8782c.3214.1891.517.5323.517.9106 0 .3712-.2026.7214-.524.9035l-17.231 9.9742c-.1607.091-.3423.1401-.524.1401z" fill="#b65bff"/><path d="m24.947 61.7404c-.1817 0-.3633-.049-.524-.1401l-17.23098-9.9742c-.32142-.1891-.52405-.5323-.52405-.9105v-19.9484c0-.3782.20263-.7214.52405-.9105s.72669-.1891 1.04811 0l17.23097 9.9741c.3214.1892.524.5324.524.9106v19.9483c0 .3783-.2026.7215-.524.9106-.1607.0911-.3424.1401-.5241.1401zm-16.18281-11.6342 15.13471 8.7624v-17.5248l-15.13471-8.7624z" fill="#b65bff"/><path d="m24.9465 61.7404c-.1816 0-.3633-.049-.524-.1401-.3214-.1891-.5241-.5323-.5241-.9106v-19.9483c0-.4203.2446-.7845.601-.9526l17.161-9.9321c.3214-.1891.7267-.1891 1.0481 0s.5241.5323.5241.9105v19.9484c0 .3782-.2027.7214-.5241.9105l-17.2379 9.9742c-.1607.0911-.3424.1401-.5241.1401zm1.0482-20.3896v17.5178l15.1417-8.7624v-17.5248l-15.1417 8.7624z" fill="#b65bff"/><path d="m29.3776 31.1667c0 .921-2.0533 1.6666-4.5833 1.6666-2.5301 0-4.5834-.7456-4.5834-1.6666 0-.9211 2.0533-1.6667 4.5834-1.6667 2.53 0 4.5833.7456 4.5833 1.6667z" fill="#ddb4ff"/><path d="m31.0996 12.7597c-1.6296-1.6201-3.7608-2.4277-5.8919-2.4277s-4.2622.8076-5.8919 2.4277c-3.2544 3.2353-3.2544 8.4796 0 11.7149l5.8919 5.8574 5.8919-5.8574c1.6297-1.6201 2.4421-3.7388 2.4421-5.8574 0-2.1187-.8124-4.2373-2.4421-5.8575zm-6.0223 10.7727c-2.7328 0-4.9492-2.1984-4.9492-4.9152 0-2.7169 2.2164-4.9203 4.9492-4.9203 2.7329 0 4.9442 2.2034 4.9442 4.9203 0 2.7168-2.2113 4.9152-4.9442 4.9152z" fill="#fff"/><path d="m24.9201 31.1679c-.1905 0-.3861-.0755-.5316-.2213l-5.8932-5.9075c-1.7153-1.7194-2.6633-4.007-2.6633-6.4404s.9429-4.721 2.6633-6.4405c3.5409-3.54949 9.3088-3.54949 12.8497 0 1.7153 1.7195 2.6633 4.0071 2.6633 6.4405s-.943 4.721-2.6633 6.4404l-5.8932 5.9075c-.1455.1458-.3411.2213-.5317.2213zm0-20.166c-1.941 0-3.882.739-5.3615 2.2222-2.9542 2.9613-2.9542 7.7828 0 10.7492l5.3615 5.3745 5.3616-5.3745c2.9542-2.9613 2.9542-7.7829 0-10.7492-1.4795-1.4832-3.4205-2.2222-5.3616-2.2222z" fill="#b65bff"/><path d="m24.7886 24.3157c-3.1447 0-5.7027-2.5641-5.7027-5.7164 0-3.1524 2.558-5.7165 5.7027-5.7165s5.7026 2.5641 5.7026 5.7165c0 3.1523-2.5579 5.7164-5.7026 5.7164zm0-9.9196c-2.3122 0-4.198 1.8854-4.198 4.2082s1.8808 4.2082 4.198 4.2082c2.3171 0 4.198-1.8854 4.198-4.2082s-1.8809-4.2082-4.198-4.2082z" fill="#b65bff"/></svg>