<svg fill="none" height="58" viewBox="0 0 64 58" width="64" xmlns="http://www.w3.org/2000/svg"><g fill="#ddb4ff"><path d="m11.3396 47.5885c.2182-.2205.2182-.5779 0-.7984-.2183-.2205-.5721-.2205-.7904 0-.2182.2205-.2182.5779 0 .7984.2183.2204.5721.2204.7904 0z"/><path d="m13.8641 50.1388c.2517-.2542.2517-.6664 0-.9206-.2516-.2542-.6596-.2542-.9112 0-.2517.2542-.2517.6664 0 .9206.2516.2542.6596.2542.9112 0z"/><path d="m16.3282 52.628c.2517-.2543.2517-.6664 0-.9206-.2516-.2542-.6596-.2542-.9112 0-.2517.2542-.2517.6663 0 .9206.2516.2542.6596.2542.9112 0z"/><path d="m18.7318 55.056c.2183-.2204.2183-.5778 0-.7983-.2182-.2205-.572-.2205-.7903 0-.2182.2205-.2182.5779 0 .7983.2183.2205.5721.2205.7903 0z"/><path d="m8.93594 40.182c.25163-.2542.25163-.6664 0-.9206-.25164-.2542-.65963-.2542-.91127 0s-.25164.6664 0 .9206.65963.2542.91127 0z"/><path d="m11.5223 42.7947c.3192-.3224.3192-.8452 0-1.1676-.3191-.3225-.8367-.3225-1.1558 0-.3192.3224-.3192.8452 0 1.1676.3191.3225.8367.3225 1.1558 0z"/><path d="m14.1087 45.4075c.3868-.3907.3868-1.0241 0-1.4148-.3867-.3907-1.0137-.3907-1.4005 0-.3867.3907-.3867 1.0241 0 1.4148.3868.3906 1.0138.3906 1.4005 0z"/><path d="m16.6938 48.0189c.4536-.4582.4536-1.201 0-1.6592-.4535-.4582-1.1889-.4582-1.6424 0-.4536.4582-.4536 1.201 0 1.6592.4535.4581 1.1889.4581 1.6424 0z"/><path d="m19.1579 50.5081c.4536-.4582.4536-1.201 0-1.6592-.4535-.4582-1.1889-.4582-1.6424 0-.4536.4582-.4536 1.201 0 1.6592.4535.4581 1.1889.4581 1.6424 0z"/><path d="m21.501 52.8751c.3868-.3907.3868-1.0241 0-1.4148-.3867-.3907-1.0137-.3907-1.4005 0-.3867.3907-.3867 1.0241 0 1.4148.3868.3906 1.0138.3906 1.4005 0z"/><path d="m23.8428 55.2407c.3192-.3224.3192-.8452 0-1.1677-.3192-.3224-.8367-.3224-1.1559 0-.3191.3225-.3191.8453 0 1.1677.3192.3224.8367.3224 1.1559 0z"/><path d="m26.1846 57.6063c.2517-.2542.2517-.6663 0-.9205-.2516-.2542-.6596-.2542-.9113 0-.2516.2542-.2516.6663 0 .9205.2517.2543.6597.2543.9113 0z"/><path d="m8.93594 35.2036c.25163-.2542.25163-.6664 0-.9206-.25164-.2542-.65963-.2542-.91127 0s-.25164.6664 0 .9206.65963.2542.91127 0z"/><path d="m11.5828 37.8774c.3526-.3562.3526-.9337 0-1.2898-.3526-.3562-.9242-.3562-1.2768 0-.35262.3561-.35262.9336 0 1.2898.3526.3562.9242.3562 1.2768 0z"/><path d="m14.2297 40.5513c.4536-.4582.4536-1.201 0-1.6592-.4535-.4582-1.1889-.4582-1.6424 0-.4536.4582-.4536 1.201 0 1.6592.4535.4581 1.1889.4581 1.6424 0z"/><path d="m16.8779 43.2265c.5553-.5609.5553-1.4703 0-2.0312-.5552-.5609-1.4554-.5609-2.0107 0-.5552.5609-.5552 1.4703 0 2.0312.5553.5609 1.4555.5609 2.0107 0z"/><path d="m19.5248 45.9003c.6562-.6628.6562-1.7376 0-2.4005-.6562-.6628-1.7201-.6628-2.3763 0-.6561.6629-.6561 1.7377 0 2.4005.6562.6629 1.7201.6629 2.3763 0z"/><path d="m21.9889 48.3895c.6562-.6629.6562-1.7376 0-2.4005-.6562-.6628-1.7201-.6628-2.3763 0-.6561.6629-.6561 1.7376 0 2.4005.6562.6629 1.7201.6629 2.3763 0z"/><path d="m24.2702 50.6941c.5553-.5609.5553-1.4703 0-2.0312-.5552-.5609-1.4554-.5609-2.0107 0-.5552.5609-.5552 1.4703 0 2.0312.5553.5609 1.4555.5609 2.0107 0z"/><path d="m26.5502 52.9973c.4535-.4582.4535-1.201 0-1.6592s-1.1889-.4582-1.6424 0c-.4536.4582-.4536 1.201 0 1.6592.4535.4581 1.1889.4581 1.6424 0z"/><path d="m28.8315 55.3018c.3526-.3562.3526-.9337 0-1.2899-.3526-.3561-.9243-.3561-1.2768 0-.3526.3562-.3526.9337 0 1.2899.3525.3562.9242.3562 1.2768 0z"/><path d="m31.1128 57.6063c.2517-.2542.2517-.6663 0-.9205-.2516-.2542-.6596-.2542-.9113 0-.2516.2542-.2516.6663 0 .9205.2517.2543.6597.2543.9113 0z"/><path d="m11.5223 32.8379c.3192-.3224.3192-.8452 0-1.1676-.3191-.3225-.8367-.3225-1.1558 0-.3192.3224-.3192.8452 0 1.1676.3191.3225.8367.3225 1.1558 0z"/><path d="m14.2297 35.5729c.4536-.4582.4536-1.201 0-1.6592-.4535-.4582-1.1889-.4582-1.6424 0-.4536.4582-.4536 1.201 0 1.6592.4535.4581 1.1889.4581 1.6424 0z"/><path d="m16.9384 38.3092c.5887-.5947.5887-1.5588 0-2.1534-.5886-.5946-1.543-.5946-2.1316 0-.5887.5946-.5887 1.5587 0 2.1534.5886.5946 1.543.5946 2.1316 0z"/><path d="m19.6458 41.0441c.723-.7303.723-1.9145 0-2.6449-.723-.7303-1.8952-.7303-2.6182 0-.723.7304-.723 1.9146 0 2.6449.723.7304 1.8952.7304 2.6182 0z"/><path d="m22.3545 43.7804c.8581-.8668.8581-2.2722 0-3.1391-.8581-.8668-2.2493-.8668-3.1074 0-.8581.8669-.8581 2.2723 0 3.1391.8581.8669 2.2493.8669 3.1074 0z"/><path d="m24.8186 46.2696c.8581-.8668.8581-2.2722 0-3.1391-.8581-.8668-2.2493-.8668-3.1074 0-.8581.8669-.8581 2.2723 0 3.1391.8581.8669 2.2493.8669 3.1074 0z"/><path d="m27.0381 48.5117c.723-.7303.723-1.9145 0-2.6449-.723-.7303-1.8952-.7303-2.6182 0-.723.7304-.723 1.9146 0 2.6449.723.7304 1.8952.7304 2.6182 0z"/><path d="m29.2589 50.7552c.5887-.5947.5887-1.5588 0-2.1534-.5886-.5947-1.543-.5947-2.1317 0-.5886.5946-.5886 1.5587 0 2.1534.5887.5946 1.5431.5946 2.1317 0z"/><path d="m31.4784 52.9973c.4535-.4582.4535-1.201 0-1.6592-.4536-.4582-1.1889-.4582-1.6424 0-.4536.4582-.4536 1.201 0 1.6592.4535.4581 1.1888.4581 1.6424 0z"/><path d="m33.6992 55.2407c.3192-.3224.3192-.8452 0-1.1677-.3192-.3224-.8367-.3224-1.1559 0-.3192.3225-.3192.8453 0 1.1677s.8367.3224 1.1559 0z"/><path d="m11.3396 27.6749c.2182-.2205.2182-.5779 0-.7984-.2183-.2204-.5721-.2204-.7904 0-.2182.2205-.2182.5779 0 .7984.2183.2204.5721.2204.7904 0z"/><path d="m14.1087 30.4723c.3868-.3907.3868-1.0241 0-1.4148-.3867-.3907-1.0137-.3907-1.4005 0-.3867.3907-.3867 1.0241 0 1.4148.3868.3907 1.0138.3907 1.4005 0z"/><path d="m16.8766 33.2683c.5545-.5601.5545-1.4683 0-2.0284-.5545-.5602-1.4535-.5602-2.008 0-.5545.5601-.5545 1.4683 0 2.0284.5545.5602 1.4535.5602 2.008 0z"/><path d="m19.6458 36.0657c.723-.7303.723-1.9145 0-2.6449-.723-.7303-1.8952-.7303-2.6182 0-.723.7304-.723 1.9146 0 2.6449.723.7304 1.8952.7304 2.6182 0z"/><path d="m22.415 38.8631c.8915-.9005.8915-2.3607 0-3.2613-.8915-.9005-2.3369-.9006-3.2284 0s-.8915 2.3608 0 3.2613c.8915.9006 2.3369.9006 3.2284 0z"/><path d="m25.1842 41.6605c1.06-1.0708 1.06-2.8069 0-3.8777s-2.7786-1.0708-3.8386 0-1.06 2.8069 0 3.8777 2.7786 1.0708 3.8386 0z"/><path d="m27.6483 44.1497c1.06-1.0708 1.06-2.8069 0-3.8777s-2.7786-1.0708-3.8386 0-1.06 2.8069 0 3.8777 2.7786 1.0708 3.8386 0z"/><path d="m29.8073 46.3307c.8915-.9006.8915-2.3607 0-3.2613s-2.3369-.9006-3.2284 0-.8915 2.3607 0 3.2613 2.3369.9006 3.2284 0z"/><path d="m31.9663 48.5117c.723-.7303.723-1.9145 0-2.6449-.723-.7303-1.8952-.7303-2.6182 0-.723.7304-.723 1.9146 0 2.6449.723.7304 1.8952.7304 2.6182 0z"/><path d="m34.1253 50.6927c.5545-.5601.5545-1.4683 0-2.0285-.5545-.5601-1.4535-.5601-2.008 0-.5545.5602-.5545 1.4684 0 2.0285.5545.5602 1.4535.5602 2.008 0z"/><path d="m36.2856 52.8751c.3868-.3907.3868-1.0241 0-1.4148-.3867-.3907-1.0137-.3907-1.4005 0-.3867.3907-.3867 1.0241 0 1.4148.3868.3906 1.0138.3906 1.4005 0z"/><path d="m38.4446 55.056c.2183-.2204.2183-.5778 0-.7983-.2182-.2205-.572-.2205-.7903 0-.2182.2205-.2182.5779 0 .7983.2183.2205.5721.2205.7903 0z"/><path d="m13.8641 25.2468c.2517-.2542.2517-.6664 0-.9206-.2516-.2542-.6596-.2542-.9112 0-.2517.2542-.2517.6664 0 .9206.2516.2542.6596.2542.9112 0z"/><path d="m16.6938 28.1053c.4536-.4582.4536-1.201 0-1.6592-.4535-.4582-1.1889-.4582-1.6424 0-.4536.4582-.4536 1.201 0 1.6592.4535.4581 1.1889.4581 1.6424 0z"/><path d="m19.5248 30.9651c.6562-.6628.6562-1.7376 0-2.4005-.6562-.6628-1.7201-.6628-2.3763 0-.6561.6629-.6561 1.7377 0 2.4005.6562.6629 1.7201.6629 2.3763 0z"/><path d="m22.3545 33.8236c.8581-.8668.8581-2.2722 0-3.1391-.8581-.8668-2.2493-.8668-3.1074 0-.8581.8669-.8581 2.2723 0 3.1391.8581.8669 2.2493.8669 3.1074 0z"/><path d="m25.1842 36.6821c1.06-1.0708 1.06-2.8069 0-3.8777s-2.7786-1.0708-3.8386 0-1.06 2.8069 0 3.8777 2.7786 1.0708 3.8386 0z"/><path d="m28.0152 39.542c1.2627-1.2755 1.2627-3.3435 0-4.619-1.2626-1.2756-3.3098-1.2756-4.5724 0-1.2627 1.2755-1.2627 3.3435 0 4.619 1.2626 1.2755 3.3098 1.2755 4.5724 0z"/><path d="m30.4793 42.0312c1.2627-1.2755 1.2627-3.3435 0-4.619-1.2626-1.2756-3.3098-1.2756-4.5725 0-1.2626 1.2755-1.2626 3.3435 0 4.619 1.2627 1.2755 3.3099 1.2755 4.5725 0z"/><path d="m32.5765 44.1497c1.06-1.0708 1.06-2.8069 0-3.8777s-2.7786-1.0708-3.8386 0-1.06 2.8069 0 3.8777 2.7786 1.0708 3.8386 0z"/><path d="m34.675 46.2696c.8581-.8668.8581-2.2722 0-3.1391-.8581-.8668-2.2494-.8668-3.1074 0-.8581.8669-.8582 2.2723-.0001 3.1391.8581.8669 2.2494.8669 3.1075 0z"/><path d="m36.7735 48.3895c.6562-.6629.6562-1.7376 0-2.4005-.6562-.6628-1.7201-.6628-2.3763 0-.6562.6629-.6562 1.7376 0 2.4005s1.7201.6629 2.3763 0z"/><path d="m38.8707 50.5081c.4535-.4582.4535-1.201 0-1.6592-.4536-.4582-1.1889-.4582-1.6424 0-.4536.4582-.4536 1.201 0 1.6592.4535.4581 1.1888.4581 1.6424 0z"/><path d="m40.9692 52.6279c.2516-.2542.2516-.6663 0-.9205s-.6596-.2542-.9113 0c-.2516.2542-.2516.6663 0 .9205.2517.2543.6597.2543.9113 0z"/><path d="m16.3282 22.7576c.2517-.2542.2517-.6664 0-.9206-.2516-.2542-.6596-.2542-.9112 0-.2517.2542-.2517.6664 0 .9206.2516.2542.6596.2542.9112 0z"/><path d="m19.1579 25.6161c.4536-.4582.4536-1.201 0-1.6592-.4535-.4582-1.1889-.4582-1.6424 0-.4536.4582-.4536 1.201 0 1.6592.4535.4581 1.1889.4581 1.6424 0z"/><path d="m21.9889 28.4759c.6562-.6628.6562-1.7376 0-2.4005-.6562-.6628-1.7201-.6628-2.3763 0-.6561.6629-.6561 1.7377 0 2.4005.6562.6629 1.7201.6629 2.3763 0z"/><path d="m24.8186 31.3344c.8581-.8668.8581-2.2722 0-3.1391-.8581-.8668-2.2493-.8668-3.1074 0-.8581.8669-.8581 2.2723 0 3.1391.8581.8669 2.2493.8669 3.1074 0z"/><path d="m27.6483 34.1929c1.06-1.0708 1.06-2.8069 0-3.8777s-2.7786-1.0708-3.8386 0-1.06 2.8069 0 3.8777c1.06 1.0709 2.7786 1.0709 3.8386 0z"/><path d="m30.4793 37.0528c1.2627-1.2755 1.2627-3.3435 0-4.619-1.2626-1.2756-3.3098-1.2756-4.5725 0-1.2626 1.2755-1.2626 3.3435 0 4.619 1.2627 1.2755 3.3099 1.2755 4.5725 0z"/><path d="m32.9434 39.542c1.2627-1.2755 1.2627-3.3435 0-4.619-1.2626-1.2756-3.3098-1.2756-4.5725 0-1.2626 1.2755-1.2626 3.3435 0 4.619 1.2627 1.2755 3.3099 1.2755 4.5725 0z"/><path d="m35.0406 41.6605c1.06-1.0708 1.06-2.8069 0-3.8777s-2.7786-1.0708-3.8386 0-1.06 2.8069 0 3.8777 2.7786 1.0708 3.8386 0z"/><path d="m37.1391 43.7804c.8581-.8668.8581-2.2722 0-3.1391-.8581-.8668-2.2494-.8668-3.1075 0-.8581.8669-.8581 2.2723 0 3.1391.8581.8669 2.2494.8669 3.1075 0z"/><path d="m39.2376 45.9003c.6562-.6629.6562-1.7376 0-2.4005-.6562-.6628-1.7201-.6628-2.3763 0-.6562.6629-.6562 1.7376 0 2.4005s1.7201.6629 2.3763 0z"/><path d="m41.3348 48.0189c.4535-.4582.4535-1.201 0-1.6592-.4536-.4582-1.1889-.4582-1.6424 0-.4536.4582-.4536 1.201 0 1.6592.4535.4581 1.1888.4581 1.6424 0z"/><path d="m43.4333 50.1388c.2516-.2543.2516-.6664 0-.9206s-.6596-.2542-.9113 0c-.2516.2542-.2516.6663 0 .9206.2517.2542.6597.2542.9113 0z"/><path d="m18.7318 20.2073c.2183-.2205.2183-.5779 0-.7984-.2182-.2204-.572-.2204-.7903 0-.2182.2205-.2182.5779 0 .7984.2183.2204.5721.2204.7903 0z"/><path d="m21.501 23.0047c.3868-.3907.3868-1.0241 0-1.4148-.3867-.3907-1.0137-.3907-1.4005 0-.3867.3907-.3867 1.0241 0 1.4148.3868.3907 1.0138.3907 1.4005 0z"/><path d="m24.2689 25.8007c.5545-.5601.5545-1.4683 0-2.0284-.5545-.5602-1.4535-.5602-2.008 0-.5545.5601-.5545 1.4683 0 2.0284.5545.5602 1.4535.5602 2.008 0z"/><path d="m27.0381 28.5981c.723-.7303.723-1.9145 0-2.6449-.723-.7303-1.8952-.7303-2.6182 0-.723.7304-.723 1.9146 0 2.6449.723.7304 1.8952.7304 2.6182 0z"/><path d="m29.8073 31.3955c.8915-.9005.8915-2.3607 0-3.2613-.8915-.9005-2.3369-.9005-3.2284 0-.8915.9006-.8915 2.3608 0 3.2613.8915.9006 2.3369.9006 3.2284 0z"/><path d="m32.5765 34.1929c1.06-1.0708 1.06-2.8069 0-3.8777s-2.7786-1.0708-3.8386 0-1.06 2.8069 0 3.8777c1.06 1.0709 2.7786 1.0709 3.8386 0z"/><path d="m35.0406 36.6821c1.06-1.0708 1.06-2.8069 0-3.8777s-2.7786-1.0708-3.8386 0-1.06 2.8069 0 3.8777 2.7786 1.0708 3.8386 0z"/><path d="m37.1996 38.8631c.8915-.9005.8915-2.3607 0-3.2613-.8915-.9005-2.3369-.9006-3.2284 0s-.8915 2.3608 0 3.2613c.8915.9006 2.3369.9006 3.2284 0z"/><path d="m39.3586 41.0441c.723-.7303.723-1.9145 0-2.6449-.723-.7303-1.8952-.7303-2.6182 0-.723.7304-.723 1.9146 0 2.6449.723.7304 1.8952.7304 2.6182 0z"/><path d="m41.5176 43.2251c.5545-.5601.5545-1.4683 0-2.0285-.5545-.5601-1.4535-.5601-2.008 0-.5545.5602-.5545 1.4684 0 2.0285.5545.5602 1.4535.5602 2.008 0z"/><path d="m43.6779 45.4075c.3868-.3907.3868-1.0241 0-1.4148-.3867-.3907-1.0137-.3907-1.4005 0-.3867.3907-.3867 1.0241 0 1.4148.3868.3906 1.0138.3906 1.4005 0z"/><path d="m45.8369 47.5885c.2182-.2205.2182-.5779 0-.7984s-.5721-.2205-.7903 0-.2182.5779 0 .7984c.2182.2204.5721.2204.7903 0z"/><path d="m23.8428 20.3919c.3192-.3224.3192-.8452 0-1.1676-.3192-.3225-.8367-.3225-1.1559 0-.3191.3224-.3191.8452 0 1.1676.3192.3225.8367.3225 1.1559 0z"/><path d="m26.5502 23.1269c.4535-.4582.4535-1.201 0-1.6592s-1.1889-.4582-1.6424 0c-.4536.4582-.4536 1.201 0 1.6592.4535.4581 1.1889.4581 1.6424 0z"/><path d="m29.2589 25.8632c.5887-.5947.5887-1.5588 0-2.1534-.5886-.5946-1.543-.5946-2.1317 0-.5886.5946-.5886 1.5587 0 2.1534.5887.5946 1.5431.5946 2.1317 0z"/><path d="m31.9663 28.5981c.723-.7303.723-1.9145 0-2.6449-.723-.7303-1.8952-.7303-2.6182 0-.723.7304-.723 1.9146 0 2.6449.723.7304 1.8952.7304 2.6182 0z"/><path d="m34.675 31.3344c.8581-.8668.8581-2.2722 0-3.1391-.8581-.8668-2.2494-.8668-3.1075 0-.8581.8669-.858 2.2723.0001 3.1391.858.8669 2.2493.8669 3.1074 0z"/><path d="m37.1391 33.8236c.8581-.8668.8581-2.2722 0-3.1391-.8581-.8668-2.2494-.8668-3.1075 0-.8581.8669-.8581 2.2723 0 3.1391.8581.8669 2.2494.8669 3.1075 0z"/><path d="m39.3586 36.0657c.723-.7303.723-1.9145 0-2.6449-.723-.7303-1.8952-.7303-2.6182 0-.723.7304-.723 1.9146 0 2.6449.723.7304 1.8952.7304 2.6182 0z"/><path d="m41.5794 38.3092c.5886-.5947.5886-1.5588 0-2.1534s-1.543-.5946-2.1317 0c-.5886.5946-.5886 1.5587 0 2.1534.5887.5946 1.5431.5946 2.1317 0z"/><path d="m43.7989 40.5513c.4535-.4582.4535-1.201 0-1.6592-.4536-.4582-1.1889-.4582-1.6425 0-.4535.4582-.4535 1.201 0 1.6592.4536.4581 1.1889.4581 1.6425 0z"/><path d="m46.0197 42.7947c.3192-.3224.3192-.8452 0-1.1676-.3192-.3225-.8367-.3225-1.1559 0-.3192.3224-.3192.8452 0 1.1676.3192.3225.8367.3225 1.1559 0z"/><path d="m26.1846 17.7792c.2517-.2542.2517-.6664 0-.9206-.2516-.2542-.6596-.2542-.9113 0-.2516.2542-.2516.6664 0 .9206.2517.2542.6597.2542.9113 0z"/><path d="m28.8315 20.453c.3526-.3562.3526-.9336 0-1.2898s-.9243-.3562-1.2768 0c-.3526.3562-.3526.9336 0 1.2898.3525.3562.9242.3562 1.2768 0z"/><path d="m31.4784 23.1269c.4535-.4582.4535-1.201 0-1.6592-.4536-.4582-1.1889-.4582-1.6424 0-.4536.4582-.4536 1.201 0 1.6592.4535.4581 1.1888.4581 1.6424 0z"/><path d="m34.1266 25.8021c.5553-.5609.5553-1.4703 0-2.0312-.5552-.5609-1.4554-.5609-2.0107 0-.5552.5609-.5552 1.4703 0 2.0312.5553.5609 1.4555.5609 2.0107 0z"/><path d="m36.7735 28.4759c.6562-.6628.6562-1.7376 0-2.4005-.6562-.6628-1.7201-.6628-2.3763 0-.6562.6629-.6562 1.7377 0 2.4005.6562.6629 1.7201.6629 2.3763 0z"/><path d="m39.2376 30.9651c.6562-.6628.6562-1.7376 0-2.4005-.6562-.6628-1.7201-.6628-2.3763 0-.6562.6629-.6562 1.7377 0 2.4005.6562.6629 1.7201.6629 2.3763 0z"/><path d="m41.5189 33.2697c.5553-.5609.5553-1.4703 0-2.0312-.5552-.5609-1.4554-.5609-2.0107 0-.5552.5609-.5552 1.4703 0 2.0312.5553.5609 1.4555.5609 2.0107 0z"/><path d="m43.7989 35.5729c.4535-.4582.4535-1.201 0-1.6592-.4536-.4582-1.1889-.4582-1.6425 0-.4535.4582-.4535 1.201 0 1.6592.4536.4581 1.1889.4581 1.6425 0z"/><path d="m46.0802 37.8774c.3526-.3562.3526-.9337 0-1.2898-.3526-.3562-.9243-.3562-1.2769 0-.3526.3561-.3526.9336 0 1.2898s.9243.3562 1.2769 0z"/><path d="m48.3615 40.182c.2516-.2542.2516-.6664 0-.9206s-.6596-.2542-.9113 0c-.2516.2542-.2516.6664 0 .9206.2517.2542.6597.2542.9113 0z"/><path d="m31.1128 17.7792c.2517-.2542.2517-.6664 0-.9206-.2516-.2542-.6596-.2542-.9113 0-.2516.2542-.2516.6664 0 .9206.2517.2542.6597.2542.9113 0z"/><path d="m33.6992 20.3919c.3192-.3224.3192-.8452 0-1.1676-.3192-.3225-.8367-.3225-1.1559 0-.3192.3224-.3192.8452 0 1.1676.3192.3225.8367.3225 1.1559 0z"/><path d="m36.2856 23.0047c.3868-.3907.3868-1.0241 0-1.4148-.3867-.3907-1.0137-.3907-1.4005 0-.3867.3907-.3867 1.0241 0 1.4148.3868.3907 1.0138.3907 1.4005 0z"/><path d="m38.8707 25.6161c.4535-.4582.4535-1.201 0-1.6592-.4536-.4582-1.1889-.4582-1.6424 0-.4536.4582-.4536 1.201 0 1.6592.4535.4581 1.1888.4581 1.6424 0z"/><path d="m41.3348 28.1053c.4535-.4582.4535-1.201 0-1.6592-.4536-.4582-1.1889-.4582-1.6424 0-.4536.4582-.4536 1.201 0 1.6592.4535.4581 1.1888.4581 1.6424 0z"/><path d="m43.6779 30.4723c.3868-.3907.3868-1.0241 0-1.4148-.3867-.3907-1.0137-.3907-1.4005 0-.3867.3907-.3867 1.0241 0 1.4148.3868.3907 1.0138.3907 1.4005 0z"/><path d="m46.0197 32.8379c.3192-.3224.3192-.8452 0-1.1676-.3192-.3225-.8367-.3225-1.1559 0-.3192.3224-.3192.8452 0 1.1676.3192.3225.8367.3225 1.1559 0z"/><path d="m48.3615 35.2036c.2516-.2542.2516-.6664 0-.9206s-.6596-.2542-.9113 0c-.2516.2542-.2516.6664 0 .9206.2517.2542.6597.2542.9113 0z"/><path d="m38.4446 20.2073c.2183-.2205.2183-.5779 0-.7984-.2182-.2204-.572-.2204-.7903 0-.2182.2205-.2182.5779 0 .7984.2183.2204.5721.2204.7903 0z"/><path d="m40.9692 22.7576c.2516-.2542.2516-.6664 0-.9206s-.6596-.2542-.9113 0c-.2516.2542-.2516.6664 0 .9206.2517.2542.6597.2542.9113 0z"/><path d="m43.4333 25.2468c.2516-.2542.2516-.6664 0-.9206s-.6596-.2542-.9113 0c-.2516.2542-.2516.6664 0 .9206.2517.2542.6597.2542.9113 0z"/><path d="m45.8369 27.6749c.2182-.2205.2182-.5779 0-.7984-.2182-.2204-.5721-.2204-.7903 0-.2182.2205-.2182.5779 0 .7984.2182.2204.5721.2204.7903 0z"/><path d="m47.9204 19.5953-15.4161 9.0953h-.0062l-15.4161-9.0953 15.4161-9.0953z"/></g><path d="m32.4981 28.6929v18.1906l-15.4161-9.0953v-18.1905z" fill="#fff"/><path d="m47.9223 19.5977v18.1905l-15.4223 9.0953v-18.1906h.0063z" fill="#fff"/><path d="m58.1817 28.9018c-.5126 0-.9377-.428-.9377-.9517-.0813-14.3519-11.5777-26.03396-25.6309-26.03396-11.4339 0-21.58 7.8434-24.67445 19.07836-.13753.511-.6564.8048-1.15651.6643-.50012-.1405-.78768-.6707-.65015-1.1816 3.31951-12.05895 14.20951-20.4772 26.48111-20.4772 15.0785 0 27.4188 12.5316 27.5063 27.9373 0 .5302-.4126.9581-.9314.9645z" fill="#b65bff"/><path d="m58.1578 29.8962c-.2563 0-.5002-.1086-.6752-.2938l-4.5635-4.8862c-.3564-.3832-.3439-.99.0312-1.354.3751-.3641.969-.3513 1.3253.0319l3.8884 4.1644 3.8884-4.1644c.3563-.3832.9502-.396 1.3253-.0319.3751.364.3876.9708.0313 1.354l-4.5636 4.8862c-.175.1916-.4188.2938-.6751.2938z" fill="#b65bff"/><path d="m32.3813 56.6674c-15.0784 0-27.41878-12.5315-27.5063-27.9373 0-.5302.4126-.9581.93146-.9645.51262 0 .93772.428.93772.9517.08127 14.3519 11.57762 26.034 25.63092 26.034 11.4339 0 21.58-7.8434 24.6744-19.0784.1375-.511.6564-.8048 1.1565-.6643.5002.1406.7877.6707.6502 1.1817-3.3195 12.0589-14.2095 20.4771-26.4811 20.4771z" fill="#b65bff"/><path d="m10.4033 33.5777c-.25 0-.49382-.1022-.67511-.2938l-3.8884-4.158-3.88839 4.158c-.35633.3832-.95022.396-1.325307.0319-.375086-.364-.387589-.9708-.031257-1.354l4.563554-4.8862c.35633-.3768 1.00023-.3768 1.35656 0l4.56355 4.8862c.3563.3832.3438.99-.0313 1.354-.1812.1789-.4126.2683-.6501.2683z" fill="#b65bff"/><path d="m32.5045 29.6513c-.1625 0-.3313-.0447-.4751-.1278l-15.416-9.0953c-.2876-.1724-.4689-.4854-.4689-.8303s.1813-.6579.4689-.8303l15.416-9.09529c.2876-.17245.6502-.17245.9378 0l15.4223 9.09529c.2875.1724.4688.4854.4688.8303s-.1813.6579-.4688.8303l-15.4161 9.0953c-.1438.0831-.3063.1278-.4689.1278zm-13.5468-10.0534 13.5468 7.9903 13.5407-7.9903-13.5469-7.9903z" fill="#b65bff"/><path d="m32.4983 47.8403c-.1625 0-.3251-.0447-.4689-.1277l-15.416-9.0953c-.2876-.1725-.4689-.4854-.4689-.8304v-18.1905c0-.3449.1813-.6579.4689-.8303.2876-.1725.6501-.1725.9377 0l15.4161 9.0952c.2875.1725.4688.4855.4688.8304v18.1905c0 .3449-.1813.6579-.4688.8304-.1438.083-.3064.1277-.4689.1277zm-14.4783-10.609 13.5406 7.9903v-15.9806l-13.5406-7.9903z" fill="#b65bff"/><path d="m32.5002 47.8403c-.1625 0-.3251-.0447-.4688-.1277-.2876-.1725-.4689-.4855-.4689-.8304v-18.1905c0-.3833.2188-.7154.5376-.8687l15.3536-9.0569c.2875-.1725.6501-.1725.9377 0 .2875.1724.4688.4854.4688.8303v18.1905c0 .345-.1813.6579-.4688.8304l-15.4223 9.0953c-.1438.083-.3063.1277-.4689.1277zm.9377-18.593v15.9743l13.5469-7.9903v-15.9806l-13.5469 7.9903z" fill="#b65bff"/></svg>