<svg fill="none" height="56" viewBox="0 0 50 56" width="50" xmlns="http://www.w3.org/2000/svg"><g fill="#ddb4ff"><path d="m4.89498 46.0242c.20101-.201.20101-.5269 0-.7279s-.5269-.201-.72791 0-.20101.5269 0 .7279.5269.201.72791 0z"/><path d="m7.22025 48.3495c.23178-.2318.23178-.6075 0-.8393-.23177-.2318-.60755-.2318-.83932 0-.23178.2318-.23178.6075 0 .8393.23177.2318.60755.2318.83932 0z"/><path d="m9.48982 50.6191c.23177-.2318.23177-.6076 0-.8393-.23178-.2318-.60756-.2318-.83933 0-.23177.2317-.23177.6075 0 .8393.23177.2317.60755.2317.83933 0z"/><path d="m11.7037 52.8329c.201-.201.201-.5269 0-.7279s-.5269-.201-.7279 0-.201.5269 0 .7279.5269.201.7279 0z"/><path d="m2.68112 39.2713c.23178-.2318.23178-.6076 0-.8394-.23177-.2317-.60755-.2317-.83932 0-.23177.2318-.23177.6076 0 .8394.23177.2317.60755.2317.83932 0z"/><path d="m5.06334 41.6535c.29399-.294.29399-.7707 0-1.0647-.29399-.2939-.77064-.2939-1.06463 0-.29399.294-.29399.7707 0 1.0647s.77064.294 1.06463 0z"/><path d="m7.44556 44.0357c.3562-.3562.3562-.9337 0-1.2899-.35621-.3563-.93373-.3563-1.28994 0-.35621.3562-.35621.9337 0 1.2899s.93373.3562 1.28994 0z"/><path d="m9.82654 46.4167c.41776-.4178.41776-1.0951 0-1.5128-.41774-.4177-1.09503-.4177-1.51277 0s-.41774 1.095 0 1.5128c.41774.4177 1.09503.4177 1.51277 0z"/><path d="m12.0961 48.6862c.4177-.4177.4177-1.095 0-1.5127-.4177-.4178-1.095-.4178-1.5128 0-.4177.4177-.4177 1.095 0 1.5127.4178.4178 1.0951.4178 1.5128 0z"/><path d="m14.2542 50.8444c.3563-.3562.3563-.9337 0-1.29-.3562-.3562-.9337-.3562-1.2899 0s-.3562.9338 0 1.29.9337.3562 1.2899 0z"/><path d="m16.4112 53.0013c.2939-.294.2939-.7706 0-1.0646-.294-.294-.7707-.294-1.0647 0s-.294.7706 0 1.0646.7707.294 1.0647 0z"/><path d="m18.5681 55.1582c.2317-.2318.2317-.6075 0-.8393-.2318-.2318-.6076-.2318-.8394 0-.2317.2318-.2317.6075 0 .8393.2318.2318.6076.2318.8394 0z"/><path d="m2.68112 34.7321c.23178-.2317.23178-.6075 0-.8393-.23177-.2318-.60755-.2318-.83932 0s-.23177.6076 0 .8393c.23177.2318.60755.2318.83932 0z"/><path d="m5.11905 37.1701c.32475-.3248.32475-.8513 0-1.1761-.32476-.3247-.85129-.3247-1.17605 0-.32475.3248-.32475.8513 0 1.1761.32476.3247.85129.3247 1.17605 0z"/><path d="m7.55697 39.608c.41774-.4178.41774-1.095 0-1.5128-.41774-.4177-1.09503-.4177-1.51277 0-.41773.4178-.41773 1.095 0 1.5128.41774.4177 1.09503.4177 1.51277 0z"/><path d="m9.99614 42.0471c.51136-.5114.51136-1.3405-.00001-1.8519-.5114-.5114-1.34055-.5114-1.85196 0s-.5114 1.3405 0 1.8519c.51141.5114 1.34056.5114 1.85197 0z"/><path d="m12.4341 44.4851c.6043-.6044.6043-1.5843 0-2.1887-.6044-.6044-1.5843-.6044-2.1887 0-.60441.6044-.60441 1.5843 0 2.1887.6044.6044 1.5843.6044 2.1887 0z"/><path d="m14.7036 46.7546c.6044-.6044.6044-1.5843 0-2.1887-.6044-.6043-1.5843-.6043-2.1887 0-.6044.6044-.6044 1.5843 0 2.1887s1.5843.6044 2.1887 0z"/><path d="m16.8048 48.8558c.5114-.5114.5114-1.3405 0-1.8519s-1.3405-.5114-1.8519 0-.5114 1.3405 0 1.8519 1.3405.5114 1.8519 0z"/><path d="m18.9048 50.9558c.4177-.4177.4177-1.095 0-1.5128-.4177-.4177-1.095-.4177-1.5128 0-.4177.4178-.4177 1.0951 0 1.5128.4178.4177 1.0951.4177 1.5128 0z"/><path d="m21.006 53.057c.3247-.3248.3247-.8513 0-1.176-.3248-.3248-.8513-.3248-1.1761 0-.3247.3247-.3247.8512 0 1.176.3248.3248.8513.3248 1.1761 0z"/><path d="m23.1072 55.1582c.2318-.2318.2318-.6075 0-.8393s-.6076-.2318-.8393 0c-.2318.2318-.2318.6075 0 .8393.2317.2318.6075.2318.8393 0z"/><path d="m5.06334 32.5752c.29399-.294.29399-.7706 0-1.0646s-.77064-.294-1.06463 0-.29399.7706 0 1.0646.77064.294 1.06463 0z"/><path d="m7.55697 35.0689c.41774-.4178.41774-1.0951 0-1.5128-.41774-.4178-1.09503-.4178-1.51277 0-.41773.4177-.41773 1.095 0 1.5128.41774.4177 1.09503.4177 1.51277 0z"/><path d="m10.0518 37.5637c.5422-.5422.5422-1.4212 0-1.9634-.54213-.5421-1.42117-.5421-1.96334 0-.54217.5422-.54217 1.4212 0 1.9634s1.42121.5422 1.96334 0z"/><path d="m12.5455 40.0574c.6659-.666.6659-1.7456 0-2.4116-.6659-.6659-1.7456-.6659-2.4115 0-.66596.666-.66596 1.7456 0 2.4116.6659.6659 1.7456.6659 2.4115 0z"/><path d="m15.0403 42.5522c.7904-.7903.7904-2.0717 0-2.8621-.7903-.7904-2.0717-.7904-2.8621 0-.7903.7904-.7903 2.0718 0 2.8621.7904.7904 2.0718.7904 2.8621 0z"/><path d="m17.3099 44.8218c.7904-.7904.7904-2.0718 0-2.8621-.7903-.7904-2.0718-.7904-2.8621 0-.7904.7903-.7904 2.0717 0 2.8621.7903.7903 2.0718.7903 2.8621 0z"/><path d="m19.3542 46.866c.6659-.6659.6659-1.7455 0-2.4115-.666-.6659-1.7456-.6659-2.4116 0-.6659.666-.6659 1.7456 0 2.4115.666.666 1.7456.666 2.4116 0z"/><path d="m21.3997 48.9115c.5421-.5421.5421-1.4212 0-1.9633-.5422-.5422-1.4212-.5422-1.9634 0-.5422.5421-.5422 1.4212 0 1.9633.5422.5422 1.4212.5422 1.9634 0z"/><path d="m23.4439 50.9558c.4178-.4177.4178-1.095 0-1.5128-.4177-.4177-1.095-.4177-1.5127 0-.4178.4178-.4178 1.0951 0 1.5128.4177.4177 1.095.4177 1.5127 0z"/><path d="m25.4894 53.0013c.294-.294.294-.7706 0-1.0646s-.7706-.294-1.0646 0-.294.7706 0 1.0646.7706.294 1.0646 0z"/><path d="m4.89498 27.8677c.20101-.201.20101-.5269 0-.7279s-.5269-.201-.72791 0-.20101.5269 0 .7279.5269.201.72791 0z"/><path d="m7.44556 30.4183c.3562-.3562.3562-.9337 0-1.2899-.35621-.3562-.93373-.3562-1.28994 0s-.35621.9337 0 1.2899.93373.3562 1.28994 0z"/><path d="m9.9949 32.9676c.5107-.5107.5107-1.3387 0-1.8494-.51072-.5108-1.33877-.5108-1.84949 0-.51072.5107-.51072 1.3387 0 1.8494.51072.5108 1.33877.5108 1.84949 0z"/><path d="m12.5455 35.5182c.6659-.6659.6659-1.7456 0-2.4115s-1.7456-.6659-2.4115 0c-.66596.6659-.66596 1.7456 0 2.4115.6659.6659 1.7456.6659 2.4115 0z"/><path d="m15.0961 38.0688c.8211-.8211.8211-2.1524 0-2.9735-.8212-.8212-2.1525-.8212-2.9736 0-.8211.8211-.8211 2.1524 0 2.9735s2.1524.8211 2.9736 0z"/><path d="m17.6466 40.6194c.9763-.9763.9763-2.5593 0-3.5356s-2.5592-.9763-3.5355 0c-.9764.9763-.9764 2.5593 0 3.5356.9763.9763 2.5592.9763 3.5355 0z"/><path d="m19.9162 42.8889c.9763-.9763.9763-2.5592 0-3.5355s-2.5593-.9763-3.5356 0-.9763 2.5592 0 3.5355c.9763.9764 2.5593.9764 3.5356 0z"/><path d="m21.9047 44.8775c.8212-.8211.8212-2.1524 0-2.9735-.8211-.8212-2.1524-.8212-2.9735 0-.8211.8211-.8211 2.1524 0 2.9735s2.1524.8211 2.9735 0z"/><path d="m23.8933 46.866c.6659-.6659.6659-1.7456 0-2.4115s-1.7456-.6659-2.4115 0c-.6659.666-.6659 1.7456 0 2.4115.6659.666 1.7456.666 2.4115 0z"/><path d="m25.8818 48.8546c.5108-.5107.5108-1.3388 0-1.8495-.5107-.5107-1.3387-.5107-1.8494 0-.5108.5107-.5108 1.3388 0 1.8495.5107.5107 1.3387.5107 1.8494 0z"/><path d="m27.8716 50.8444c.3562-.3562.3562-.9338 0-1.29s-.9337-.3562-1.2899 0-.3562.9338 0 1.29.9337.3562 1.2899 0z"/><path d="m29.8602 52.8329c.201-.201.201-.5269 0-.7279s-.5269-.201-.7279 0-.201.5269 0 .7279.5269.201.7279 0z"/><path d="m7.22025 25.6539c.23178-.2318.23178-.6076 0-.8393-.23177-.2318-.60755-.2318-.83932 0-.23178.2317-.23178.6075 0 .8393.23177.2318.60755.2318.83932 0z"/><path d="m9.82654 28.2602c.41776-.4178.41776-1.0951 0-1.5128-.41774-.4177-1.09503-.4177-1.51277 0s-.41774 1.095 0 1.5128c.41774.4177 1.09503.4177 1.51277 0z"/><path d="m12.4341 30.8677c.6043-.6044.6043-1.5843 0-2.1887-.6044-.6044-1.5843-.6044-2.1887 0-.60441.6044-.60441 1.5843 0 2.1887.6044.6044 1.5843.6044 2.1887 0z"/><path d="m15.0403 33.474c.7904-.7904.7904-2.0718 0-2.8622-.7903-.7903-2.0717-.7903-2.8621 0-.7903.7904-.7903 2.0718 0 2.8622.7904.7903 2.0718.7903 2.8621 0z"/><path d="m17.6466 36.0803c.9763-.9764.9763-2.5593 0-3.5356s-2.5592-.9763-3.5355 0c-.9764.9763-.9764 2.5592 0 3.5356.9763.9763 2.5592.9763 3.5355 0z"/><path d="m20.2542 38.6878c1.1629-1.163 1.1629-3.0485 0-4.2115-1.163-1.163-3.0486-1.163-4.2115 0-1.163 1.163-1.163 3.0485 0 4.2115 1.1629 1.1629 3.0485 1.1629 4.2115 0z"/><path d="m22.5237 40.9573c1.163-1.1629 1.163-3.0485 0-4.2114-1.163-1.163-3.0485-1.163-4.2115 0-1.1629 1.1629-1.1629 3.0485 0 4.2114 1.163 1.163 3.0485 1.163 4.2115 0z"/><path d="m24.4553 42.8889c.9763-.9763.9763-2.5592 0-3.5355s-2.5592-.9763-3.5355 0c-.9764.9763-.9764 2.5592 0 3.5355.9763.9764 2.5592.9764 3.5355 0z"/><path d="m26.3882 44.8218c.7903-.7904.7903-2.0718 0-2.8621-.7904-.7904-2.0718-.7904-2.8622 0-.7903.7903-.7903 2.0717 0 2.8621.7904.7903 2.0718.7903 2.8622 0z"/><path d="m28.321 46.7546c.6044-.6044.6044-1.5843 0-2.1887-.6044-.6043-1.5843-.6043-2.1887 0-.6044.6044-.6044 1.5843 0 2.1887s1.5843.6044 2.1887 0z"/><path d="m30.2526 48.6862c.4177-.4177.4177-1.095 0-1.5127-.4177-.4178-1.095-.4178-1.5128 0-.4177.4177-.4177 1.095 0 1.5127.4178.4178 1.0951.4178 1.5128 0z"/><path d="m32.1855 50.6191c.2317-.2318.2317-.6076 0-.8394-.2318-.2317-.6076-.2317-.8394 0-.2317.2318-.2317.6076 0 .8394.2318.2317.6076.2317.8394 0z"/><path d="m9.48982 23.3843c.23177-.2318.23177-.6075 0-.8393-.23178-.2318-.60756-.2318-.83933 0s-.23177.6075 0 .8393.60755.2318.83933 0z"/><path d="m12.0961 25.9906c.4177-.4177.4177-1.095 0-1.5128-.4177-.4177-1.095-.4177-1.5128 0-.4177.4178-.4177 1.0951 0 1.5128.4178.4177 1.0951.4177 1.5128 0z"/><path d="m14.7036 28.5981c.6044-.6044.6044-1.5843 0-2.1887s-1.5843-.6044-2.1887 0-.6044 1.5843 0 2.1887 1.5843.6044 2.1887 0z"/><path d="m17.3099 31.2044c.7904-.7903.7904-2.0718 0-2.8621-.7903-.7904-2.0718-.7904-2.8621 0-.7904.7903-.7904 2.0718 0 2.8621.7903.7904 2.0718.7904 2.8621 0z"/><path d="m19.9162 33.8107c.9763-.9763.9763-2.5593 0-3.5356s-2.5593-.9763-3.5356 0-.9763 2.5593 0 3.5356 2.5593.9763 3.5356 0z"/><path d="m22.5237 36.4182c1.163-1.163 1.163-3.0485 0-4.2115-1.163-1.1629-3.0485-1.1629-4.2115 0-1.1629 1.163-1.1629 3.0485 0 4.2115 1.163 1.163 3.0485 1.163 4.2115 0z"/><path d="m24.7933 38.6878c1.1629-1.163 1.1629-3.0485 0-4.2115-1.163-1.163-3.0485-1.163-4.2115 0s-1.163 3.0485 0 4.2115c1.163 1.1629 3.0485 1.1629 4.2115 0z"/><path d="m26.7249 40.6194c.9763-.9763.9763-2.5593 0-3.5356s-2.5593-.9763-3.5356 0-.9763 2.5593 0 3.5356 2.5593.9763 3.5356 0z"/><path d="m28.6577 42.5522c.7904-.7903.7904-2.0718 0-2.8621-.7903-.7904-2.0717-.7904-2.8621 0-.7904.7903-.7904 2.0718 0 2.8621.7904.7904 2.0718.7904 2.8621 0z"/><path d="m30.5906 44.4851c.6044-.6044.6044-1.5843 0-2.1887s-1.5843-.6044-2.1887 0-.6044 1.5843 0 2.1887 1.5843.6044 2.1887 0z"/><path d="m32.5222 46.4167c.4177-.4178.4177-1.0951 0-1.5128-.4178-.4177-1.0951-.4177-1.5128 0s-.4177 1.095 0 1.5128c.4177.4177 1.095.4177 1.5128 0z"/><path d="m34.455 48.3495c.2318-.2318.2318-.6075 0-.8393s-.6075-.2318-.8393 0-.2318.6075 0 .8393.6075.2318.8393 0z"/><path d="m11.7037 21.059c.201-.201.201-.5269 0-.7279s-.5269-.201-.7279 0-.201.5269 0 .7279c.201.2011.5269.2011.7279 0z"/><path d="m14.2542 23.6096c.3563-.3562.3563-.9337 0-1.2899-.3562-.3562-.9337-.3562-1.2899 0s-.3562.9337 0 1.2899.9337.3562 1.2899 0z"/><path d="m16.8036 26.159c.5107-.5108.5107-1.3388 0-1.8495-.5107-.5108-1.3388-.5108-1.8495 0-.5107.5107-.5107 1.3387 0 1.8495.5107.5107 1.3388.5107 1.8495 0z"/><path d="m19.3542 28.7095c.6659-.6659.6659-1.7456 0-2.4115-.666-.6659-1.7456-.6659-2.4116 0-.6659.6659-.6659 1.7456 0 2.4115.666.666 1.7456.666 2.4116 0z"/><path d="m21.9047 31.2601c.8212-.8211.8212-2.1524 0-2.9735-.8211-.8211-2.1524-.8211-2.9735 0s-.8211 2.1524 0 2.9735 2.1524.8211 2.9735 0z"/><path d="m24.4553 33.8107c.9763-.9763.9763-2.5593 0-3.5356s-2.5592-.9763-3.5355 0c-.9764.9763-.9764 2.5593 0 3.5356.9763.9763 2.5592.9763 3.5355 0z"/><path d="m26.7249 36.0803c.9763-.9764.9763-2.5593 0-3.5356s-2.5593-.9763-3.5356 0-.9763 2.5592 0 3.5356c.9763.9763 2.5593.9763 3.5356 0z"/><path d="m28.7134 38.0688c.8211-.8211.8211-2.1524 0-2.9735-.8211-.8212-2.1524-.8212-2.9735 0-.8211.8211-.8211 2.1524 0 2.9735s2.1524.8211 2.9735 0z"/><path d="m30.702 40.0574c.6659-.666.6659-1.7456 0-2.4116-.6659-.6659-1.7456-.6659-2.4115 0-.666.666-.666 1.7456 0 2.4116.6659.6659 1.7456.6659 2.4115 0z"/><path d="m32.6905 42.0459c.5108-.5107.5108-1.3388 0-1.8495-.5107-.5107-1.3387-.5107-1.8495 0-.5107.5107-.5107 1.3388 0 1.8495.5108.5107 1.3388.5107 1.8495 0z"/><path d="m34.6803 44.0357c.3562-.3562.3562-.9337 0-1.2899-.3562-.3563-.9337-.3563-1.2899 0-.3562.3562-.3562.9337 0 1.2899s.9337.3562 1.2899 0z"/><path d="m36.6689 46.0242c.201-.201.201-.5269 0-.7279s-.5269-.201-.7279 0-.201.5269 0 .7279.5269.201.7279 0z"/><path d="m16.4112 21.2274c.2939-.294.2939-.7706 0-1.0646-.294-.294-.7707-.294-1.0647 0s-.294.7706 0 1.0646.7707.294 1.0647 0z"/><path d="m18.9048 23.721c.4177-.4177.4177-1.095 0-1.5127-.4177-.4178-1.095-.4178-1.5128 0-.4177.4177-.4177 1.095 0 1.5127.4178.4178 1.0951.4178 1.5128 0z"/><path d="m21.3997 26.2159c.5421-.5422.5421-1.4212 0-1.9634-.5422-.5421-1.4212-.5421-1.9634 0-.5422.5422-.5422 1.4212 0 1.9634s1.4212.5422 1.9634 0z"/><path d="m23.8933 28.7095c.6659-.6659.6659-1.7456 0-2.4115s-1.7456-.6659-2.4115 0-.6659 1.7456 0 2.4115c.6659.666 1.7456.666 2.4115 0z"/><path d="m26.3882 31.2044c.7903-.7903.7903-2.0718 0-2.8621-.7904-.7904-2.0718-.7904-2.8622 0-.7903.7903-.7903 2.0718 0 2.8621.7904.7904 2.0718.7904 2.8622 0z"/><path d="m28.6577 33.474c.7904-.7904.7904-2.0718 0-2.8622-.7903-.7903-2.0717-.7903-2.8621 0-.7904.7904-.7904 2.0718 0 2.8622.7904.7903 2.0718.7903 2.8621 0z"/><path d="m30.702 35.5182c.6659-.6659.6659-1.7456 0-2.4115s-1.7456-.6659-2.4115 0c-.666.6659-.666 1.7456 0 2.4115.6659.6659 1.7456.6659 2.4115 0z"/><path d="m32.7475 37.5637c.5421-.5422.5421-1.4212 0-1.9634-.5422-.5421-1.4212-.5421-1.9634 0-.5422.5422-.5422 1.4212 0 1.9634s1.4212.5422 1.9634 0z"/><path d="m34.7917 39.608c.4178-.4178.4178-1.095 0-1.5128-.4177-.4177-1.095-.4177-1.5127 0-.4178.4178-.4178 1.095 0 1.5128.4177.4177 1.095.4177 1.5127 0z"/><path d="m36.8372 41.6535c.294-.294.294-.7707 0-1.0647-.294-.2939-.7706-.2939-1.0646 0-.294.294-.294.7707 0 1.0647s.7706.294 1.0646 0z"/><path d="m18.5681 18.8452c.2317-.2318.2317-.6076 0-.8393-.2318-.2318-.6076-.2318-.8394 0-.2317.2317-.2317.6075 0 .8393.2318.2318.6076.2318.8394 0z"/><path d="m21.006 21.2831c.3247-.3247.3247-.8513 0-1.176-.3248-.3248-.8513-.3248-1.1761 0-.3247.3247-.3247.8513 0 1.176.3248.3248.8513.3248 1.1761 0z"/><path d="m23.4439 23.721c.4178-.4177.4178-1.095 0-1.5127-.4177-.4178-1.095-.4178-1.5127 0-.4178.4177-.4178 1.095 0 1.5127.4177.4178 1.095.4178 1.5127 0z"/><path d="m25.8831 26.1602c.5114-.5114.5114-1.3406 0-1.852s-1.3406-.5114-1.852 0-.5114 1.3406 0 1.852 1.3406.5114 1.852 0z"/><path d="m28.321 28.5981c.6044-.6044.6044-1.5843 0-2.1887s-1.5843-.6044-2.1887 0-.6044 1.5843 0 2.1887 1.5843.6044 2.1887 0z"/><path d="m30.5906 30.8677c.6044-.6044.6044-1.5843 0-2.1887s-1.5843-.6044-2.1887 0-.6044 1.5843 0 2.1887 1.5843.6044 2.1887 0z"/><path d="m32.6918 32.9689c.5114-.5114.5114-1.3406 0-1.852s-1.3406-.5114-1.852 0-.5114 1.3406 0 1.852 1.3406.5114 1.852 0z"/><path d="m34.7917 35.0689c.4178-.4178.4178-1.0951 0-1.5128-.4177-.4178-1.095-.4178-1.5127 0-.4178.4177-.4178 1.095 0 1.5128.4177.4177 1.095.4177 1.5127 0z"/><path d="m36.8929 37.1701c.3248-.3248.3248-.8513 0-1.1761-.3247-.3247-.8513-.3247-1.176 0-.3248.3248-.3248.8513 0 1.1761.3247.3247.8513.3247 1.176 0z"/><path d="m38.9941 39.2713c.2318-.2318.2318-.6076 0-.8394-.2317-.2317-.6075-.2317-.8393 0-.2318.2318-.2318.6076 0 .8394.2318.2317.6076.2317.8393 0z"/><path d="m23.1072 18.8452c.2318-.2318.2318-.6076 0-.8393-.2318-.2318-.6076-.2318-.8393 0-.2318.2317-.2318.6075 0 .8393.2317.2318.6075.2318.8393 0z"/><path d="m25.4894 21.2274c.294-.294.294-.7706 0-1.0646s-.7706-.294-1.0646 0-.294.7706 0 1.0646.7706.294 1.0646 0z"/><path d="m27.8716 23.6096c.3562-.3562.3562-.9337 0-1.2899s-.9337-.3562-1.2899 0-.3562.9337 0 1.2899.9337.3562 1.2899 0z"/><path d="m30.2526 25.9906c.4177-.4177.4177-1.095 0-1.5128-.4177-.4177-1.095-.4177-1.5128 0-.4177.4178-.4177 1.0951 0 1.5128.4178.4177 1.0951.4177 1.5128 0z"/><path d="m32.5222 28.2602c.4177-.4178.4177-1.0951 0-1.5128-.4178-.4177-1.0951-.4177-1.5128 0s-.4177 1.095 0 1.5128c.4177.4177 1.095.4177 1.5128 0z"/><path d="m34.6803 30.4183c.3562-.3562.3562-.9337 0-1.2899s-.9337-.3562-1.2899 0-.3562.9337 0 1.2899.9337.3562 1.2899 0z"/><path d="m36.8372 32.5752c.294-.294.294-.7706 0-1.0646s-.7706-.294-1.0646 0-.294.7706 0 1.0646.7706.294 1.0646 0z"/><path d="m38.9941 34.7321c.2318-.2317.2318-.6075 0-.8393-.2317-.2318-.6075-.2318-.8393 0s-.2318.6076 0 .8393c.2318.2318.6076.2318.8393 0z"/><path d="m29.8602 21.059c.201-.201.201-.5269 0-.7279s-.5269-.201-.7279 0-.201.5269 0 .7279c.201.2011.5269.2011.7279 0z"/><path d="m32.1855 23.3843c.2317-.2318.2317-.6075 0-.8393-.2318-.2318-.6076-.2318-.8394 0-.2317.2318-.2317.6075 0 .8393.2318.2318.6076.2318.8394 0z"/><path d="m34.455 25.6539c.2318-.2318.2318-.6076 0-.8393-.2318-.2318-.6075-.2318-.8393 0-.2318.2317-.2318.6075 0 .8393s.6075.2318.8393 0z"/><path d="m36.6689 27.8677c.201-.201.201-.5269 0-.7279s-.5269-.201-.7279 0-.201.5269 0 .7279.5269.201.7279 0z"/><path d="m41.0139 18.18-15.7147 9.0745h-.0064l-15.71468-9.0745 15.71468-9.07453z"/><path d="m9.57812 18.6895v-.5098l15.71468 9.0745v18.149l-15.71468-9.0745v-9.2338"/><path d="m41.014 25.6611v10.6676l-15.721 9.0745v-18.149h.0063l15.7147-9.0745"/></g><path d="m25.289 9.10818-3.6579-7.81912-16.5686 9.55884 4.51176 7.3348z" fill="#fff"/><path d="m30.4502 2.13672-4.8877 6.95882 15.4471 9.08726 5.7926-6.6976z" fill="#fff"/><path d="m9.57803 18.1836-3.97647 6.4745 16.35194 9.0809 3.3456-6.3726z" fill="#fff"/><path d="m25.6758 26.8311 2.5745 6.1241 15.2113-8.6858-2.4471-6.0858z" fill="#fff"/><path d="m25.2981 28.2108c-.1657 0-.3378-.0446-.4844-.1274l-15.71467-9.0745c-.29313-.1721-.47794-.4844-.47794-.8285s.18481-.6564.47794-.8284l15.71467-9.07452c.2932-.17206.6628-.17206.9559 0l15.7211 9.07452c.2931.172.4779.4843.4779.8284s-.1848.6564-.4779.8285l-15.7147 9.0745c-.1466.0828-.3123.1274-.4779.1274zm-13.8094-10.0304 13.803 7.9721 13.8093-7.9721-13.8093-7.972z" fill="#b65bff"/><path d="m25.2917 46.3556c-.1657 0-.3314-.0446-.478-.1274l-15.71467-9.0745c-.29313-.1721-.47794-.4843-.47794-.8285v-9.2338c0-.5289.42696-.9559.95589-.9559.52892 0 .95592.427.95592.9559v8.6794l13.8029 7.9721v-15.9441l-14.3127-8.2652c-.13387.0701-.28044.1083-.43975.1083-.52892 0-.95588-.4269-.95588-.9559v-.5098c0-.3441.1848-.6563.47794-.8284.29313-.1721.66274-.1721.95589 0l15.7147 9.0745c.2931.1721.4779.4843.4779.8284v18.1491c0 .3441-.1848.6563-.4779.8284-.1466.0828-.3123.1274-.4779.1274z" fill="#b65bff"/><path d="m25.2918 46.3577c-.1657 0-.3314-.0446-.4779-.1274-.2932-.1721-.478-.4843-.478-.8285v-18.149c0-.3823.2231-.7137.5544-.8666l15.6447-9.0363c.4588-.2613 1.0387-.1083 1.3063.3505.2613.4588.1084 1.0387-.3505 1.3063l-15.2431 8.8005v15.9378l13.8093-7.9721v-10.1132c0-.5289.427-.9559.9559-.9559s.9559.427.9559.9559v10.6676c0 .3442-.1848.6564-.478.8285l-15.721 9.0745c-.1466.0828-.3123.1274-.478.1274z" fill="#b65bff"/><path d="m9.57625 19.1383c-.31863 0-.63726-.1593-.81569-.4524l-4.51176-7.3348c-.13383-.2231-.17844-.4844-.11471-.7329.06372-.2485.22304-.4652.44608-.5926l16.57503-9.565233c.2294-.133824.5098-.165687.7647-.082843.2549.082843.4652.261274.5799.509804l3.6578 7.819122c.2103.45245.0446.98774-.3887 1.2299l-15.7147 9.07455c-.15295.0892-.31227.1274-.47795.1274zm-3.18628-7.9529 3.51128 5.7034 14.14705-8.16961-2.8358-6.07941-14.81616 8.54562z" fill="#b65bff"/><path d="m25.2918 27.6842c-.5289 0-.9559-.427-.9559-.9559v-17.62007c0-.52893.427-.95589.9559-.95589s.9559.42696.9559.95589v17.62007c0 .5289-.427.9559-.9559.9559z" fill="#b65bff"/><path d="m41.015 19.1422c-.1657 0-.3314-.0446-.4843-.1338l-15.4471-9.08725c-.2294-.13382-.3951-.36324-.4524-.62451-.0574-.26127 0-.53529.1529-.75196l4.8878-6.95245c.2804-.40147.8284-.52255 1.2554-.28039l16.3583 9.34856c.2485.1402.4206.3887.4652.6691.051.2804-.0319.5735-.2167.7838l-5.7926 6.6976c-.1848.2166-.4525.3313-.7265.3313zm-14.0706-10.34262 13.8667 8.15682 4.5118-5.2191-14.5868-8.33527z" fill="#b65bff"/><path d="m21.9545 34.6973c-.1593 0-.3186-.0382-.4652-.1211l-16.35197-9.0809c-.22941-.1274-.3951-.3441-.45882-.5926-.06373-.2549-.02549-.5226.10833-.7456l3.98284-6.4745c.27402-.4461.84755-.5863 1.29362-.325l15.7211 9.1828c.4397.2549.599.8157.3632 1.2682l-3.3456 6.3725c-.121.2294-.325.3951-.5735.4716-.0892.0255-.1848.0382-.274.0382zm-15.01374-10.3873 14.62504 8.1187 2.4661-4.6966-14.1279-8.2524-2.96961 4.824z" fill="#b65bff"/><path d="m28.2502 33.9128c-.1019 0-.2103-.0191-.3059-.051-.2612-.0892-.4651-.2804-.5735-.5353l-2.5745-6.1176c-.1848-.4461-.0127-.9623.4142-1.2045l15.3451-8.6475c.2358-.1338.5226-.1593.7838-.0701.2613.0892.4652.2931.5672.548l2.4471 6.0858c.1784.4461 0 .9495-.4143 1.1853l-15.2112 8.6794c-.1466.0829-.3123.1275-.4716.1275zm-1.3637-6.6593 1.8289 4.3397 13.5544-7.7363-1.7269-4.3015-13.65 7.6981z" fill="#b65bff"/></svg>