<svg fill="none" height="54" viewBox="0 0 167 54" width="167" xmlns="http://www.w3.org/2000/svg" xmlns:xlink="http://www.w3.org/1999/xlink"><mask id="a" fill="#000" height="53" maskUnits="userSpaceOnUse" width="167" x=".304138" y=".799011"><path d="m.304138.799011h167v53h-167z" fill="#fff"/><path clip-rule="evenodd" d="m22.6257 2.79901c-11.2233 0-20.32156 9.09829-20.32156 20.32159s9.09836 20.3216 20.32156 20.3216h51.5645c2.8301 0 5.7691.6585 7.6064 2.8112.9911 1.1611 1.7576 2.4647 2.2531 3.8654l.3289.9299c.1901.5374.9615.5024 1.1021-.05.5192-2.04 1.6564-3.8929 3.2534-5.4031 1.7762-1.6797 4.3009-2.1534 6.7455-2.1534h49.0804c11.223 0 20.322-9.0983 20.322-20.3216s-9.099-20.32159-20.322-20.32159z" fill="none"/></mask><path clip-rule="evenodd" d="m22.6257 2.79901c-11.2233 0-20.32156 9.09829-20.32156 20.32159s9.09836 20.3216 20.32156 20.3216h51.5645c2.8301 0 5.7691.6585 7.6064 2.8112.9911 1.1611 1.7576 2.4647 2.2531 3.8654l.3289.9299c.1901.5374.9615.5024 1.1021-.05.5192-2.04 1.6564-3.8929 3.2534-5.4031 1.7762-1.6797 4.3009-2.1534 6.7455-2.1534h49.0804c11.223 0 20.322-9.0983 20.322-20.3216s-9.099-20.32159-20.322-20.32159z" fill="#dfed5b" fill-rule="evenodd"/><path d="m84.0497 50.1188 1.8855-.6669zm4.6844-4.5232-1.3742-1.4532zm-4.3555 5.4531-1.8855.667zm-2.582-4.7953 1.5212-1.2984zm-77.49246-23.1328c0-10.1187 8.20286-18.32159 18.32156-18.32159v-3.999999c-12.3279 0-22.321562 9.993689-22.321562 22.321589zm18.32156 18.3216c-10.1187 0-18.32156-8.2029-18.32156-18.3216h-4.000002c0 12.3279 9.993762 22.3216 22.321562 22.3216zm51.5645 0h-51.5645v4h51.5645zm11.745 8.0097c-.582-1.6455-1.4769-3.1608-2.6174-4.4969l-3.0424 2.5968c.8417.9861 1.4799 2.078 1.8887 3.2339zm.3289.9299-.3289-.9299-3.7711 1.3338.329.93zm1.0958-6.2394c-1.8455 1.7452-3.1962 3.9222-3.8174 6.363l3.8764.9866c.4172-1.6393 1.3408-3.1681 2.6894-4.4433zm57.2001-2.7002h-49.0804v4h49.0804zm18.322-18.3216c0 10.1187-8.203 18.3216-18.322 18.3216v4c12.328 0 22.322-9.9938 22.322-22.3216zm-18.322-18.32159c10.119 0 18.322 8.20289 18.322 18.32159h4c0-12.3279-9.994-22.321589-22.322-22.321589zm-121.9343 0h121.9343v-3.999999h-121.9343zm67.4826 42.24969c1.2189-1.1526 3.106-1.6065 5.3713-1.6065v-4c-2.6239 0-5.7861.4935-8.1197 2.7002zm-7.6152 4.667c.8495 2.4017 4.2974 2.2451 4.9258-.2237l-3.8764-.9866c.3471-1.3641 2.2522-1.4506 2.7216-.1236zm-8.3029-6.2735c2.6211 0 4.8182.6252 6.0852 2.1096l3.0424-2.5968c-2.4077-2.8209-6.0884-3.5128-9.1276-3.5128z" fill="#8762a8" mask="url(#a)"/><g fill="#4c4354"><path d="m139.237 29.7558c-.938 0-1.76-.1867-2.464-.56-.693-.3734-1.232-.8854-1.616-1.536-.373-.6614-.56-1.4134-.56-2.256 0-.6614.107-1.264.32-1.808.214-.5547.512-1.0294.896-1.424.395-.3947.854-.6987 1.376-.912.534-.224 1.115-.336 1.744-.336.597 0 1.142.1066 1.632.32.491.2133.918.512 1.28.896.363.384.64.8373.832 1.36.192.5226.283 1.0933.272 1.712l-.016.704h-6.752l-.384-1.456h5.04l-.272.288v-.32c-.021-.2667-.107-.496-.256-.688-.139-.2027-.325-.3627-.56-.48-.224-.1174-.48-.176-.768-.176-.426 0-.789.0853-1.088.256-.288.16-.506.3946-.656.704-.149.3093-.224.6933-.224 1.152 0 .4586.096.864.288 1.216.203.352.491.624.864.816.384.192.838.288 1.36.288.352 0 .672-.0534.96-.16.288-.1067.598-.288.928-.544l1.2 1.696c-.331.2773-.682.512-1.056.704-.373.1813-.757.3146-1.152.4-.384.096-.773.144-1.168.144z"/><path d="m130.486 29.5958v-11.84h2.576v11.84z"/><path d="m125.059 29.7558c-.384 0-.752-.0534-1.104-.16-.342-.1067-.656-.2454-.944-.416-.288-.1814-.528-.3894-.72-.624-.182-.2347-.299-.48-.352-.736l.56-.192-.144 1.936h-2.4v-11.808h2.592v5.328l-.528-.176c.064-.2667.186-.5174.368-.752.181-.2347.405-.4427.672-.624.277-.192.581-.3414.912-.448.33-.1067.672-.16 1.024-.16.736 0 1.386.192 1.952.576.576.384 1.029.912 1.36 1.584.33.6613.496 1.4186.496 2.272 0 .8533-.166 1.6106-.496 2.272-.32.6613-.763 1.184-1.328 1.568-.566.3733-1.206.56-1.92.56zm-.672-2.16c.384 0 .714-.0907.992-.272.288-.192.512-.4534.672-.784.16-.3414.24-.736.24-1.184 0-.4587-.08-.8534-.24-1.184-.15-.3414-.368-.6027-.656-.784-.288-.192-.624-.288-1.008-.288s-.72.096-1.008.288c-.288.1813-.512.4426-.672.784-.16.3306-.24.7253-.24 1.184 0 .448.08.8426.24 1.184.16.3306.384.592.672.784.288.1813.624.272 1.008.272z"/><path d="m115.42 29.5958v-5.216c0-.4374-.122-.7574-.368-.96-.234-.2134-.565-.32-.992-.32-.416 0-.789.08-1.12.24-.32.1493-.629.4-.928.752l-1.536-1.488c.512-.5227 1.099-.9334 1.76-1.232.662-.2987 1.382-.448 2.16-.448.715 0 1.334.1066 1.856.32.523.2133.928.5386 1.216.976.288.4373.432.992.432 1.664v5.712zm-2.208.16c-.533 0-1.018-.1067-1.456-.32-.426-.2134-.768-.5067-1.024-.88-.245-.384-.368-.832-.368-1.344 0-.4374.08-.8214.24-1.152.16-.3307.395-.6027.704-.816.32-.224.715-.3894 1.184-.496.48-.1174 1.035-.176 1.664-.176h2.576l-.144 1.616h-2.368c-.224 0-.421.0213-.592.064-.17.032-.314.0906-.432.176-.117.0746-.208.1653-.272.272-.053.1066-.08.2346-.08.384 0 .16.043.2986.128.416.086.1173.198.208.336.272.15.064.32.096.512.096.278 0 .539-.0427.784-.128.256-.096.48-.2294.672-.4.203-.1707.363-.368.48-.592l.448 1.152c-.224.3626-.496.6826-.816.96-.309.2773-.65.496-1.024.656-.362.16-.746.24-1.152.24z"/><path d="m105.284 29.5958v-10.64h2.576v10.64zm-1.504-6.24v-2.256h5.712v2.256z"/><path d="m93.6707 29.5958v-8.912c0-.5547.1173-1.0507.352-1.488.2453-.448.5866-.8054 1.024-1.072.4373-.2667.944-.4 1.52-.4.3946 0 .7626.064 1.104.192.3413.1173.6453.2826.912.496l-.736 1.872c-.1387-.0747-.272-.1334-.4-.176-.128-.0427-.2454-.064-.352-.064-.192 0-.352.032-.48.096s-.224.16-.288.288c-.0534.128-.08.288-.08.48v8.688h-1.296c-.2774 0-.528 0-.752 0-.2134 0-.3894 0-.528 0zm-1.248-6.112v-2.144h5.568v2.144zm7.168 6.112v-8.496h2.5763v8.496zm1.2963-10.176c-.491 0-.875-.112-1.1523-.336-.2667-.2347-.4-.5654-.4-.992 0-.3947.1386-.7147.416-.96.2773-.2454.6563-.368 1.1363-.368.469 0 .837.1173 1.104.352.277.224.416.5493.416.976 0 .3946-.139.7146-.416.96-.267.2453-.635.368-1.104.368z"/><path d="m87.1888 29.7558c-.8747 0-1.6587-.1867-2.352-.56-.6933-.384-1.2373-.9067-1.632-1.568-.3947-.672-.592-1.4294-.592-2.272 0-.864.1973-1.6267.592-2.288.3947-.672.9387-1.1947 1.632-1.568.6933-.384 1.4773-.576 2.352-.576.8853 0 1.6693.192 2.352.576.6933.3733 1.2373.896 1.632 1.568.3947.6613.592 1.424.592 2.288 0 .8426-.1973 1.6-.592 2.272-.3947.6613-.9387 1.184-1.632 1.568-.6827.3733-1.4667.56-2.352.56zm0-2.208c.384 0 .72-.096 1.008-.288.2987-.192.5333-.4534.704-.784.1707-.3307.2507-.704.24-1.12.0107-.4374-.0693-.8214-.24-1.152-.1707-.3414-.4053-.6027-.704-.784-.288-.192-.624-.288-1.008-.288-.3733 0-.7093.096-1.008.288s-.5333.4533-.704.784c-.1707.3306-.256.7146-.256 1.152 0 .416.0853.7893.256 1.12.1707.3306.4053.592.704.784s.6347.288 1.008.288z"/><path d="m76.2673 29.5958v-8.496h2.448l.112 2.768-.48-.544c.1387-.448.352-.8534.64-1.216.288-.3627.6293-.6507 1.024-.864.4053-.2134.8267-.32 1.264-.32.192 0 .368.016.528.048.1707.0213.32.0586.448.112l-.688 2.832c-.1173-.064-.2773-.1174-.48-.16-.192-.0534-.3947-.08-.608-.08-.2347 0-.4533.0426-.656.128-.192.0746-.3627.1866-.512.336-.1387.1493-.2507.3253-.336.528-.0747.2026-.112.432-.112.688v4.24z"/><path d="m65.7361 33.1158v-12.016h2.448l.112 1.872-.496-.144c.064-.3414.24-.6507.528-.928.2986-.288.6666-.5174 1.104-.688.4373-.1814.9013-.272 1.392-.272.7253 0 1.3706.1866 1.936.56.5653.3733 1.008.896 1.328 1.568.3306.6613.496 1.424.496 2.288 0 .8426-.1654 1.5946-.496 2.256-.32.6613-.768 1.184-1.344 1.568-.5654.3733-1.2107.56-1.936.56-.4907 0-.9547-.0907-1.392-.272-.4374-.192-.8054-.4374-1.104-.736-.2987-.2987-.4907-.624-.576-.976l.592-.24v5.6zm4.448-5.552c.384 0 .7146-.0907.992-.272.288-.1814.5066-.4374.656-.768.16-.3414.24-.7307.24-1.168 0-.448-.08-.8374-.24-1.168-.1494-.3414-.368-.6027-.656-.784-.2774-.192-.608-.288-.992-.288-.3947 0-.736.096-1.024.288-.288.1813-.512.4373-.672.768-.16.3306-.24.7253-.24 1.184 0 .4373.08.8266.24 1.168.16.3306.384.5866.672.768.288.1813.6293.272 1.024.272z"/><path d="m54.94 29.5958v-10.64h2.576v10.64zm-1.504-6.24v-2.256h5.712v2.256z"/><path d="m49.1782 29.7558c-.8107 0-1.536-.128-2.176-.384-.64-.2667-1.152-.6294-1.536-1.088l1.568-1.344c.3306.3306.704.576 1.12.736.416.1493.8106.224 1.184.224.1386 0 .2613-.016.368-.048.1066-.032.1973-.0747.272-.128.0853-.064.1493-.1334.192-.208.0426-.0854.064-.1814.064-.288 0-.2134-.0907-.3734-.272-.48-.0854-.0534-.24-.1174-.464-.192-.224-.0854-.512-.1707-.864-.256-.5014-.128-.9387-.2827-1.312-.464-.3627-.1814-.6614-.3894-.896-.624-.2134-.2134-.3787-.4587-.496-.736-.1067-.2774-.16-.5867-.16-.928 0-.5227.1546-.9814.464-1.376.32-.3947.736-.6987 1.248-.912.512-.224 1.0666-.336 1.664-.336.4693 0 .912.0533 1.328.16.4266.1066.8213.256 1.184.448.3733.192.704.4213.992.688l-1.36 1.52c-.1814-.1814-.3947-.3414-.64-.48-.2454-.1494-.4907-.2667-.736-.352-.2454-.096-.4747-.144-.688-.144-.16 0-.304.016-.432.048-.1174.0213-.2187.064-.304.128-.0747.0533-.1334.1226-.176.208-.0427.0746-.064.16-.064.256 0 .1173.0266.224.08.32.064.0853.1493.1653.256.24.096.0533.2613.1226.496.208.2453.0853.5653.1813.96.288.5013.1386.928.2986 1.28.48.3626.1706.6506.3733.864.608.1813.1813.3093.3946.384.64.0853.2346.128.4906.128.768 0 .544-.1547 1.0293-.464 1.456-.2987.416-.7147.7466-1.248.992-.5227.2346-1.1254.352-1.808.352z"/><path d="m40.0638 29.7558c-.8747 0-1.6587-.1867-2.352-.56-.6933-.384-1.2373-.9067-1.632-1.568-.3947-.672-.592-1.4294-.592-2.272 0-.864.1973-1.6267.592-2.288.3947-.672.9387-1.1947 1.632-1.568.6933-.384 1.4773-.576 2.352-.576.8853 0 1.6693.192 2.352.576.6933.3733 1.2373.896 1.632 1.568.3947.6613.592 1.424.592 2.288 0 .8426-.1973 1.6-.592 2.272-.3947.6613-.9387 1.184-1.632 1.568-.6827.3733-1.4667.56-2.352.56zm0-2.208c.384 0 .72-.096 1.008-.288.2987-.192.5333-.4534.704-.784.1707-.3307.2507-.704.24-1.12.0107-.4374-.0693-.8214-.24-1.152-.1707-.3414-.4053-.6027-.704-.784-.288-.192-.624-.288-1.008-.288-.3733 0-.7093.096-1.008.288s-.5333.4533-.704.784c-.1707.3306-.256.7146-.256 1.152 0 .416.0853.7893.256 1.12.1707.3306.4053.592.704.784s.6347.288 1.008.288z"/><path d="m22.2889 29.5958v-11.2h2.448l4.064 6.608-1.728-.016 4.112-6.592h2.368v11.2h-2.656v-3.392c0-.9814.0213-1.8614.064-2.64.0533-.7894.1387-1.5627.256-2.32l.304.832-3.088 4.784h-1.088l-3.024-4.752.304-.864c.128.7146.2133 1.456.256 2.224.0533.7573.08 1.6693.08 2.736v3.392z"/></g></svg>