<svg fill="none" height="81" viewBox="0 0 151 81" width="151" xmlns="http://www.w3.org/2000/svg"><g fill="#c598e9"><path d="m7.57469 152.585c.30145-.168.40979-.548.24199-.85-.1678-.301-.5482-.409-.84965-.242-.30144.168-.40978.549-.24198.85.1678.302.5482.41.84964.242z"/><path d="m12.6496 161.702c.3124-.174.4247-.568.2508-.881-.1739-.312-.5682-.424-.8806-.251-.3124.174-.4246.569-.2507.881s.5681.425.8805.251z"/><path d="m17.7245 170.819c.3234-.18.4396-.588.2596-.912-.18-.323-.5881-.439-.9115-.259-.3233.18-.4395.588-.2595.911s.588.44.9114.26z"/><path d="m22.7884 179.916c.3233-.18.4395-.589.2595-.912s-.588-.439-.9114-.259c-.3234.179-.4396.588-.2596.911s.5881.44.9115.26z"/><path d="m27.8412 188.993c.3124-.174.4246-.569.2507-.881s-.5681-.425-.8805-.251-.4247.568-.2508.881c.1739.312.5682.424.8806.251z"/><path d="m32.894 198.07c.3014-.168.4098-.549.242-.85s-.5482-.41-.8497-.242c-.3014.168-.4098.548-.242.85.1678.301.5482.409.8497.242z"/><path d="m1.51872 120.3c.33981-.189.46194-.618.27278-.958s-.61797-.462-.957779-.273c-.339813.189-.461941.618-.272785.958s.617974.462.957784.273z"/><path d="m6.59915 129.427c.35625-.199.48429-.648.28598-1.005-.19831-.356-.64788-.484-1.00413-.286-.35625.199-.48429.648-.28598 1.005.19831.356.64788.484 1.00413.286z"/><path d="m11.6796 138.553c.3727-.207.5066-.677.2992-1.05-.2075-.373-.6778-.507-1.0505-.299-.3727.207-.5067.677-.2992 1.05s.6778.507 1.0505.299z"/><path d="m16.76 147.68c.3891-.217.529-.708.3124-1.097s-.7077-.529-1.0968-.312c-.3892.216-.529.707-.3124 1.097.2166.389.7077.529 1.0968.312z"/><path d="m21.8404 156.807c.4056-.226.5514-.738.3256-1.143-.2258-.406-.7376-.552-1.1432-.326-.4055.226-.5513.738-.3255 1.143.2257.406.7375.551 1.1431.326z"/><path d="m26.9209 165.933c.422-.235.5737-.767.3387-1.189-.2349-.422-.7674-.574-1.1895-.339-.422.235-.5737.768-.3387 1.19.2349.422.7674.573 1.1895.338z"/><path d="m31.9847 175.03c.422-.235.5737-.767.3388-1.189s-.7675-.574-1.1895-.339-.5737.768-.3388 1.19.7675.573 1.1895.338z"/><path d="m37.032 184.097c.4056-.225.5513-.737.3256-1.143-.2258-.405-.7376-.551-1.1432-.325-.4056.225-.5513.737-.3256 1.143.2258.405.7376.551 1.1432.325z"/><path d="m42.0793 193.165c.3891-.217.529-.708.3124-1.097-.2167-.389-.7077-.529-1.0969-.313-.3891.217-.529.708-.3123 1.097.2166.389.7076.529 1.0968.313z"/><path d="m47.1266 202.232c.3727-.208.5066-.678.2991-1.051-.2074-.372-.6777-.506-1.0504-.299-.3727.208-.5067.678-.2992 1.051.2074.372.6778.506 1.0505.299z"/><path d="m52.1738 211.299c.3563-.198.4843-.648.286-1.004s-.6479-.485-1.0041-.286c-.3563.198-.4843.648-.286 1.004s.6479.484 1.0041.286z"/><path d="m57.2211 220.366c.3398-.189.462-.618.2728-.958-.1891-.34-.618-.462-.9578-.273-.3398.19-.4619.618-.2728.958.1892.34.618.462.9578.273z"/><path d="m5.58494 106.199c.37269-.208.50664-.678.29917-1.051-.20746-.373-.67777-.506-1.05047-.299s-.50664.678-.29918 1.05c.20746.373.67778.507 1.05048.3z"/><path d="m10.6764 115.345c.4001-.223.5439-.727.3212-1.128-.2227-.4-.7276-.543-1.12772-.321-.40011.223-.5439.728-.32118 1.128.22271.4.7276.544 1.1277.321z"/><path d="m15.7624 124.482c.422-.235.5737-.768.3387-1.19-.2349-.422-.7674-.573-1.1895-.338-.422.234-.5737.767-.3387 1.189.2349.422.7674.574 1.1895.339z"/><path d="m20.8538 133.628c.4495-.25.611-.817.3608-1.266-.2502-.45-.8173-.611-1.2667-.361-.4495.25-.611.817-.3608 1.267.2502.449.8173.611 1.2667.36z"/><path d="m25.9453 142.775c.4768-.266.6482-.867.3828-1.344s-.8672-.648-1.344-.383c-.4768.266-.6482.867-.3828 1.344.2655.477.8672.648 1.344.383z"/><path d="m31.0313 151.912c.4987-.278.678-.907.4003-1.406-.2776-.499-.907-.678-1.4057-.401-.4988.278-.678.907-.4004 1.406s.907.678 1.4058.401z"/><path d="m36.1227 161.058c.5262-.293.7153-.957.4224-1.483s-.9568-.715-1.483-.422-.7153.957-.4224 1.483.9569.715 1.483.422z"/><path d="m41.1866 170.155c.5262-.293.7153-.957.4224-1.483s-.9569-.715-1.4831-.422c-.5261.292-.7152.956-.4223 1.483.2929.526.9568.715 1.483.422z"/><path d="m46.2228 179.202c.4988-.277.678-.907.4004-1.405-.2776-.499-.907-.679-1.4058-.401-.4987.278-.678.907-.4004 1.406.2777.499.9071.678 1.4058.4z"/><path d="m51.2646 188.26c.4768-.266.6482-.868.3828-1.344-.2655-.477-.8672-.649-1.344-.383-.4769.265-.6482.867-.3828 1.344s.8672.648 1.344.383z"/><path d="m56.3008 197.307c.4494-.25.611-.817.3608-1.267-.2502-.449-.8173-.611-1.2667-.361-.4495.25-.611.818-.3608 1.267s.8173.611 1.2667.361z"/><path d="m61.3371 206.354c.422-.235.5737-.767.3387-1.189-.2349-.422-.7675-.574-1.1895-.339s-.5737.767-.3388 1.189c.235.422.7675.574 1.1896.339z"/><path d="m66.3788 215.411c.4001-.222.5439-.727.3212-1.127s-.7276-.544-1.1277-.322c-.4001.223-.5439.728-.3212 1.128s.7276.544 1.1277.321z"/><path d="m71.415 224.459c.3727-.208.5067-.678.2992-1.051-.2074-.373-.6778-.506-1.0504-.299-.3727.207-.5067.678-.2992 1.05.2074.373.6778.507 1.0504.3z"/><path d="m9.63457 92.0677c.38913-.2167.52903-.7077.31238-1.0969-.21661-.3891-.70767-.529-1.09681-.3123-.38914.2166-.529.7076-.31238 1.0968.21661.3891.70767.529 1.09681.3124z"/><path d="m14.7316 101.224c.422-.235.5737-.767.3388-1.189-.235-.4224-.7675-.5741-1.1896-.3392-.422.235-.5737.7672-.3387 1.1892.2349.422.7674.574 1.1895.339z"/><path d="m19.8286 110.381c.4549-.254.6184-.828.3651-1.283-.2532-.455-.8272-.618-1.2821-.365-.455.253-.6184.828-.3652 1.282.2532.455.8273.619 1.2822.366z"/><path d="m24.9311 119.547c.4933-.275.6706-.897.396-1.39-.2746-.494-.8971-.671-1.3904-.396-.4932.274-.6705.897-.3959 1.39.2745.493.897.671 1.3903.396z"/><path d="m30.0281 128.703c.5262-.292.7153-.956.4224-1.483-.2929-.526-.9569-.715-1.4831-.422-.5261.293-.7152.957-.4223 1.483s.9568.715 1.483.422z"/><path d="m35.1251 137.86c.559-.311.76-1.017.4488-1.576s-1.0167-.76-1.5757-.449c-.5591.312-.76 1.017-.4488 1.576s1.0167.76 1.5757.449z"/><path d="m40.2221 147.016c.5919-.329.8047-1.076.4752-1.668s-1.0765-.805-1.6684-.475c-.592.329-.8047 1.076-.4752 1.668s1.0765.805 1.6684.475z"/><path d="m45.3191 156.173c.6248-.348.8494-1.136.5016-1.761s-1.1363-.85-1.7611-.502-.8494 1.136-.5016 1.761 1.1363.85 1.7611.502z"/><path d="m50.3829 165.27c.6249-.348.8494-1.137.5016-1.761-.3478-.625-1.1363-.85-1.7611-.502s-.8493 1.136-.5015 1.761 1.1362.85 1.761.502z"/><path d="m55.4137 174.307c.5919-.329.8046-1.076.4751-1.668s-1.0764-.805-1.6684-.475c-.5919.329-.8046 1.076-.4751 1.668s1.0764.805 1.6684.475z"/><path d="m60.4444 183.345c.559-.312.7599-1.017.4487-1.576-.3111-.559-1.0166-.76-1.5757-.449-.559.311-.7599 1.017-.4487 1.576s1.0166.76 1.5757.449z"/><path d="m65.4751 192.382c.5261-.293.7152-.957.4224-1.483-.2929-.526-.9569-.715-1.4831-.422-.5261.292-.7152.956-.4223 1.483.2929.526.9568.715 1.483.422z"/><path d="m70.5058 201.419c.4933-.274.6706-.897.396-1.39s-.8971-.671-1.3904-.396c-.4932.275-.6705.897-.3959 1.39.2745.494.897.671 1.3903.396z"/><path d="m75.531 210.447c.4549-.253.6184-.828.3652-1.282-.2533-.455-.8273-.619-1.2822-.366-.4549.254-.6184.828-.3652 1.283.2532.454.8273.618 1.2822.365z"/><path d="m80.5617 219.484c.422-.235.5737-.767.3388-1.189-.235-.422-.7675-.574-1.1895-.339-.4221.235-.5737.767-.3388 1.189s.7675.574 1.1895.339z"/><path d="m85.5924 228.522c.3891-.217.529-.708.3124-1.097s-.7077-.529-1.0968-.313c-.3892.217-.529.708-.3124 1.097s.7077.529 1.0968.313z"/><path d="m13.6676 77.9069c.3892-.2166.529-.7077.3124-1.0968-.2166-.3892-.7077-.529-1.0968-.3124s-.529.7077-.3124 1.0968.7077.529 1.0968.3124z"/><path d="m18.7757 87.0832c.433-.241.5886-.7874.3476-1.2204-.2411-.433-.7874-.5886-1.2204-.3476s-.5886.7874-.3476 1.2204.7874.5886 1.2204.3476z"/><path d="m23.8837 96.2595c.4769-.2654.6482-.8671.3828-1.344-.2654-.4768-.8671-.6482-1.344-.3827-.4768.2654-.6482.8671-.3827 1.3439.2654.4769.8671.6482 1.3439.3828z"/><path d="m28.9863 105.426c.5152-.287.7003-.937.4135-1.452s-.9369-.701-1.4521-.414-.7003.937-.4136 1.452c.2868.516.937.701 1.4522.414z"/><path d="m34.0943 114.602c.5591-.311.76-1.016.4488-1.575-.3112-.56-1.0167-.76-1.5757-.449-.5591.311-.76 1.016-.4488 1.575s1.0167.76 1.5757.449z"/><path d="m39.2024 123.779c.6029-.336.8195-1.097.4839-1.7s-1.0964-.819-1.6993-.484c-.6029.336-.8195 1.097-.4839 1.7.3356.602 1.0964.819 1.6993.484z"/><path d="m44.3104 132.955c.6467-.36.8792-1.176.5192-1.823s-1.1762-.879-1.8229-.519-.8792 1.176-.5192 1.823c.36.646 1.1762.879 1.8229.519z"/><path d="m49.4129 142.121c.6851-.381.9314-1.246.55-1.931s-1.2459-.931-1.931-.55c-.6851.382-.9313 1.246-.55 1.931.3814.685 1.2459.932 1.931.55z"/><path d="m54.521 151.298c.7289-.406.9909-1.326.5851-2.055-.4057-.729-1.3256-.991-2.0546-.585-.7289.406-.9909 1.325-.5851 2.054s1.3256.991 2.0546.586z"/><path d="m59.5848 160.394c.729-.405.991-1.325.5852-2.054s-1.3257-.991-2.0546-.585c-.729.405-.9909 1.325-.5852 2.054.4058.729 1.3257.991 2.0546.585z"/><path d="m64.6045 169.412c.6851-.381.9313-1.246.55-1.931-.3814-.685-1.2459-.931-1.9311-.55-.6851.381-.9313 1.246-.5499 1.931.3813.685 1.2459.931 1.931.55z"/><path d="m69.6297 178.439c.6467-.36.8792-1.176.5192-1.822-.3601-.647-1.1762-.88-1.8229-.52-.6468.36-.8792 1.177-.5192 1.823.36.647 1.1761.879 1.8229.519z"/><path d="m74.6493 187.457c.6029-.336.8196-1.096.484-1.699s-1.0964-.82-1.6993-.484c-.6029.335-.8195 1.096-.4839 1.699s1.0963.82 1.6992.484z"/><path d="m79.669 196.475c.5591-.312.76-1.017.4488-1.576s-1.0167-.76-1.5757-.449c-.5591.311-.76 1.017-.4488 1.576s1.0167.76 1.5757.449z"/><path d="m84.6887 205.492c.5152-.287.7003-.937.4135-1.452-.2867-.515-.9369-.7-1.4521-.414-.5152.287-.7003.937-.4136 1.452.2868.516.937.701 1.4522.414z"/><path d="m89.7139 214.52c.4768-.266.6482-.868.3827-1.344-.2654-.477-.8671-.649-1.344-.383-.4768.265-.6482.867-.3827 1.344.2654.477.8671.648 1.344.383z"/><path d="m94.7335 223.537c.433-.241.5886-.787.3476-1.22s-.7874-.589-1.2204-.348-.5886.787-.3476 1.22.7874.589 1.2204.348z"/><path d="m99.7532 232.555c.3888-.217.5288-.708.3128-1.097-.2171-.389-.7081-.529-1.0973-.313-.3891.217-.529.708-.3123 1.097.2166.389.7076.529 1.0968.313z"/><path d="m17.6841 63.7163c.3727-.2074.5067-.6777.2992-1.0504-.2074-.3727-.6778-.5067-1.0505-.2992-.3726.2074-.5066.6778-.2991 1.0505.2074.3726.6777.5066 1.0504.2991z"/><path d="m22.7977 72.9026c.422-.235.5737-.7675.3388-1.1895-.2349-.4221-.7675-.5737-1.1895-.3388s-.5737.7675-.3388 1.1895.7675.5737 1.1895.3388z"/><path d="m27.9168 82.0987c.4768-.2654.6482-.8671.3828-1.344-.2655-.4768-.8672-.6482-1.344-.3827-.4768.2654-.6482.8671-.3828 1.344.2655.4768.8672.6482 1.344.3827z"/><path d="m33.0304 91.285c.5261-.2929.7152-.9569.4224-1.483-.2929-.5262-.9569-.7153-1.4831-.4224-.5261.2929-.7152.9568-.4223 1.483.2928.5262.9568.7153 1.483.4224z"/><path d="m38.144 100.471c.5754-.32.7823-1.0464.4619-1.6218-.3203-.5755-1.0465-.7824-1.622-.462-.5755.3203-.7824 1.0466-.462 1.6218.3203.576 1.0466.783 1.6221.462z"/><path d="m43.2575 109.657c.6248-.347.8494-1.136.5016-1.761-.3478-.624-1.1363-.849-1.7611-.501s-.8494 1.136-.5016 1.761 1.1363.849 1.7611.501z"/><path d="m48.3766 118.854c.6796-.379.9239-1.236.5456-1.916s-1.236-.924-1.9156-.546c-.6796.379-.9239 1.236-.5455 1.916.3783.68 1.2359.924 1.9155.546z"/><path d="m53.4902 128.04c.7289-.406.9909-1.326.5852-2.055-.4058-.729-1.3257-.991-2.0546-.585-.729.406-.991 1.326-.5852 2.055s1.3256.991 2.0546.585z"/><path d="m58.6038 137.226c.7782-.433 1.058-1.415.6247-2.194-.4332-.778-1.4153-1.058-2.1936-.624-.7783.433-1.058 1.415-.6248 2.193.4333.779 1.4154 1.058 2.1937.625z"/><path d="m63.7229 146.422c.8331-.463 1.1325-1.515.6687-2.348-.4637-.833-1.515-1.132-2.3481-.669-.8331.464-1.1325 1.515-.6687 2.348.4637.834 1.515 1.133 2.3481.669z"/><path d="m68.7867 155.519c.8331-.464 1.1325-1.515.6688-2.348-.4638-.833-1.5151-1.132-2.3481-.669-.8331.464-1.1325 1.515-.6688 2.348.4638.834 1.515 1.133 2.3481.669z"/><path d="m73.7953 164.517c.7783-.433 1.058-1.416.6248-2.194s-1.4154-1.058-2.1936-.625c-.7783.434-1.058 1.416-.6248 2.194s1.4154 1.058 2.1936.625z"/><path d="m78.8095 173.524c.7289-.405.9909-1.325.5851-2.054-.4057-.729-1.3256-.991-2.0546-.585-.7289.405-.9909 1.325-.5851 2.054s1.3256.991 2.0546.585z"/><path d="m83.8236 182.532c.6796-.378.9239-1.236.5456-1.915-.3784-.68-1.236-.924-1.9156-.546s-.9239 1.236-.5456 1.915c.3783.68 1.236.924 1.9156.546z"/><path d="m88.8322 191.53c.6248-.348.8494-1.137.5016-1.761-.3478-.625-1.1363-.85-1.7611-.502s-.8494 1.136-.5016 1.761 1.1363.85 1.7611.502z"/><path d="m93.8464 200.537c.5754-.32.7823-1.046.4619-1.622-.3203-.575-1.0465-.782-1.622-.462-.5755.321-.7823 1.047-.462 1.622.3204.576 1.0466.783 1.6221.462z"/><path d="m98.8605 209.545c.5262-.293.7153-.957.4224-1.483s-.9569-.715-1.4831-.422c-.5261.292-.7152.956-.4223 1.483.2929.526.9568.715 1.483.422z"/><path d="m103.875 218.553c.476-.266.648-.868.382-1.344-.265-.477-.867-.649-1.344-.383-.476.265-.648.867-.382 1.344.265.477.867.648 1.344.383z"/><path d="m108.883 227.55c.422-.235.574-.767.339-1.189s-.767-.574-1.189-.339c-.423.235-.574.767-.339 1.189.235.423.767.574 1.189.339z"/><path d="m113.897 236.558c.373-.208.507-.678.3-1.051-.208-.372-.678-.506-1.051-.299-.373.208-.507.678-.299 1.051.207.372.678.506 1.05.299z"/><path d="m21.6841 49.496c.3398-.1891.4619-.618.2727-.9578-.1891-.3398-.6179-.4619-.9577-.2728-.3399.1892-.462.618-.2728.9578.1891.3398.6179.462.9578.2728z"/><path d="m26.8087 58.7021c.4001-.2227.5439-.7276.3212-1.1277-.2228-.4001-.7277-.5439-1.1278-.3212s-.5439.7276-.3211 1.1277c.2227.4001.7276.5439 1.1277.3212z"/><path d="m31.9278 67.8983c.4549-.2533.6184-.8273.3652-1.2822-.2533-.4549-.8273-.6184-1.2822-.3652-.455.2532-.6184.8273-.3652 1.2822s.8273.6184 1.2822.3652z"/><path d="m37.0524 77.1044c.5152-.2868.7004-.937.4136-1.4522s-.937-.7003-1.4522-.4135c-.5152.2867-.7003.9369-.4135 1.4521s.9369.7003 1.4521.4136z"/><path d="m42.177 86.3104c.5755-.3203.7823-1.0465.462-1.622-.3204-.5755-1.0466-.7823-1.6221-.462-.5755.3204-.7823 1.0466-.4619 1.6221.3203.5754 1.0465.7823 1.622.4619z"/><path d="m47.3016 95.5165c.6358-.3539.8643-1.1562.5104-1.792-.3539-.6357-1.1562-.8642-1.792-.5103s-.8643 1.1562-.5103 1.792c.3539.6357 1.1562.8642 1.7919.5103z"/><path d="m52.4263 104.723c.696-.388.9462-1.266.5587-1.962-.3874-.696-1.2658-.947-1.9619-.559-.696.387-.9462 1.266-.5587 1.962.3874.696 1.2658.946 1.9619.559z"/><path d="m57.5509 113.929c.7563-.421 1.0282-1.376.6071-2.132-.421-.757-1.3754-1.028-2.1318-.607s-1.0282 1.375-.6072 2.132c.4211.756 1.3755 1.028 2.1319.607z"/><path d="m62.6755 123.135c.8166-.455 1.1102-1.485.6556-2.302s-1.4852-1.11-2.3018-.656c-.8167.455-1.1102 1.486-.6556 2.302.4546.817 1.4852 1.11 2.3018.656z"/><path d="m67.7946 132.331c.8714-.485 1.1846-1.585.6996-2.456-.4851-.872-1.5848-1.185-2.4563-.7-.8714.485-1.1846 1.585-.6995 2.456.485.872 1.5847 1.185 2.4562.7z"/><path d="m72.9192 141.537c.9318-.519 1.2666-1.694.748-2.626-.5187-.932-1.6945-1.267-2.6262-.748-.9318.519-1.2666 1.694-.748 2.626.5187.932 1.6945 1.267 2.6262.748z"/><path d="m77.9831 150.634c.9317-.519 1.2666-1.694.7479-2.626-.5186-.932-1.6944-1.267-2.6262-.748-.9317.518-1.2666 1.694-.7479 2.626s1.6944 1.267 2.6262.748z"/><path d="m82.9862 159.622c.8714-.485 1.1846-1.585.6995-2.457-.4851-.871-1.5848-1.184-2.4562-.699-.8715.485-1.1847 1.585-.6996 2.456.4851.872 1.5848 1.185 2.4563.7z"/><path d="m87.9948 168.619c.8166-.454 1.1101-1.485.6555-2.301-.4546-.817-1.4851-1.111-2.3017-.656-.8167.455-1.1102 1.485-.6556 2.302.4546.816 1.4851 1.11 2.3018.655z"/><path d="m92.9979 177.607c.7563-.421 1.0282-1.375.6071-2.132-.421-.756-1.3755-1.028-2.1318-.607-.7564.421-1.0282 1.376-.6072 2.132.4211.756 1.3755 1.028 2.1319.607z"/><path d="m98.001 186.595c.696-.388.9462-1.266.5587-1.962s-1.2658-.946-1.9619-.559c-.6961.388-.9462 1.266-.5588 1.962.3875.696 1.2659.946 1.962.559z"/><path d="m103.004 195.583c.636-.354.864-1.157.51-1.792-.353-.636-1.156-.865-1.792-.511-.635.354-.864 1.157-.51 1.792.354.636 1.156.865 1.792.511z"/><path d="m108.007 204.57c.576-.32.782-1.046.462-1.622-.32-.575-1.046-.782-1.622-.462-.575.321-.782 1.047-.462 1.622.32.576 1.047.783 1.622.462z"/><path d="m113.01 213.558c.515-.287.701-.937.414-1.452s-.937-.7-1.452-.414c-.516.287-.701.937-.414 1.453.287.515.937.7 1.452.413z"/><path d="m118.013 222.546c.455-.253.619-.827.366-1.282-.254-.455-.828-.619-1.283-.365-.455.253-.618.827-.365 1.282s.827.618 1.282.365z"/><path d="m123.022 231.544c.4-.223.544-.728.321-1.128s-.728-.544-1.128-.321c-.4.222-.544.727-.321 1.127.223.401.728.544 1.128.322z"/><path d="m128.025 240.531c.34-.189.462-.618.273-.957-.189-.34-.618-.462-.958-.273s-.462.618-.273.958c.189.339.618.462.958.272z"/><path d="m30.7976 44.4619c.3562-.1983.4842-.6478.2859-1.0041-.1983-.3562-.6478-.4843-1.0041-.286-.3562.1983-.4843.6479-.286 1.0041.1983.3563.6479.4843 1.0042.286z"/><path d="m35.9277 53.6779c.422-.2349.5737-.7674.3388-1.1895-.2349-.422-.7675-.5737-1.1895-.3387-.4221.2349-.5737.7674-.3388 1.1895.2349.422.7675.5737 1.1895.3387z"/><path d="m41.0634 62.9039c.4932-.2746.6705-.8971.3959-1.3904-.2745-.4932-.897-.6705-1.3903-.3959-.4933.2745-.6706.897-.396 1.3903s.8971.6706 1.3904.396z"/><path d="m46.1935 72.1199c.5591-.3112.76-1.0167.4488-1.5757-.3112-.5591-1.0167-.76-1.5757-.4488-.5591.3112-.76 1.0167-.4488 1.5757.3112.5591 1.0167.76 1.5757.4488z"/><path d="m51.3237 81.3359c.6248-.3478.8493-1.1363.5015-1.7611s-1.1362-.8494-1.7611-.5016c-.6248.3478-.8493 1.1363-.5015 1.7611s1.1362.8494 1.7611.5016z"/><path d="m56.4593 90.5618c.6961-.3874.9463-1.2658.5588-1.9619-.3875-.696-1.2659-.9462-1.9619-.5587-.6961.3874-.9462 1.2658-.5588 1.9619.3875.696 1.2659.9462 1.9619.5587z"/><path d="m61.5895 99.7778c.7618-.424 1.0356-1.3854.6115-2.1473-.424-.7618-1.3854-1.0356-2.1473-.6115-.7618.4241-1.0356 1.3854-.6115 2.1473.4241.7618 1.3854 1.0357 2.1473.6115z"/><path d="m66.7251 109.004c.8331-.464 1.1325-1.515.6688-2.348s-1.515-1.133-2.3481-.669-1.1325 1.515-.6688 2.348c.4638.833 1.5151 1.133 2.3481.669z"/><path d="m71.8553 118.22c.8988-.501 1.2219-1.635.7215-2.534-.5003-.899-1.6346-1.222-2.5334-.721-.8989.5-1.222 1.634-.7216 2.533s1.6346 1.222 2.5335.722z"/><path d="m76.9854 127.436c.9647-.537 1.3114-1.754.7744-2.719s-1.7543-1.311-2.7189-.774-1.3113 1.754-.7743 2.718c.5369.965 1.7542 1.312 2.7188.775z"/><path d="m82.1211 136.662c1.0359-.577 1.4082-1.884.8315-2.92-.5766-1.036-1.8838-1.408-2.9196-.832-1.0359.577-1.4082 1.884-.8316 2.92s1.8838 1.408 2.9197.832z"/><path d="m87.185 145.759c1.0358-.577 1.4081-1.884.8315-2.92s-1.8838-1.408-2.9197-.832c-1.0359.577-1.4082 1.884-.8315 2.92.5766 1.036 1.8838 1.408 2.9197.832z"/><path d="m92.177 154.727c.9646-.537 1.3113-1.755.7744-2.719-.537-.965-1.7543-1.312-2.7189-.775s-1.3113 1.755-.7744 2.719c.537.965 1.7543 1.312 2.7189.775z"/><path d="m97.1746 163.704c.8988-.5 1.2219-1.634.7215-2.533-.5003-.899-1.6346-1.222-2.5335-.722-.8988.501-1.2219 1.635-.7215 2.534.5003.899 1.6346 1.222 2.5335.721z"/><path d="m102.172 172.682c.833-.464 1.133-1.515.669-2.348s-1.515-1.132-2.348-.669c-.8333.464-1.1327 1.515-.669 2.348.464.834 1.515 1.133 2.348.669z"/><path d="m107.164 181.65c.762-.424 1.036-1.385.612-2.147s-1.386-1.036-2.148-.612c-.761.424-1.035 1.386-.611 2.148.424.761 1.385 1.035 2.147.611z"/><path d="m112.162 190.628c.696-.388.946-1.266.558-1.962-.387-.696-1.265-.946-1.961-.559-.696.388-.947 1.266-.559 1.962.387.696 1.266.946 1.962.559z"/><path d="m117.154 199.596c.625-.348.849-1.136.501-1.761-.347-.625-1.136-.85-1.761-.502s-.849 1.136-.501 1.761c.347.625 1.136.85 1.761.502z"/><path d="m122.151 208.574c.559-.311.76-1.017.449-1.576s-1.017-.76-1.576-.449-.76 1.017-.448 1.576c.311.559 1.016.76 1.575.449z"/><path d="m127.149 217.552c.493-.275.67-.897.396-1.391-.275-.493-.897-.67-1.39-.396-.494.275-.671.897-.396 1.391.274.493.897.67 1.39.396z"/><path d="m132.141 226.519c.422-.234.574-.767.339-1.189s-.768-.574-1.19-.339-.573.768-.339 1.19c.235.422.768.573 1.19.338z"/><path d="m137.139 235.497c.356-.198.484-.648.285-1.004-.198-.356-.647-.484-1.004-.286-.356.199-.484.648-.286 1.004.199.357.648.485 1.005.286z"/><path d="m39.911 39.4278c.3727-.2074.5067-.6777.2992-1.0504-.2074-.3727-.6777-.5067-1.0504-.2992s-.5067.6778-.2992 1.0505c.2074.3727.6778.5066 1.0504.2991z"/><path d="m45.0522 48.6637c.4495-.2502.611-.8173.3608-1.2667-.2502-.4495-.8173-.611-1.2667-.3608-.4495.2502-.611.8173-.3608 1.2667.2502.4495.8173.611 1.2667.3608z"/><path d="m50.1934 57.8996c.5262-.2929.7153-.9569.4224-1.4831-.2929-.5261-.9569-.7152-1.483-.4223-.5262.2929-.7153.9568-.4224 1.483s.9569.7153 1.483.4224z"/><path d="m55.3346 67.1354c.6029-.3356.8196-1.0964.484-1.6993s-1.0964-.8195-1.6993-.4839-.8196 1.0964-.484 1.6993c.3356.6028 1.0964.8195 1.6993.4839z"/><path d="m60.4758 76.3713c.6796-.3783.9239-1.236.5456-1.9156s-1.236-.9239-1.9156-.5456c-.6796.3784-.9239 1.236-.5455 1.9156.3783.6796 1.2359.9239 1.9155.5456z"/><path d="m65.617 85.6071c.7564-.421 1.0282-1.3755.6072-2.1318-.421-.7564-1.3755-1.0282-2.1319-.6072-.7563.4211-1.0282 1.3755-.6071 2.1319.421.7563 1.3755 1.0282 2.1318.6071z"/><path d="m70.7582 94.843c.8331-.4638 1.1325-1.515.6688-2.3481-.4638-.8331-1.5151-1.1325-2.3481-.6688-.8331.4638-1.1325 1.515-.6688 2.3481s1.515 1.1325 2.3481.6688z"/><path d="m75.8994 104.079c.9098-.507 1.2368-1.655.7304-2.565-.5065-.909-1.6546-1.236-2.5644-.73-.9098.507-1.2368 1.655-.7304 2.564.5065.91 1.6546 1.237 2.5644.731z"/><path d="m81.0406 113.315c.9865-.549 1.3411-1.794.7919-2.781-.5491-.987-1.7941-1.341-2.7806-.792-.9866.549-1.3411 1.794-.792 2.781.5492.986 1.7941 1.341 2.7807.792z"/><path d="m86.1763 122.541c1.0578-.589 1.4379-1.924.8491-2.982s-1.9237-1.438-2.9815-.849-1.4379 1.924-.8491 2.982c.5888 1.057 1.9237 1.437 2.9815.849z"/><path d="m91.3175 131.777c1.1345-.632 1.5422-2.064.9107-3.198-.6315-1.135-2.0632-1.543-3.1978-.911-1.1345.632-1.5422 2.063-.9107 3.198.6315 1.134 2.0632 1.542 3.1978.911z"/><path d="m96.3813 140.873c1.1346-.631 1.5423-2.063.9108-3.197-.6316-1.135-2.0633-1.543-3.1978-.911-1.1345.631-1.5423 2.063-.9107 3.198.6315 1.134 2.0632 1.542 3.1977.91z"/><path d="m101.368 149.831c1.058-.588 1.438-1.923.849-2.981s-1.924-1.438-2.9815-.849c-1.0578.589-1.438 1.923-.8492 2.981.5889 1.058 1.9237 1.438 2.9817.849z"/><path d="m106.36 158.799c.986-.549 1.341-1.794.792-2.78-.549-.987-1.794-1.341-2.781-.792-.986.549-1.341 1.794-.792 2.78.549.987 1.794 1.341 2.781.792z"/><path d="m111.346 167.757c.91-.506 1.237-1.654.731-2.564-.507-.91-1.655-1.237-2.565-.73-.909.506-1.236 1.654-.73 2.564s1.655 1.237 2.564.73z"/><path d="m116.333 176.715c.833-.463 1.132-1.515.669-2.348-.464-.833-1.515-1.132-2.348-.669-.834.464-1.133 1.515-.669 2.349.464.833 1.515 1.132 2.348.668z"/><path d="m121.319 185.673c.757-.421 1.029-1.375.608-2.132-.421-.756-1.376-1.028-2.132-.607-.757.421-1.028 1.376-.607 2.132s1.375 1.028 2.131.607z"/><path d="m126.306 194.631c.68-.378.924-1.236.545-1.915-.378-.68-1.235-.924-1.915-.546s-.924 1.236-.546 1.916c.379.679 1.236.924 1.916.545z"/><path d="m131.292 203.589c.603-.335.82-1.096.484-1.699-.335-.603-1.096-.82-1.699-.484s-.819 1.096-.484 1.699c.336.603 1.097.82 1.699.484z"/><path d="m136.279 212.547c.526-.293.715-.957.422-1.483s-.957-.715-1.483-.422-.715.957-.422 1.483.957.715 1.483.422z"/><path d="m141.265 221.505c.45-.25.611-.817.361-1.267-.25-.449-.817-.61-1.266-.36-.45.25-.611.817-.361 1.266.25.45.817.611 1.266.361z"/><path d="m146.252 230.463c.373-.207.507-.678.299-1.05-.207-.373-.678-.507-1.05-.299-.373.207-.507.677-.299 1.05.207.373.677.507 1.05.299z"/><path d="m43.8778 25.148c.307-.1709.4173-.5582.2464-.8651-.1708-.3069-.5582-.4172-.8651-.2464-.3069.1709-.4172.5582-.2464.8651.1709.3069.5582.4172.8651.2464z"/><path d="m49.0245 34.3938c.3892-.2167.529-.7077.3124-1.0969-.2166-.3891-.7077-.5289-1.0968-.3123s-.529.7076-.3124 1.0968c.2166.3891.7077.529 1.0968.3124z"/><path d="m54.1713 43.6395c.4713-.2623.6407-.8571.3783-1.3285-.2623-.4713-.8571-.6407-1.3285-.3784-.4713.2624-.6408.8572-.3784 1.3286.2624.4713.8572.6407 1.3286.3783z"/><path d="m59.3235 52.8952c.5591-.3111.76-1.0166.4488-1.5757-.3112-.559-1.0167-.7599-1.5757-.4487-.5591.3112-.76 1.0166-.4488 1.5757.3112.559 1.0167.7599 1.5757.4487z"/><path d="m64.4757 62.151c.6468-.3601.8792-1.1762.5192-1.8229-.36-.6468-1.1761-.8792-1.8229-.5192-.6467.36-.8791 1.1762-.5191 1.8229s1.1761.8792 1.8228.5192z"/><path d="m69.6225 71.3967c.7289-.4057.9909-1.3256.5851-2.0546-.4058-.7289-1.3256-.9909-2.0546-.5851-.7289.4058-.9909 1.3256-.5851 2.0546.4057.7289 1.3256.9909 2.0546.5851z"/><path d="m74.7747 80.6524c.8167-.4546 1.1102-1.4851.6556-2.3017-.4546-.8167-1.4852-1.1102-2.3018-.6556s-1.1102 1.4851-.6556 2.3018c.4546.8166 1.4852 1.1101 2.3018.6555z"/><path d="m79.9214 89.8982c.8989-.5003 1.2219-1.6346.7216-2.5335-.5004-.8988-1.6347-1.2219-2.5335-.7215-.8989.5003-1.2219 1.6346-.7216 2.5335.5004.8988 1.6347 1.2219 2.5335.7215z"/><path d="m85.0737 99.1539c.9865-.5491 1.3411-1.7941.7919-2.7806-.5492-.9866-1.7941-1.3412-2.7806-.792-.9866.5492-1.3412 1.7941-.792 2.7807.5492.9865 1.7941 1.3411 2.7807.7919z"/><path d="m90.2204 108.4c1.0688-.595 1.4529-1.944.8579-3.013-.5949-1.068-1.9436-1.453-3.0124-.858-1.0687.595-1.4528 1.944-.8579 3.013s1.9436 1.453 3.0124.858z"/><path d="m95.3726 117.655c1.1565-.643 1.5721-2.103.9284-3.259-.6438-1.157-2.1031-1.572-3.2596-.928-1.1564.643-1.5721 2.103-.9283 3.259.6437 1.157 2.1031 1.572 3.2595.928z"/><path d="m100.519 126.901c1.239-.689 1.684-2.252.995-3.491-.69-1.239-2.2529-1.684-3.4916-.994-1.2387.689-1.6838 2.252-.9943 3.491s2.2526 1.684 3.4909.994z"/><path d="m105.583 135.998c1.239-.689 1.684-2.252.995-3.491-.69-1.239-2.253-1.684-3.492-.994-1.238.689-1.684 2.252-.994 3.491.689 1.238 2.253 1.684 3.491.994z"/><path d="m110.564 144.946c1.157-.644 1.572-2.103.929-3.259-.644-1.157-2.104-1.572-3.26-.929-1.156.644-1.572 2.103-.928 3.26.643 1.156 2.103 1.572 3.259.928z"/><path d="m115.54 153.884c1.068-.595 1.453-1.943.858-3.012s-1.944-1.453-3.013-.858-1.453 1.944-.858 3.012c.595 1.069 1.944 1.453 3.013.858z"/><path d="m120.521 162.832c.986-.549 1.341-1.794.792-2.78-.55-.987-1.795-1.341-2.781-.792-.987.549-1.341 1.794-.792 2.78.549.987 1.794 1.342 2.781.792z"/><path d="m125.496 171.771c.899-.501 1.222-1.635.722-2.534-.501-.899-1.635-1.222-2.534-.722-.899.501-1.222 1.635-.721 2.534.5.899 1.634 1.222 2.533.722z"/><path d="m130.477 180.719c.817-.455 1.11-1.486.656-2.302-.455-.817-1.485-1.11-2.302-.656-.817.455-1.11 1.485-.656 2.302.455.817 1.485 1.11 2.302.656z"/><path d="m135.453 189.657c.729-.406.991-1.326.585-2.055s-1.326-.991-2.055-.585-.991 1.326-.585 2.055 1.326.991 2.055.585z"/><path d="m140.434 198.605c.646-.36.879-1.176.519-1.823s-1.176-.879-1.823-.519-.879 1.176-.519 1.823c.36.646 1.176.879 1.823.519z"/><path d="m145.409 207.543c.559-.311.76-1.017.449-1.576s-1.017-.76-1.576-.449c-.559.312-.76 1.017-.449 1.576.312.559 1.017.76 1.576.449z"/><path d="m150.384 216.481c.472-.262.641-.857.379-1.328-.263-.472-.857-.641-1.329-.379-.471.263-.64.857-.378 1.329.262.471.857.64 1.328.378z"/><path d="m155.365 225.429c.39-.216.529-.708.313-1.097-.217-.389-.708-.529-1.097-.312s-.529.708-.312 1.097c.216.389.707.529 1.096.312z"/><path d="m160.346 234.377c.307-.171.418-.558.247-.865s-.558-.417-.865-.246-.417.558-.247.865c.171.307.559.417.865.246z"/><path d="m52.9803 20.0941c.3124-.174.4247-.5682.2508-.8806s-.5682-.4247-.8806-.2508-.4247.5682-.2508.8806.5682.4247.8806.2508z"/><path d="m58.138 29.3597c.4056-.2258.5514-.7376.3256-1.1432s-.7376-.5513-1.1431-.3256c-.4056.2258-.5514.7376-.3256 1.1432.2257.4056.7376.5513 1.1431.3256z"/><path d="m63.2958 38.6253c.4988-.2776.678-.907.4004-1.4058-.2777-.4987-.907-.678-1.4058-.4003-.4988.2776-.678.907-.4004 1.4057.2777.4988.9071.678 1.4058.4004z"/><path d="m68.4536 47.8909c.5919-.3295.8046-1.0764.4751-1.6684-.3295-.5919-1.0764-.8046-1.6684-.4751-.5919.3295-.8046 1.0764-.4751 1.6684.3295.5919 1.0764.8046 1.6684.4751z"/><path d="m73.6113 57.1566c.6851-.3814.9314-1.2459.55-1.931s-1.2459-.9314-1.931-.55-.9313 1.2459-.55 1.931c.3814.6851 1.2459.9313 1.931.55z"/><path d="m78.7691 66.4222c.7783-.4332 1.058-1.4154.6248-2.1936-.4333-.7783-1.4154-1.058-2.1937-.6248-.7782.4332-1.058 1.4154-.6247 2.1936.4332.7783 1.4153 1.058 2.1936.6248z"/><path d="m83.9269 75.6878c.8714-.4851 1.1846-1.5848.6995-2.4562-.4851-.8715-1.5848-1.1847-2.4562-.6996-.8715.4851-1.1847 1.5848-.6996 2.4563.4851.8714 1.5848 1.1846 2.4563.6995z"/><path d="m89.0846 84.9535c.9647-.537 1.3114-1.7543.7744-2.7189s-1.7543-1.3113-2.7189-.7744c-.9646.537-1.3113 1.7543-.7743 2.7189.5369.9646 1.7542 1.3113 2.7188.7744z"/><path d="m94.2424 94.2191c1.0578-.5888 1.438-1.9237.8491-2.9815-.5888-1.0578-1.9236-1.438-2.9814-.8491-1.0578.5888-1.438 1.9236-.8492 2.9814.5889 1.0578 1.9237 1.438 2.9815.8492z"/><path d="m99.4002 103.485c1.1508-.641 1.5648-2.093.9238-3.244-.6406-1.1514-2.093-1.565-3.244-.9243s-1.5646 2.0933-.9239 3.2443 2.0931 1.564 3.2441.924z"/><path d="m104.563 112.76c1.25-.695 1.699-2.272 1.004-3.522-.696-1.25-2.273-1.699-3.523-1.003-1.249.696-1.698 2.273-1.003 3.522.696 1.25 2.273 1.699 3.522 1.003z"/><path d="m109.721 122.026c1.343-.748 1.826-2.442 1.078-3.785-.747-1.343-2.442-1.825-3.785-1.078-1.342.748-1.825 2.442-1.078 3.785.748 1.343 2.442 1.825 3.785 1.078z"/><path d="m114.785 131.123c1.343-.748 1.825-2.442 1.078-3.785s-2.442-1.825-3.785-1.078c-1.343.748-1.825 2.442-1.078 3.785.748 1.343 2.442 1.825 3.785 1.078z"/><path d="m119.755 140.051c1.25-.696 1.699-2.273 1.003-3.522-.695-1.25-2.272-1.699-3.522-1.003-1.25.695-1.699 2.272-1.003 3.522.695 1.25 2.272 1.699 3.522 1.003z"/><path d="m124.719 148.969c1.151-.64 1.565-2.093.924-3.244-.64-1.151-2.093-1.564-3.244-.924-1.151.641-1.564 2.093-.924 3.244.641 1.151 2.093 1.565 3.244.924z"/><path d="m129.689 157.898c1.058-.589 1.438-1.924.85-2.982-.589-1.058-1.924-1.438-2.982-.849s-1.438 1.924-.849 2.981c.589 1.058 1.924 1.438 2.981.85z"/><path d="m134.659 166.826c.965-.537 1.312-1.754.775-2.719s-1.755-1.311-2.719-.774c-.965.537-1.311 1.754-.775 2.718.537.965 1.755 1.312 2.719.775z"/><path d="m139.629 175.754c.872-.485 1.185-1.585.7-2.456-.485-.872-1.585-1.185-2.456-.7-.872.485-1.185 1.585-.7 2.456.485.872 1.585 1.185 2.456.7z"/><path d="m144.599 184.682c.778-.433 1.058-1.415.625-2.193-.433-.779-1.415-1.058-2.194-.625-.778.433-1.058 1.415-.624 2.193.433.779 1.415 1.058 2.193.625z"/><path d="m149.569 193.61c.685-.381.931-1.246.55-1.931s-1.246-.931-1.931-.55c-.685.382-.931 1.246-.55 1.931.382.686 1.246.932 1.931.55z"/><path d="m154.539 202.539c.592-.33.805-1.077.475-1.669-.329-.592-1.076-.804-1.668-.475-.592.33-.805 1.077-.475 1.668.329.592 1.076.805 1.668.476z"/><path d="m159.509 211.467c.499-.278.678-.907.4-1.406-.277-.499-.907-.678-1.405-.4-.499.277-.678.907-.401 1.405.278.499.907.678 1.406.401z"/><path d="m164.479 220.395c.406-.226.551-.738.326-1.143-.226-.406-.738-.551-1.144-.326-.405.226-.551.738-.325 1.143.226.406.737.552 1.143.326z"/><path d="m169.449 229.323c.312-.174.425-.568.251-.88-.174-.313-.568-.425-.881-.251-.312.174-.425.568-.251.88.174.313.569.425.881.251z"/><path d="m62.0882 15.05c.3234-.18.4396-.588.2596-.9114s-.588-.4396-.9114-.2596-.4396.5881-.2596.9115c.18.3233.5881.4396.9114.2595z"/><path d="m67.2515 24.3256c.4221-.2349.5737-.7675.3388-1.1895s-.7675-.5737-1.1895-.3388-.5737.7675-.3388 1.1895c.235.422.7675.5737 1.1895.3388z"/><path d="m72.4203 33.6111c.5262-.2929.7153-.9569.4224-1.483-.2929-.5262-.9568-.7153-1.483-.4224s-.7153.9568-.4224 1.483.9569.7153 1.483.4224z"/><path d="m77.5836 42.8866c.6248-.3478.8494-1.1362.5016-1.7611-.3478-.6248-1.1363-.8493-1.7611-.5015s-.8494 1.1362-.5015 1.7611c.3478.6248 1.1362.8493 1.761.5015z"/><path d="m82.7525 52.1721c.7289-.4058.9909-1.3256.5851-2.0546-.4058-.7289-1.3256-.9909-2.0546-.5852-.7289.4058-.9909 1.3257-.5851 2.0546.4057.729 1.3256.991 2.0546.5852z"/><path d="m87.9213 61.4576c.8331-.4638 1.1325-1.515.6687-2.3481-.4637-.8331-1.515-1.1325-2.3481-.6688-.8331.4638-1.1325 1.515-.6687 2.3481.4637.8331 1.515 1.1325 2.3481.6688z"/><path d="m93.0846 70.7331c.9317-.5186 1.2666-1.6944.7479-2.6261-.5186-.9318-1.6944-1.2667-2.6262-.748-.9317.5187-1.2666 1.6944-.7479 2.6262.5186.9317 1.6944 1.2666 2.6262.7479z"/><path d="m98.2534 80.0186c1.0358-.5766 1.4081-1.8838.8315-2.9197s-1.8838-1.4082-2.9197-.8315c-1.0359.5766-1.4081 1.8838-.8315 2.9197.5766 1.0358 1.8838 1.4081 2.9197.8315z"/><path d="m103.417 89.2942c1.134-.6316 1.542-2.0633.91-3.1978-.631-1.1345-2.063-1.5423-3.197-.9107-1.1349.6315-1.5426 2.0632-.911 3.1977.631 1.1346 2.063 1.5423 3.198.9108z"/><path d="m108.585 98.5796c1.239-.6895 1.684-2.2526.995-3.4912-.69-1.2387-2.253-1.6839-3.491-.9944-1.239.6895-1.684 2.2526-.995 3.4913.69 1.2387 2.253 1.6839 3.491.9943z"/><path d="m113.754 107.865c1.343-.747 1.826-2.442 1.078-3.785-.747-1.342-2.442-1.825-3.785-1.078-1.342.748-1.825 2.442-1.077 3.785.747 1.343 2.441 1.826 3.784 1.078z"/><path d="m118.918 117.141c1.441-.803 1.959-2.622 1.157-4.063-.803-1.442-2.622-1.96-4.063-1.157-1.442.802-1.96 2.621-1.157 4.063.802 1.441 2.621 1.959 4.063 1.157z"/><path d="m123.981 126.238c1.442-.803 1.96-2.622 1.158-4.063-.803-1.442-2.622-1.96-4.063-1.157-1.442.802-1.96 2.621-1.157 4.062.802 1.442 2.621 1.96 4.062 1.158z"/><path d="m128.946 135.156c1.343-.748 1.825-2.442 1.078-3.785-.748-1.343-2.442-1.825-3.785-1.078-1.343.748-1.825 2.442-1.078 3.785.748 1.343 2.442 1.825 3.785 1.078z"/><path d="m133.905 144.064c1.238-.689 1.684-2.252.994-3.491-.689-1.239-2.253-1.684-3.491-.994-1.239.689-1.684 2.252-.995 3.491.69 1.239 2.253 1.684 3.492.994z"/><path d="m138.864 152.973c1.134-.632 1.542-2.064.91-3.198-.631-1.135-2.063-1.542-3.197-.911-1.135.632-1.543 2.063-.911 3.198.631 1.134 2.063 1.542 3.198.911z"/><path d="m143.828 161.891c1.036-.577 1.408-1.884.832-2.92-.577-1.036-1.884-1.408-2.92-.831-1.036.576-1.408 1.884-.832 2.919.577 1.036 1.884 1.409 2.92.832z"/><path d="m148.787 170.799c.932-.518 1.267-1.694.748-2.626s-1.695-1.267-2.626-.748c-.932.519-1.267 1.695-.748 2.626.518.932 1.694 1.267 2.626.748z"/><path d="m153.751 179.718c.833-.464 1.133-1.515.669-2.349-.464-.833-1.515-1.132-2.348-.668-.833.463-1.132 1.515-.669 2.348.464.833 1.515 1.132 2.348.669z"/><path d="m158.71 188.626c.729-.406.991-1.326.585-2.055-.405-.729-1.325-.991-2.054-.585s-.991 1.326-.585 2.055c.405.729 1.325.991 2.054.585z"/><path d="m163.669 197.534c.625-.347.85-1.136.502-1.761s-1.137-.849-1.761-.501c-.625.347-.85 1.136-.502 1.761s1.136.849 1.761.501z"/><path d="m168.634 206.453c.526-.293.715-.957.422-1.483-.293-.527-.957-.716-1.483-.423s-.715.957-.422 1.483c.292.526.956.715 1.483.423z"/><path d="m173.592 215.361c.423-.235.574-.768.339-1.19s-.767-.573-1.189-.338-.574.767-.339 1.189.767.574 1.189.339z"/><path d="m178.557 224.279c.323-.18.44-.588.259-.911-.18-.324-.588-.44-.911-.26s-.44.588-.26.912c.18.323.589.439.912.259z"/><path d="m71.1852 9.98619c.3233-.18001.4396-.58807.2595-.91144-.18-.32337-.588-.43959-.9114-.25958-.3234.18-.4396.58807-.2596.91144.18.32339.5881.43959.9115.25958z"/><path d="m76.3485 19.2617c.422-.2349.5737-.7674.3387-1.1895-.2349-.422-.7674-.5737-1.1895-.3387-.422.2349-.5737.7674-.3387 1.1895.2349.422.7674.5737 1.1895.3387z"/><path d="m81.5173 28.5472c.5261-.2929.7152-.9568.4223-1.483-.2928-.5262-.9568-.7153-1.483-.4224-.5261.2929-.7152.9569-.4223 1.483.2928.5262.9568.7153 1.483.4224z"/><path d="m86.6806 37.8228c.6248-.3478.8493-1.1363.5015-1.7611s-1.1362-.8494-1.7611-.5016c-.6248.3478-.8493 1.1363-.5015 1.7611s1.1362.8494 1.7611.5016z"/><path d="m91.8494 47.1083c.7289-.4058.9909-1.3257.5851-2.0546-.4057-.729-1.3256-.991-2.0546-.5852-.7289.4058-.9909 1.3256-.5851 2.0546.4058.7289 1.3256.9909 2.0546.5852z"/><path d="m97.0182 56.3937c.8331-.4637 1.1325-1.515.6687-2.3481-.4637-.8331-1.515-1.1325-2.3481-.6687-.833.4637-1.1325 1.515-.6687 2.3481.4637.8331 1.515 1.1325 2.3481.6687z"/><path d="m102.181 65.6693c.932-.5187 1.267-1.6945.748-2.6262-.518-.9317-1.694-1.2666-2.626-.7479-.9315.5186-1.2664 1.6944-.7477 2.6261.5187.9318 1.6947 1.2666 2.6257.748z"/><path d="m107.35 74.9548c1.036-.5767 1.408-1.8839.832-2.9197-.577-1.0359-1.884-1.4082-2.92-.8316s-1.408 1.8838-.831 2.9197c.576 1.0359 1.883 1.4082 2.919.8316z"/><path d="m112.514 84.2303c1.134-.6315 1.542-2.0632.91-3.1978-.631-1.1345-2.063-1.5422-3.197-.9107-1.135.6315-1.543 2.0632-.911 3.1978.631 1.1345 2.063 1.5422 3.198.9107z"/><path d="m117.682 93.5158c1.239-.6895 1.684-2.2526.995-3.4913-.69-1.2387-2.253-1.6838-3.492-.9943-1.238.6895-1.683 2.2526-.994 3.4913.69 1.2386 2.253 1.6838 3.491.9943z"/><path d="m122.851 102.801c1.343-.747 1.826-2.442 1.078-3.7845-.747-1.3428-2.442-1.8254-3.785-1.078-1.342.7475-1.825 2.4425-1.078 3.7845.748 1.343 2.442 1.826 3.785 1.078z"/><path d="m128.015 112.077c1.441-.803 1.959-2.622 1.157-4.063-.803-1.441-2.622-1.96-4.063-1.157-1.442.802-1.96 2.621-1.157 4.063.802 1.441 2.621 1.959 4.063 1.157z"/><path d="m133.078 121.174c1.442-.803 1.96-2.622 1.157-4.063-.802-1.442-2.621-1.96-4.062-1.157-1.442.802-1.96 2.621-1.157 4.063.802 1.441 2.621 1.959 4.062 1.157z"/><path d="m138.043 130.092c1.343-.747 1.825-2.442 1.078-3.785-.748-1.343-2.442-1.825-3.785-1.078-1.343.748-1.825 2.442-1.078 3.785s2.442 1.825 3.785 1.078z"/><path d="m143.002 139c1.238-.689 1.684-2.252.994-3.491-.689-1.239-2.253-1.684-3.491-.994-1.239.689-1.684 2.252-.995 3.491.69 1.239 2.253 1.684 3.492.994z"/><path d="m147.961 147.909c1.134-.632 1.542-2.063.91-3.198-.631-1.135-2.063-1.542-3.197-.911-1.135.632-1.543 2.063-.911 3.198.631 1.135 2.063 1.542 3.198.911z"/><path d="m152.925 156.827c1.036-.577 1.408-1.884.832-2.92-.577-1.036-1.884-1.408-2.92-.831-1.036.576-1.408 1.884-.832 2.92.577 1.035 1.884 1.408 2.92.831z"/><path d="m157.884 165.735c.932-.518 1.266-1.694.748-2.626-.519-.931-1.695-1.266-2.626-.748-.932.519-1.267 1.695-.748 2.626.518.932 1.694 1.267 2.626.748z"/><path d="m162.848 174.654c.833-.464 1.133-1.515.669-2.348s-1.515-1.133-2.348-.669-1.133 1.515-.669 2.348 1.515 1.132 2.348.669z"/><path d="m167.807 183.562c.729-.406.991-1.326.585-2.055-.405-.728-1.325-.99-2.054-.585-.729.406-.991 1.326-.585 2.055.405.729 1.325.991 2.054.585z"/><path d="m172.766 192.47c.625-.347.849-1.136.502-1.761-.348-.624-1.137-.849-1.761-.501-.625.348-.85 1.136-.502 1.761s1.136.849 1.761.501z"/><path d="m177.731 201.389c.526-.293.715-.957.422-1.483s-.957-.716-1.483-.423-.715.957-.423 1.483c.293.527.957.716 1.484.423z"/><path d="m182.689 210.297c.422-.235.574-.767.339-1.189s-.767-.574-1.189-.339-.574.767-.339 1.189.767.574 1.189.339z"/><path d="m187.654 219.215c.323-.18.439-.588.259-.911s-.588-.44-.911-.26-.44.588-.26.912c.18.323.588.439.912.259z"/><path d="m80.271 4.90249c.3124-.17391.4247-.56814.2508-.88055-.1739-.3124-.5681-.42468-.8805-.25078-.3124.17391-.4247.56814-.2508.88055.1739.3124.5681.42468.8805.25078z"/><path d="m85.4288 14.1681c.4056-.2258.5514-.7376.3256-1.1431-.2258-.4056-.7376-.5514-1.1432-.3256-.4056.2257-.5513.7376-.3256 1.1431.2258.4056.7376.5514 1.1432.3256z"/><path d="m90.5866 23.4337c.4987-.2776.678-.907.4003-1.4057-.2776-.4988-.907-.678-1.4057-.4004-.4988.2776-.678.907-.4004 1.4058.2776.4987.907.678 1.4058.4003z"/><path d="m95.7443 32.6994c.592-.3295.8047-1.0765.4752-1.6684-.3295-.592-1.0765-.8047-1.6684-.4752s-.8047 1.0765-.4752 1.6684 1.0765.8047 1.6684.4752z"/><path d="m100.902 41.965c.685-.3814.931-1.2459.55-1.931s-1.246-.9313-1.9309-.55c-.6852.3814-.9314 1.2459-.55 1.931s1.2459.9314 1.9309.55z"/><path d="m106.06 51.2306c.778-.4332 1.058-1.4153.625-2.1936-.434-.7783-1.416-1.058-2.194-.6248-.778.4333-1.058 1.4154-.625 2.1937s1.416 1.058 2.194.6247z"/><path d="m111.218 60.4963c.871-.4851 1.184-1.5848.699-2.4563-.485-.8714-1.585-1.1846-2.456-.6995-.872.4851-1.185 1.5848-.7 2.4562.485.8715 1.585 1.1847 2.457.6996z"/><path d="m116.375 69.7619c.965-.537 1.312-1.7543.775-2.7189s-1.754-1.3113-2.719-.7743c-.965.5369-1.311 1.7542-.774 2.7188.536.9647 1.754 1.3114 2.718.7744z"/><path d="m121.533 79.0275c1.058-.5888 1.438-1.9237.849-2.9815s-1.923-1.4379-2.981-.8491-1.438 1.9237-.849 2.9815 1.923 1.4379 2.981.8491z"/><path d="m126.691 88.2931c1.151-.6406 1.565-2.0931.924-3.244-.641-1.151-2.093-1.5647-3.244-.924s-1.565 2.0931-.924 3.2441 2.093 1.5646 3.244.9239z"/><path d="m131.854 97.5687c1.25-.6956 1.699-2.2725 1.003-3.5222-.695-1.2496-2.272-1.6987-3.522-1.0031-1.249.6956-1.699 2.2725-1.003 3.5222.696 1.2496 2.273 1.6987 3.522 1.0031z"/><path d="m137.012 106.834c1.343-.747 1.825-2.442 1.078-3.784-.748-1.343-2.442-1.826-3.785-1.078-1.343.747-1.825 2.442-1.078 3.784.748 1.343 2.442 1.826 3.785 1.078z"/><path d="m142.076 115.931c1.343-.747 1.825-2.442 1.078-3.785-.748-1.342-2.442-1.825-3.785-1.077-1.343.747-1.825 2.442-1.078 3.784.748 1.343 2.442 1.826 3.785 1.078z"/><path d="m147.046 124.859c1.249-.695 1.699-2.272 1.003-3.522-.696-1.249-2.273-1.698-3.522-1.003-1.25.696-1.699 2.273-1.003 3.522.695 1.25 2.272 1.699 3.522 1.003z"/><path d="m152.01 133.778c1.151-.641 1.565-2.093.924-3.244s-2.093-1.565-3.244-.924c-1.151.64-1.565 2.093-.924 3.244s2.093 1.564 3.244.924z"/><path d="m156.98 142.706c1.058-.589 1.438-1.924.849-2.982-.589-1.057-1.923-1.437-2.981-.849-1.058.589-1.438 1.924-.849 2.982s1.923 1.438 2.981.849z"/><path d="m161.95 151.634c.965-.537 1.311-1.754.774-2.719-.537-.964-1.754-1.311-2.718-.774-.965.537-1.312 1.754-.775 2.719.537.964 1.754 1.311 2.719.774z"/><path d="m166.92 160.562c.871-.485 1.185-1.584.7-2.456-.486-.871-1.585-1.184-2.457-.699-.871.485-1.184 1.584-.699 2.456.485.871 1.585 1.184 2.456.699z"/><path d="m171.89 169.491c.778-.434 1.058-1.416.625-2.194-.434-.778-1.416-1.058-2.194-.625s-1.058 1.416-.625 2.194c.434.778 1.416 1.058 2.194.625z"/><path d="m176.86 178.419c.685-.382.931-1.246.55-1.931s-1.246-.932-1.931-.55c-.685.381-.931 1.246-.55 1.931s1.246.931 1.931.55z"/><path d="m181.83 187.347c.592-.329.805-1.076.475-1.668-.329-.592-1.076-.805-1.668-.476-.592.33-.805 1.077-.476 1.669.33.592 1.077.805 1.669.475z"/><path d="m186.8 196.275c.499-.277.678-.907.4-1.406-.277-.498-.907-.678-1.406-.4-.498.278-.678.907-.4 1.406s.907.678 1.406.4z"/><path d="m191.77 205.203c.405-.225.551-.737.325-1.143-.225-.405-.737-.551-1.143-.325-.405.226-.551.737-.325 1.143.225.405.737.551 1.143.325z"/><path d="m196.74 214.132c.312-.174.424-.568.25-.881-.173-.312-.568-.425-.88-.251s-.425.569-.251.881.568.425.881.251z"/><path d="m89.3624-.171294c.307-.170853.4173-.558166.2464-.865096-.1708-.30692-.5581-.41723-.8651-.24638-.3069.17085-.4172.558164-.2463.865091.1708.306926.5581.41723788.865.246385z"/><path d="m94.5092 9.07449c.3891-.21662.5289-.70768.3123-1.09682-.2166-.38913-.7076-.52899-1.0968-.31238-.3891.21662-.529.70768-.3124 1.09682.2167.38914.7077.529 1.0969.31238z"/><path d="m99.6559 18.3203c.4711-.2624.6411-.8572.3781-1.3286-.2621-.4713-.8569-.6407-1.3283-.3783-.4713.2623-.6407.8571-.3784 1.3285.2624.4713.8572.6407 1.3286.3784z"/><path d="m104.808 27.576c.559-.3112.76-1.0167.449-1.5757-.311-.5591-1.017-.76-1.576-.4488s-.76 1.0167-.449 1.5757c.312.559 1.017.76 1.576.4488z"/><path d="m109.96 36.8317c.647-.36.88-1.1762.52-1.8229s-1.177-.8792-1.823-.5192c-.647.36-.88 1.1762-.52 1.8229.36.6468 1.177.8792 1.823.5192z"/><path d="m115.107 46.0775c.729-.4058.991-1.3257.585-2.0546-.406-.729-1.325-.991-2.054-.5852s-.991 1.3257-.586 2.0546c.406.729 1.326.9909 2.055.5852z"/><path d="m120.259 55.3332c.817-.4546 1.11-1.4852.656-2.3018-.455-.8166-1.485-1.1101-2.302-.6556-.817.4546-1.11 1.4852-.655 2.3018.454.8167 1.485 1.1102 2.301.6556z"/><path d="m125.406 64.5789c.899-.5003 1.222-1.6346.722-2.5334-.501-.8989-1.635-1.222-2.534-.7216s-1.222 1.6346-.721 2.5335c.5.8989 1.634 1.2219 2.533.7215z"/><path d="m130.558 73.8347c.987-.5492 1.341-1.7942.792-2.7807-.549-.9866-1.794-1.3411-2.78-.792-.987.5492-1.342 1.7942-.792 2.7807.549.9866 1.794 1.3411 2.78.792z"/><path d="m135.705 83.0804c1.069-.5949 1.453-1.9436.858-3.0123-.595-1.0688-1.944-1.4529-3.012-.858-1.069.5949-1.453 1.9436-.858 3.0124s1.943 1.4529 3.012.8579z"/><path d="m140.857 92.3361c1.157-.6437 1.572-2.1031.929-3.2595-.644-1.1565-2.104-1.5721-3.26-.9284-1.156.6438-1.572 2.1031-.928 3.2596.643 1.1565 2.103 1.5721 3.259.9283z"/><path d="m146.004 101.582c1.239-.69 1.684-2.2527.994-3.4914-.689-1.2386-2.252-1.6838-3.491-.9943s-1.684 2.2526-.994 3.4917c.689 1.238 2.252 1.683 3.491.994z"/><path d="m151.068 110.679c1.238-.69 1.684-2.253.994-3.491-.689-1.239-2.252-1.684-3.491-.995-1.239.69-1.684 2.253-.994 3.492.689 1.238 2.252 1.683 3.491.994z"/><path d="m156.049 119.627c1.156-.644 1.572-2.103.928-3.26-.644-1.156-2.103-1.572-3.259-.928-1.157.644-1.572 2.103-.929 3.26.644 1.156 2.103 1.572 3.26.928z"/><path d="m161.024 128.565c1.069-.595 1.453-1.944.858-3.012-.595-1.069-1.943-1.453-3.012-.858s-1.453 1.943-.858 3.012 1.944 1.453 3.012.858z"/><path d="m166.005 137.513c.987-.549 1.341-1.794.792-2.781-.549-.986-1.794-1.341-2.78-.791-.987.549-1.342 1.794-.792 2.78.549.987 1.794 1.341 2.78.792z"/><path d="m170.981 146.451c.899-.5 1.222-1.634.721-2.533-.5-.899-1.634-1.222-2.533-.722-.899.501-1.222 1.635-.722 2.534.501.899 1.635 1.222 2.534.721z"/><path d="m175.962 155.399c.816-.454 1.11-1.485.655-2.301-.454-.817-1.485-1.111-2.301-.656-.817.455-1.111 1.485-.656 2.302.455.816 1.485 1.11 2.302.655z"/><path d="m180.937 164.337c.729-.405.991-1.325.585-2.054-.405-.729-1.325-.991-2.054-.585-.729.405-.991 1.325-.585 2.054.405.729 1.325.991 2.054.585z"/><path d="m185.918 173.286c.647-.36.879-1.177.519-1.823-.36-.647-1.176-.88-1.823-.52-.646.36-.879 1.177-.519 1.823.36.647 1.176.88 1.823.52z"/><path d="m190.894 182.224c.559-.312.76-1.017.448-1.576-.311-.559-1.016-.76-1.575-.449s-.76 1.017-.449 1.576 1.017.76 1.576.449z"/><path d="m195.869 191.162c.471-.263.641-.857.378-1.329-.262-.471-.857-.64-1.328-.378s-.641.857-.378 1.328c.262.472.857.641 1.328.379z"/><path d="m200.85 200.11c.389-.217.529-.708.312-1.097-.216-.389-.707-.529-1.096-.312-.389.216-.529.707-.313 1.096.217.39.708.529 1.097.313z"/><path d="m205.831 209.058c.307-.171.417-.558.246-.865-.17-.307-.558-.417-.865-.247-.307.171-.417.559-.246.866.171.306.558.417.865.246z"/><path d="m103.59 3.98087c.372-.20747.506-.67778.299-1.05048-.208-.3727-.678-.50664-1.051-.29918-.372.20747-.506.67778-.299 1.05047.207.3727.678.50665 1.051.29919z"/><path d="m108.731 13.2167c.449-.2502.611-.8173.36-1.2667-.25-.4495-.817-.611-1.266-.3608-.45.2502-.611.8173-.361 1.2667.25.4495.817.611 1.267.3608z"/><path d="m113.872 22.4526c.526-.2929.715-.9569.422-1.483-.293-.5262-.957-.7153-1.483-.4224s-.715.9568-.422 1.483.957.7153 1.483.4224z"/><path d="m119.013 31.6884c.603-.3356.82-1.0964.484-1.6993s-1.096-.8195-1.699-.4839-.82 1.0964-.484 1.6993c.335.6029 1.096.8195 1.699.4839z"/><path d="m124.154 40.9243c.68-.3783.924-1.236.546-1.9156s-1.236-.9238-1.916-.5455c-.679.3783-.924 1.2359-.545 1.9155.378.6797 1.236.9239 1.915.5456z"/><path d="m129.295 50.1602c.757-.4211 1.029-1.3755.608-2.1319-.421-.7563-1.376-1.0282-2.132-.6071-.757.421-1.028 1.3754-.607 2.1318.421.7563 1.375 1.0282 2.131.6072z"/><path d="m134.437 59.396c.833-.4637 1.132-1.515.668-2.3481-.463-.8331-1.515-1.1325-2.348-.6688-.833.4638-1.132 1.5151-.668 2.3482.463.833 1.515 1.1324 2.348.6687z"/><path d="m139.578 68.6319c.91-.5065 1.237-1.6546.73-2.5644-.506-.9098-1.654-1.2368-2.564-.7304-.91.5065-1.237 1.6546-.731 2.5644.507.9098 1.655 1.2368 2.565.7304z"/><path d="m144.719 77.8677c.987-.5491 1.341-1.7941.792-2.7806-.549-.9866-1.794-1.3412-2.781-.792-.986.5492-1.341 1.7941-.792 2.7807.55.9865 1.794 1.3411 2.781.7919z"/><path d="m149.855 87.0937c1.058-.5889 1.438-1.9237.849-2.9815s-1.924-1.438-2.982-.8492c-1.057.5889-1.438 1.9237-.849 2.9815s1.924 1.438 2.982.8492z"/><path d="m154.996 96.3295c1.134-.6315 1.542-2.0632.911-3.1978-.632-1.1345-2.064-1.5422-3.198-.9107-1.135.6316-1.542 2.0632-.911 3.1978.632 1.1345 2.063 1.5423 3.198.9107z"/><path d="m160.06 105.426c1.134-.631 1.542-2.063.911-3.197-.632-1.135-2.064-1.543-3.198-.911-1.135.631-1.543 2.063-.911 3.198.632 1.134 2.063 1.542 3.198.91z"/><path d="m165.046 114.384c1.058-.588 1.438-1.923.849-2.981-.588-1.058-1.923-1.438-2.981-.849s-1.438 1.923-.849 2.981 1.923 1.438 2.981.849z"/><path d="m170.038 123.352c.987-.549 1.341-1.794.792-2.78-.549-.987-1.794-1.341-2.78-.792-.987.549-1.341 1.794-.792 2.78.549.987 1.794 1.341 2.78.792z"/><path d="m175.025 132.31c.91-.506 1.237-1.654.73-2.564-.506-.91-1.654-1.237-2.564-.73-.91.506-1.237 1.654-.731 2.564.507.91 1.655 1.237 2.565.73z"/><path d="m180.011 141.268c.833-.463 1.133-1.515.669-2.348s-1.515-1.132-2.348-.669c-.833.464-1.132 1.515-.669 2.349.464.833 1.515 1.132 2.348.668z"/><path d="m184.998 150.226c.756-.421 1.028-1.375.607-2.132-.421-.756-1.375-1.028-2.132-.607-.756.421-1.028 1.376-.607 2.132s1.376 1.028 2.132.607z"/><path d="m189.984 159.184c.68-.378.924-1.236.546-1.915-.378-.68-1.236-.924-1.916-.546-.679.378-.923 1.236-.545 1.916.378.679 1.236.924 1.915.545z"/><path d="m194.971 168.142c.603-.335.819-1.096.484-1.699-.336-.603-1.097-.82-1.699-.484-.603.336-.82 1.096-.484 1.699.335.603 1.096.82 1.699.484z"/><path d="m199.957 177.1c.527-.293.716-.957.423-1.483s-.957-.715-1.483-.422-.715.957-.423 1.483c.293.526.957.715 1.483.422z"/><path d="m204.944 186.058c.449-.25.611-.817.361-1.267-.25-.449-.818-.61-1.267-.36s-.611.817-.361 1.266c.25.45.818.611 1.267.361z"/><path d="m209.93 195.016c.373-.207.507-.678.3-1.05-.208-.373-.678-.507-1.051-.299-.373.207-.506.677-.299 1.05s.678.507 1.05.299z"/><path d="m112.67-1.11276c.356-.19831.484-.64788.286-1.00413s-.648-.48429-1.004-.28598c-.357.19831-.485.64787-.286 1.00412.198.35625.648.484297 1.004.28599z"/><path d="m117.8 8.10325c.422-.23492.574-.76749.339-1.18951-.235-.42203-.768-.5737-1.19-.33878-.422.23493-.573.76749-.339 1.18951.235.42202.768.5737 1.19.33878z"/><path d="m122.936 17.3292c.493-.2746.67-.8971.396-1.3903-.275-.4933-.897-.6706-1.391-.396-.493.2746-.67.897-.396 1.3903.275.4933.897.6706 1.391.396z"/><path d="m128.066 26.5452c.559-.3112.76-1.0167.449-1.5757-.312-.5591-1.017-.76-1.576-.4488s-.76 1.0167-.449 1.5757c.311.5591 1.017.76 1.576.4488z"/><path d="m133.196 35.7612c.625-.3478.849-1.1363.502-1.7611-.348-.6248-1.137-.8494-1.762-.5016-.624.3479-.849 1.1363-.501 1.7611s1.136.8494 1.761.5016z"/><path d="m138.332 44.9871c.696-.3874.946-1.2658.558-1.9619-.387-.696-1.265-.9462-1.962-.5587-.696.3874-.946 1.2658-.558 1.9619.387.696 1.266.9462 1.962.5587z"/><path d="m143.462 54.2031c.762-.424 1.035-1.3854.611-2.1472-.424-.7619-1.385-1.0357-2.147-.6116s-1.036 1.3855-.612 2.1473c.425.7618 1.386 1.0356 2.148.6115z"/><path d="m148.597 63.4291c.834-.4638 1.133-1.5151.669-2.3481-.464-.8331-1.515-1.1325-2.348-.6688s-1.132 1.515-.669 2.3481c.464.8331 1.515 1.1325 2.348.6688z"/><path d="m153.728 72.6451c.898-.5004 1.221-1.6346.721-2.5335s-1.634-1.2219-2.533-.7216c-.899.5004-1.222 1.6347-.722 2.5335.5.8989 1.635 1.2219 2.534.7216z"/><path d="m158.858 81.8611c.964-.537 1.311-1.7543.774-2.7189s-1.754-1.3113-2.719-.7743c-.964.5369-1.311 1.7542-.774 2.7188.537.9647 1.754 1.3114 2.719.7744z"/><path d="m163.993 91.087c1.036-.5766 1.409-1.8838.832-2.9197-.577-1.0358-1.884-1.4081-2.92-.8315s-1.408 1.8838-.831 2.9197c.576 1.0359 1.884 1.4081 2.919.8315z"/><path d="m169.057 100.184c1.036-.5767 1.408-1.8839.832-2.9197-.577-1.0359-1.884-1.4082-2.92-.8316s-1.408 1.8838-.831 2.9197c.576 1.0356 1.883 1.4086 2.919.8316z"/><path d="m174.049 109.152c.965-.537 1.312-1.754.775-2.719s-1.755-1.311-2.719-.774c-.965.537-1.312 1.754-.775 2.719.537.964 1.755 1.311 2.719.774z"/><path d="m179.047 118.13c.899-.501 1.222-1.635.721-2.534-.5-.899-1.634-1.222-2.533-.721-.899.5-1.222 1.634-.722 2.533.501.899 1.635 1.222 2.534.722z"/><path d="m184.044 127.108c.834-.464 1.133-1.515.669-2.349-.464-.833-1.515-1.132-2.348-.668-.833.463-1.132 1.515-.669 2.348.464.833 1.515 1.132 2.348.669z"/><path d="m189.036 136.075c.762-.424 1.036-1.385.612-2.147s-1.385-1.035-2.147-.611-1.036 1.385-.612 2.147 1.386 1.036 2.147.611z"/><path d="m194.034 145.053c.696-.387.946-1.266.559-1.962-.388-.696-1.266-.946-1.962-.558-.696.387-.946 1.265-.559 1.962.388.696 1.266.946 1.962.558z"/><path d="m199.026 154.021c.625-.348.849-1.136.502-1.761-.348-.625-1.137-.849-1.761-.501-.625.347-.85 1.136-.502 1.761.348.624 1.136.849 1.761.501z"/><path d="m204.024 162.999c.559-.311.76-1.017.448-1.576-.311-.559-1.016-.76-1.575-.448-.559.311-.76 1.016-.449 1.575s1.017.76 1.576.449z"/><path d="m209.021 171.977c.493-.275.671-.897.396-1.39-.274-.494-.897-.671-1.39-.396-.493.274-.671.897-.396 1.39.274.493.897.67 1.39.396z"/><path d="m214.013 180.945c.422-.235.574-.768.339-1.19s-.767-.573-1.189-.338c-.422.234-.574.767-.339 1.189s.767.574 1.189.339z"/><path d="m219.011 189.923c.356-.199.484-.648.286-1.005-.199-.356-.648-.484-1.004-.285-.357.198-.485.647-.286 1.004.198.356.648.484 1.004.286z"/><path d="m121.75-6.20639c.34-.18916.462-.61797.273-.95778s-.618-.46195-.958-.27279-.462.61798-.273.95779c.19.33981.618.46194.958.27278z"/><path d="m126.875 2.99969c.4-.22272.544-.72761.321-1.12771s-.728-.5439-1.128-.32118-.544.72762-.321 1.12772.728.54389 1.128.32117z"/><path d="m131.994 12.1959c.455-.2533.618-.8273.365-1.2822-.253-.455-.827-.6184-1.282-.3652s-.618.8273-.365 1.2822.827.6184 1.282.3652z"/><path d="m137.119 21.4019c.515-.2867.7-.9369.413-1.4521s-.937-.7003-1.452-.4136c-.515.2868-.7.937-.414 1.4522.287.5152.937.7003 1.453.4135z"/><path d="m142.243 30.608c.576-.3203.782-1.0465.462-1.622s-1.046-.7823-1.622-.462c-.575.3204-.782 1.0466-.462 1.6221.32.5754 1.047.7823 1.622.4619z"/><path d="m147.368 39.8141c.636-.3539.864-1.1562.51-1.792-.354-.6357-1.156-.8642-1.792-.5103s-.864 1.1562-.51 1.7919c.354.6358 1.156.8643 1.792.5104z"/><path d="m152.492 49.0202c.696-.3875.947-1.2658.559-1.9619-.387-.6961-1.266-.9462-1.962-.5588-.696.3875-.946 1.2659-.559 1.9619.388.6961 1.266.9463 1.962.5588z"/><path d="m157.617 58.2263c.756-.421 1.028-1.3755.607-2.1319-.421-.7563-1.375-1.0281-2.132-.6071-.756.421-1.028 1.3755-.607 2.1318.421.7564 1.376 1.0282 2.132.6072z"/><path d="m162.742 67.4324c.816-.4546 1.11-1.4852.655-2.3018-.454-.8166-1.485-1.1101-2.302-.6556-.816.4546-1.11 1.4852-.655 2.3018.454.8167 1.485 1.1102 2.302.6556z"/><path d="m167.861 76.6285c.871-.4851 1.184-1.5848.699-2.4562-.485-.8715-1.584-1.1847-2.456-.6996-.871.4851-1.185 1.5848-.7 2.4563.486.8714 1.585 1.1846 2.457.6995z"/><path d="m172.985 85.8346c.932-.5186 1.267-1.6944.748-2.6262-.518-.9317-1.694-1.2666-2.626-.7479-.932.5186-1.266 1.6944-.748 2.6262.519.9317 1.695 1.2666 2.626.7479z"/><path d="m178.049 94.9315c.932-.5186 1.267-1.6944.748-2.6261-.518-.9318-1.694-1.2667-2.626-.748s-1.267 1.6945-.748 2.6262 1.694 1.2666 2.626.7479z"/><path d="m183.052 103.919c.872-.485 1.185-1.585.7-2.456s-1.585-1.185-2.456-.7c-.872.486-1.185 1.585-.7 2.457.485.871 1.585 1.184 2.456.699z"/><path d="m188.061 112.917c.817-.455 1.11-1.485.655-2.302-.454-.816-1.485-1.11-2.301-.655-.817.454-1.11 1.485-.656 2.301.455.817 1.485 1.111 2.302.656z"/><path d="m193.064 121.905c.756-.421 1.028-1.376.607-2.132s-1.375-1.028-2.132-.607c-.756.421-1.028 1.375-.607 2.132.421.756 1.376 1.028 2.132.607z"/><path d="m198.067 130.893c.696-.388.946-1.266.559-1.962-.388-.696-1.266-.947-1.962-.559-.696.387-.946 1.266-.559 1.962.388.696 1.266.946 1.962.559z"/><path d="m203.07 139.88c.636-.354.864-1.156.511-1.792-.354-.635-1.157-.864-1.792-.51-.636.354-.865 1.156-.511 1.792s1.156.864 1.792.51z"/><path d="m208.073 148.868c.576-.32.783-1.047.462-1.622-.32-.576-1.046-.782-1.622-.462-.575.32-.782 1.047-.462 1.622.321.576 1.047.782 1.622.462z"/><path d="m213.076 157.856c.516-.287.701-.937.414-1.452-.287-.516-.937-.701-1.452-.414s-.701.937-.414 1.452.937.701 1.452.414z"/><path d="m218.079 166.844c.455-.254.619-.828.366-1.283-.254-.455-.828-.618-1.283-.365-.454.253-.618.827-.365 1.282s.828.619 1.282.366z"/><path d="m223.088 175.841c.4-.223.544-.727.321-1.128-.222-.4-.727-.543-1.127-.321-.401.223-.544.728-.322 1.128.223.4.728.544 1.128.321z"/><path d="m228.091 184.829c.34-.189.462-.618.273-.958s-.618-.462-.958-.273c-.34.19-.462.618-.273.958.19.34.618.462.958.273z"/><path d="m135.944-2.11378c.373-.20746.507-.67778.299-1.05047-.207-.3727-.677-.50664-1.05-.29918s-.507.67777-.299 1.05047c.207.37269.677.50665 1.05.29918z"/><path d="m141.058 7.07246c.422-.23492.573-.76748.338-1.18951-.234-.42202-.767-.57369-1.189-.33877s-.574.76747-.339 1.18949c.235.42203.768.57371 1.19.33879z"/><path d="m146.177 16.2686c.477-.2654.648-.8671.383-1.344-.266-.4768-.868-.6482-1.344-.3827-.477.2654-.649.8671-.383 1.3439.265.4769.867.6483 1.344.3828z"/><path d="m151.29 25.4549c.527-.2929.716-.9569.423-1.4831-.293-.5261-.957-.7152-1.483-.4223s-.716.9568-.423 1.483c.293.5261.957.7153 1.483.4224z"/><path d="m156.404 34.6411c.575-.3203.782-1.0466.462-1.6221-.32-.5754-1.047-.7823-1.622-.4619-.576.3203-.782 1.0465-.462 1.622s1.046.7824 1.622.462z"/><path d="m161.518 43.8273c.624-.3478.849-1.1362.501-1.7611-.348-.6248-1.136-.8493-1.761-.5015s-.849 1.1363-.502 1.7611c.348.6248 1.137.8493 1.762.5015z"/><path d="m166.637 53.0235c.679-.3783.923-1.236.545-1.9156s-1.236-.9238-1.915-.5455c-.68.3783-.924 1.2359-.546 1.9155s1.236.9239 1.916.5456z"/><path d="m171.75 62.2097c.729-.4057.991-1.3256.585-2.0546-.405-.7289-1.325-.9909-2.054-.5851s-.991 1.3256-.585 2.0546c.405.7289 1.325.9909 2.054.5851z"/><path d="m176.864 71.396c.778-.4333 1.058-1.4154.625-2.1937-.434-.7782-1.416-1.0579-2.194-.6247s-1.058 1.4153-.625 2.1936 1.415 1.058 2.194.6248z"/><path d="m181.983 80.5921c.833-.4637 1.132-1.515.669-2.3481-.464-.8331-1.515-1.1325-2.349-.6687-.833.4637-1.132 1.515-.668 2.3481.463.8331 1.515 1.1325 2.348.6687z"/><path d="m187.047 89.6891c.833-.4638 1.132-1.5151.668-2.3482-.463-.833-1.515-1.1325-2.348-.6687-.833.4637-1.132 1.515-.668 2.3481.463.8331 1.515 1.1325 2.348.6688z"/><path d="m192.055 98.6867c.779-.4332 1.058-1.4153.625-2.1936s-1.415-1.058-2.194-.6247c-.778.4332-1.058 1.4153-.624 2.1936.433.7783 1.415 1.058 2.193.6247z"/><path d="m197.069 107.694c.729-.405.991-1.325.586-2.054-.406-.729-1.326-.991-2.055-.585-.729.405-.991 1.325-.585 2.054s1.326.991 2.054.585z"/><path d="m202.084 116.702c.679-.378.923-1.236.545-1.916-.378-.679-1.236-.923-1.915-.545-.68.378-.924 1.236-.546 1.915.378.68 1.236.924 1.916.546z"/><path d="m207.092 125.7c.625-.348.85-1.137.502-1.761-.348-.625-1.136-.85-1.761-.502s-.85 1.136-.502 1.761 1.136.849 1.761.502z"/><path d="m212.106 134.707c.576-.32.783-1.046.462-1.622-.32-.575-1.046-.782-1.622-.462-.575.321-.782 1.047-.462 1.622.321.576 1.047.783 1.622.462z"/><path d="m217.12 143.715c.527-.293.716-.957.423-1.483s-.957-.715-1.483-.423c-.526.293-.715.957-.423 1.483.293.527.957.716 1.483.423z"/><path d="m222.135 152.722c.476-.265.648-.867.382-1.344-.265-.476-.867-.648-1.344-.382-.476.265-.648.867-.382 1.344.265.477.867.648 1.344.382z"/><path d="m227.143 161.72c.422-.235.574-.767.339-1.189s-.767-.574-1.19-.339c-.422.235-.573.767-.338 1.189s.767.574 1.189.339z"/><path d="m232.157 170.728c.373-.208.507-.678.3-1.051-.208-.372-.678-.506-1.051-.299-.373.208-.507.678-.299 1.051.207.372.678.506 1.05.299z"/><path d="m150.121 1.94906c.39-.21661.529-.70768.313-1.096822-.217-.389138-.708-.528991-1.097-.312374-.389.216615-.529.707676-.312 1.096816.216.38914.707.529 1.096.31238z"/><path d="m155.23 11.1254c.433-.241.588-.7874.347-1.22042-.241-.43299-.787-.58861-1.22-.34758-.433.24102-.589.7874-.348 1.2204s.788.5886 1.221.3476z"/><path d="m160.338 20.3017c.476-.2654.648-.8672.382-1.344-.265-.4768-.867-.6482-1.344-.3828-.476.2655-.648.8672-.382 1.344.265.4768.867.6482 1.344.3828z"/><path d="m165.44 29.4681c.515-.2868.7-.937.414-1.4521-.287-.5152-.937-.7004-1.452-.4136-.516.2868-.701.9369-.414 1.4521s.937.7004 1.452.4136z"/><path d="m170.548 38.6444c.559-.3112.76-1.0167.449-1.5757-.311-.5591-1.017-.76-1.576-.4488s-.76 1.0167-.449 1.5757c.312.5591 1.017.76 1.576.4488z"/><path d="m175.656 47.8207c.603-.3356.82-1.0964.484-1.6993-.335-.6029-1.096-.8196-1.699-.484s-.82 1.0965-.484 1.6993c.336.6029 1.096.8196 1.699.484z"/><path d="m180.764 56.997c.647-.36.879-1.1761.519-1.8229-.36-.6467-1.176-.8791-1.822-.5191-.647.36-.88 1.1761-.52 1.8229.36.6467 1.177.8791 1.823.5191z"/><path d="m185.867 66.1634c.685-.3814.931-1.2459.55-1.931-.382-.6851-1.246-.9313-1.931-.55-.685.3814-.932 1.2459-.55 1.931.381.6851 1.246.9314 1.931.55z"/><path d="m190.975 75.3397c.729-.4058.991-1.3256.585-2.0546-.406-.7289-1.326-.9909-2.055-.5851-.729.4057-.991 1.3256-.585 2.0546.406.7289 1.326.9909 2.055.5851z"/><path d="m196.039 84.4366c.729-.4057.991-1.3256.585-2.0546-.406-.7289-1.326-.9909-2.055-.5851s-.991 1.3256-.585 2.0546c.406.7289 1.326.9909 2.055.5851z"/><path d="m201.058 93.4542c.685-.3814.932-1.2459.55-1.931-.381-.6851-1.246-.9314-1.931-.55s-.931 1.2459-.55 1.931c.382.6851 1.246.9313 1.931.55z"/><path d="m206.084 102.482c.646-.36.879-1.176.519-1.823s-1.176-.8794-1.823-.519c-.647.36-.879 1.176-.519 1.822.36.647 1.176.88 1.823.52z"/><path d="m211.103 111.499c.603-.335.82-1.096.484-1.699-.335-.603-1.096-.82-1.699-.484s-.82 1.096-.484 1.699c.335.603 1.096.82 1.699.484z"/><path d="m216.123 120.517c.559-.311.76-1.017.449-1.576-.312-.559-1.017-.76-1.576-.449s-.76 1.017-.449 1.576 1.017.76 1.576.449z"/><path d="m221.143 129.534c.515-.287.7-.937.413-1.452s-.937-.7-1.452-.413c-.515.286-.7.936-.414 1.452.287.515.937.7 1.453.413z"/><path d="m226.168 138.562c.477-.266.648-.867.382-1.344-.265-.477-.867-.649-1.344-.383-.476.265-.648.867-.382 1.344.265.477.867.648 1.344.383z"/><path d="m231.187 147.579c.433-.241.589-.787.348-1.22s-.787-.589-1.22-.348-.589.788-.348 1.221.787.588 1.22.347z"/><path d="m236.207 156.597c.389-.217.529-.708.312-1.097-.216-.389-.707-.529-1.096-.312-.39.216-.529.707-.313 1.096.217.39.708.529 1.097.313z"/><path d="m164.282 5.98213c.389-.21662.529-.70767.313-1.09681-.217-.38914-.708-.529-1.097-.31239-.389.21662-.529.70768-.313 1.09682.217.38914.708.52899 1.097.31238z"/><path d="m169.379 15.1386c.422-.2349.574-.7675.339-1.1895s-.767-.5737-1.189-.3388-.574.7675-.339 1.1895.767.5737 1.189.3388z"/><path d="m174.476 24.2951c.455-.2533.619-.8273.365-1.2822-.253-.4549-.827-.6184-1.282-.3652s-.618.8273-.365 1.2822.827.6184 1.282.3652z"/><path d="m179.579 33.4614c.493-.2745.67-.897.396-1.3903-.275-.4933-.897-.6705-1.391-.396-.493.2746-.67.8971-.396 1.3904.275.4933.898.6705 1.391.3959z"/><path d="m184.676 42.6179c.526-.2929.715-.9568.422-1.483s-.957-.7153-1.483-.4224-.715.9569-.422 1.483c.293.5262.957.7153 1.483.4224z"/><path d="m189.773 51.7744c.559-.3112.76-1.0167.449-1.5757-.312-.5591-1.017-.76-1.576-.4488s-.76 1.0167-.449 1.5757c.311.5591 1.017.76 1.576.4488z"/><path d="m194.87 60.9308c.592-.3295.804-1.0764.475-1.6683-.33-.592-1.077-.8047-1.668-.4752-.592.3295-.805 1.0764-.476 1.6684.33.5919 1.077.8046 1.669.4751z"/><path d="m199.967 70.0873c.625-.3478.849-1.1363.501-1.7611-.347-.6248-1.136-.8493-1.761-.5015s-.849 1.1362-.501 1.761c.348.6249 1.136.8494 1.761.5016z"/><path d="m205.031 79.1842c.624-.3478.849-1.1362.501-1.761-.348-.6249-1.136-.8494-1.761-.5016s-.849 1.1363-.501 1.7611c.347.6248 1.136.8493 1.761.5015z"/><path d="m210.061 88.2216c.592-.3295.805-1.0765.476-1.6684-.33-.5919-1.077-.8047-1.669-.4752s-.805 1.0765-.475 1.6684c.329.592 1.076.8047 1.668.4752z"/><path d="m215.092 97.259c.559-.3112.76-1.0167.449-1.5757s-1.017-.76-1.576-.4488-.76 1.0167-.449 1.5757c.312.5591 1.017.76 1.576.4488z"/><path d="m220.123 106.296c.526-.293.715-.956.422-1.483-.293-.526-.957-.715-1.483-.422s-.715.957-.422 1.483.957.715 1.483.422z"/><path d="m225.153 115.334c.494-.275.671-.897.396-1.391-.274-.493-.897-.67-1.39-.396-.493.275-.67.898-.396 1.391.275.493.897.67 1.39.396z"/><path d="m230.179 124.361c.455-.253.618-.827.365-1.282s-.827-.618-1.282-.365-.619.827-.366 1.282c.254.455.828.618 1.283.365z"/><path d="m235.209 133.399c.422-.235.574-.768.339-1.19s-.767-.574-1.189-.339-.574.768-.339 1.19.767.574 1.189.339z"/><path d="m240.24 142.436c.389-.217.529-.708.312-1.097-.216-.389-.707-.529-1.096-.312-.389.216-.529.707-.313 1.097.217.389.708.529 1.097.312z"/><path d="m178.426 9.98543c.373-.20747.507-.67778.3-1.05048-.208-.3727-.678-.50664-1.051-.29917-.373.20746-.506.67777-.299 1.05047.207.37265.678.50665 1.05.29918z"/><path d="m183.518 19.132c.4-.2227.544-.7276.321-1.1278-.223-.4001-.727-.5438-1.128-.3211-.4.2227-.544.7276-.321 1.1277s.728.5439 1.128.3212z"/><path d="m188.604 28.2686c.422-.2349.574-.7675.339-1.1895s-.768-.5737-1.19-.3388-.574.7675-.339 1.1895.768.5737 1.19.3388z"/><path d="m193.695 37.4151c.45-.2502.611-.8173.361-1.2667s-.817-.611-1.267-.3608c-.449.2502-.611.8173-.36 1.2667.25.4495.817.611 1.266.3608z"/><path d="m198.787 46.5617c.477-.2655.648-.8672.383-1.344-.266-.4768-.868-.6482-1.344-.3828-.477.2654-.649.8672-.383 1.344.265.4768.867.6482 1.344.3828z"/><path d="m203.873 55.6983c.499-.2776.678-.907.4-1.4058-.277-.4987-.907-.678-1.406-.4004-.498.2777-.678.9071-.4 1.4058.278.4988.907.678 1.406.4004z"/><path d="m208.964 64.8448c.526-.2929.716-.9568.423-1.483s-.957-.7152-1.483-.4224c-.527.2929-.716.9569-.423 1.4831.293.5261.957.7152 1.483.4223z"/><path d="m214.028 73.9418c.526-.2929.715-.9569.422-1.4831-.292-.5261-.956-.7152-1.483-.4223-.526.2929-.715.9568-.422 1.483.293.5261.957.7152 1.483.4224z"/><path d="m219.064 82.9891c.499-.2777.678-.9071.401-1.4058-.278-.4988-.907-.678-1.406-.4004s-.678.907-.4 1.4058c.277.4987.907.678 1.405.4004z"/><path d="m224.106 92.0463c.477-.2654.648-.8672.383-1.344-.266-.4768-.867-.6482-1.344-.3828s-.648.8672-.383 1.344c.266.4768.867.6482 1.344.3828z"/><path d="m229.142 101.094c.45-.251.611-.818.361-1.2672-.25-.4494-.817-.6109-1.267-.3607-.449.2501-.611.8169-.36 1.2669.25.449.817.611 1.266.361z"/><path d="m234.179 110.141c.422-.235.573-.768.338-1.19s-.767-.573-1.189-.338-.574.767-.339 1.189.768.574 1.19.339z"/><path d="m239.22 119.198c.4-.223.544-.727.322-1.128-.223-.4-.728-.543-1.128-.321-.4.223-.544.728-.321 1.128.222.4.727.544 1.127.321z"/><path d="m244.257 128.245c.372-.207.506-.677.299-1.05-.208-.373-.678-.507-1.051-.299-.372.207-.506.678-.299 1.05.208.373.678.507 1.051.299z"/><path d="m192.554 13.959c.34-.1892.462-.618.273-.9578s-.618-.462-.958-.2728c-.34.1891-.462.618-.273.9578s.618.4619.958.2728z"/><path d="m197.635 23.0856c.356-.1983.484-.6478.285-1.0041-.198-.3562-.647-.4843-1.004-.286-.356.1983-.484.6479-.286 1.0042.199.3562.648.4843 1.005.2859z"/><path d="m202.715 32.2123c.373-.2074.507-.6777.299-1.0504-.207-.3727-.678-.5067-1.05-.2992-.373.2074-.507.6778-.3 1.0505.208.3726.678.5066 1.051.2991z"/><path d="m207.795 41.339c.39-.2166.529-.7076.313-1.0968-.217-.3891-.708-.529-1.097-.3124-.389.2167-.529.7077-.312 1.0969.216.3891.707.529 1.096.3123z"/><path d="m212.876 50.4657c.405-.2257.551-.7376.325-1.1431-.225-.4056-.737-.5514-1.143-.3256-.405.2258-.551.7376-.325 1.1431.225.4056.737.5514 1.143.3256z"/><path d="m217.956 59.5924c.422-.2349.574-.7675.339-1.1895s-.767-.5737-1.189-.3388c-.423.235-.574.7675-.339 1.1895.235.4221.767.5737 1.189.3388z"/><path d="m223.02 68.6893c.422-.2349.574-.7674.339-1.1895-.235-.422-.768-.5737-1.19-.3387-.422.2349-.573.7674-.338 1.1895.234.422.767.5737 1.189.3387z"/><path d="m228.067 77.7565c.406-.2258.552-.7376.326-1.1432s-.738-.5513-1.143-.3255c-.406.2257-.552.7375-.326 1.1431s.738.5514 1.143.3256z"/><path d="m233.115 86.8236c.389-.2166.529-.7076.312-1.0968-.217-.3891-.708-.529-1.097-.3124-.389.2167-.529.7077-.312 1.0969.216.3891.708.529 1.097.3123z"/><path d="m238.162 95.8908c.373-.2075.507-.6778.299-1.0505-.207-.3727-.678-.5066-1.05-.2992-.373.2075-.507.6778-.3 1.0505.208.3727.678.5067 1.051.2992z"/><path d="m243.209 104.958c.356-.198.484-.648.286-1.004s-.648-.484-1.004-.286-.484.648-.286 1.004.648.484 1.004.286z"/><path d="m248.256 114.025c.34-.189.462-.618.273-.958-.189-.339-.618-.462-.958-.272-.339.189-.461.618-.272.957.189.34.618.462.957.273z"/><path d="m216.804 36.1164c.301-.1678.41-.5482.242-.8496-.168-.3015-.548-.4098-.85-.242-.301.1678-.41.5482-.242.8496.168.3015.548.4098.85.242z"/><path d="m221.879 45.2332c.312-.1739.425-.5682.251-.8806s-.569-.4247-.881-.2508-.425.5682-.251.8806.568.4247.881.2508z"/><path d="m226.954 54.3499c.323-.18.439-.588.259-.9114s-.588-.4396-.911-.2596-.44.5881-.26.9115c.18.3233.588.4395.912.2595z"/><path d="m232.018 63.4469c.323-.18.439-.5881.259-.9115-.18-.3233-.588-.4396-.911-.2596-.324.18-.44.5881-.26.9115.18.3233.588.4396.912.2596z"/><path d="m237.07 72.5239c.313-.1739.425-.5681.251-.8805s-.568-.4247-.88-.2508c-.313.1739-.425.5681-.251.8805.174.3125.568.4247.88.2508z"/><path d="m242.123 81.601c.302-.1678.41-.5482.242-.8496-.168-.3015-.548-.4098-.849-.242-.302.1678-.41.5482-.242.8496.167.3015.548.4098.849.242z"/></g></svg>