<svg width="187" height="70" viewBox="0 0 187 70" fill="none" xmlns="http://www.w3.org/2000/svg">
<mask id="path-1-outside-1_1_382" maskUnits="userSpaceOnUse" x="-0.185792" y="-0.185927" width="187.59" height="73.6452" fill="black">
<rect fill="white" x="-0.185792" y="-0.185927" width="187.59" height="73.6452"/>
<path fill-rule="evenodd" clip-rule="evenodd" d="M13.9775 13.6844C7.91478 14.0731 3.31509 19.303 3.70377 25.3656L5.36723 51.3124C5.75592 57.3751 10.9858 61.9748 17.0485 61.5861L83.695 57.3133C84.8722 57.2378 86.0381 57.581 86.9867 58.2821L93.477 63.0788C95.4356 64.5263 98.1521 64.3521 99.9097 62.6664L105.734 57.0801C106.586 56.2637 107.698 55.7744 108.875 55.699L172.729 51.6053C178.792 51.2166 183.391 45.9867 183.003 39.9241L181.339 13.9773C180.95 7.91464 175.721 3.31495 169.658 3.70364L13.9775 13.6844Z"/>
</mask>
<path fill-rule="evenodd" clip-rule="evenodd" d="M13.9775 13.6844C7.91478 14.0731 3.31509 19.303 3.70377 25.3656L5.36723 51.3124C5.75592 57.3751 10.9858 61.9748 17.0485 61.5861L83.695 57.3133C84.8722 57.2378 86.0381 57.581 86.9867 58.2821L93.477 63.0788C95.4356 64.5263 98.1521 64.3521 99.9097 62.6664L105.734 57.0801C106.586 56.2637 107.698 55.7744 108.875 55.699L172.729 51.6053C178.792 51.2166 183.391 45.9867 183.003 39.9241L181.339 13.9773C180.95 7.91464 175.721 3.31495 169.658 3.70364L13.9775 13.6844Z" fill="#DFED5B"/>
<path d="M3.70377 25.3656L0.709919 25.5576L3.70377 25.3656ZM5.36723 51.3124L8.36109 51.1204L5.36723 51.3124ZM183.003 39.9241L180.009 40.116L183.003 39.9241ZM181.339 13.9773L184.333 13.7854L181.339 13.9773ZM105.734 57.0801L107.811 59.2453L105.734 57.0801ZM93.477 63.0788L95.2601 60.6662L93.477 63.0788ZM99.9097 62.6664L97.8332 60.5013L99.9097 62.6664ZM86.9867 58.2821L85.2036 60.6947L86.9867 58.2821ZM6.69763 25.1737C6.41495 20.7645 9.76018 16.9609 14.1694 16.6783L13.7855 10.6906C6.06938 11.1852 0.215232 17.8414 0.709919 25.5576L6.69763 25.1737ZM8.36109 51.1204L6.69763 25.1737L0.709919 25.5576L2.37338 51.5043L8.36109 51.1204ZM16.8565 58.5922C12.4473 58.8749 8.64377 55.5297 8.36109 51.1204L2.37338 51.5043C2.86807 59.2205 9.52426 65.0746 17.2404 64.5799L16.8565 58.5922ZM83.5031 54.3195L16.8565 58.5922L17.2404 64.5799L83.887 60.3072L83.5031 54.3195ZM95.2601 60.6662L88.7698 55.8695L85.2036 60.6947L91.694 65.4914L95.2601 60.6662ZM103.658 54.915L97.8332 60.5013L101.986 64.8316L107.811 59.2453L103.658 54.915ZM172.537 48.6114L108.684 52.7051L109.067 58.6928L172.921 54.5991L172.537 48.6114ZM180.009 40.116C180.291 44.5252 176.946 48.3288 172.537 48.6114L172.921 54.5991C180.637 54.1045 186.491 47.4483 185.996 39.7321L180.009 40.116ZM178.345 14.1693L180.009 40.116L185.996 39.7321L184.333 13.7854L178.345 14.1693ZM169.85 6.69749C174.259 6.41481 178.063 9.76004 178.345 14.1693L184.333 13.7854C183.838 6.06925 177.182 0.215096 169.466 0.709783L169.85 6.69749ZM14.1694 16.6783L169.85 6.69749L169.466 0.709783L13.7855 10.6906L14.1694 16.6783ZM107.811 59.2453C108.151 58.9187 108.597 58.723 109.067 58.6928L108.684 52.7051C106.8 52.8259 105.02 53.6086 103.658 54.915L107.811 59.2453ZM91.694 65.4914C94.8276 67.8074 99.174 67.5287 101.986 64.8316L97.8332 60.5013C97.1301 61.1755 96.0435 61.2452 95.2601 60.6662L91.694 65.4914ZM83.887 60.3072C84.3578 60.277 84.8242 60.4142 85.2036 60.6947L88.7698 55.8695C87.252 54.7477 85.3865 54.1987 83.5031 54.3195L83.887 60.3072Z" fill="#CF94FF" mask="url(#path-1-outside-1_1_382)"/>
<path d="M35.8216 45.3517L34.8363 29.9833L41.6423 29.5469C42.7108 29.4784 43.6135 29.5749 44.3504 29.8363C45.101 30.0821 45.6849 30.4782 46.102 31.0246C46.5182 31.5564 46.7521 32.2248 46.8037 33.0298C46.8591 33.8934 46.686 34.632 46.2844 35.2456C45.8975 35.8583 45.3091 36.3075 44.5191 36.5933L44.4675 36.1337C45.1365 36.2524 45.732 36.4862 46.2541 36.8348C46.7898 37.1679 47.2141 37.5963 47.5269 38.12C47.8388 38.6291 48.0163 39.2203 48.0595 39.8936C48.1092 40.6693 48.0138 41.3588 47.7732 41.9621C47.5473 42.5645 47.1982 43.0792 46.7259 43.5063C46.2673 43.9178 45.7074 44.2403 45.0463 44.4737C44.3999 44.7062 43.6741 44.8483 42.8691 44.8999L35.8216 45.3517ZM39.177 41.9841L42.5142 41.7702C43.1289 41.7308 43.5952 41.5539 43.9131 41.2396C44.2456 40.9244 44.3945 40.4959 44.3598 39.9544C44.3382 39.6178 44.2321 39.338 44.0414 39.115C43.8654 38.8912 43.62 38.7306 43.3051 38.6332C42.9902 38.5358 42.6205 38.5007 42.1961 38.5279L38.9687 38.7348L39.177 41.9841ZM38.7871 35.9026L41.5315 35.7267C41.912 35.7023 42.2303 35.6231 42.4862 35.4891C42.7413 35.3405 42.9276 35.1522 43.0452 34.9242C43.1766 34.6806 43.2324 34.4052 43.2127 34.0978C43.1827 33.6294 42.9982 33.2738 42.6593 33.031C42.3204 32.7882 41.829 32.6874 41.185 32.7287L38.5943 32.8948L38.7871 35.9026ZM56.4117 44.2521C55.1237 44.3347 53.9803 44.1508 52.9814 43.7005C51.9972 43.2492 51.213 42.594 50.6288 41.735C50.0584 40.8603 49.7361 39.8449 49.6619 38.6886C49.6038 37.7811 49.6971 36.9447 49.942 36.1795C50.1859 35.3996 50.554 34.722 51.0462 34.1467C51.553 33.5704 52.1557 33.1129 52.8541 32.7742C53.5662 32.4199 54.3541 32.2151 55.2176 32.1597C56.0373 32.1072 56.7931 32.2057 57.4852 32.4553C58.1772 32.7048 58.789 33.0771 59.3204 33.5721C59.8518 34.0672 60.2722 34.6648 60.5817 35.3651C60.8911 36.0654 61.0657 36.8405 61.1055 37.6904L61.1455 38.6578L51.8805 39.2518L51.2255 37.2877L58.1413 36.8443L57.7934 37.2634L57.7653 36.8243C57.7125 36.4603 57.5753 36.1531 57.3535 35.9028C57.1454 35.6369 56.8751 35.4337 56.5428 35.2934C56.2251 35.1521 55.8687 35.0941 55.4735 35.1194C54.888 35.157 54.3979 35.306 54.0031 35.5664C53.622 35.8113 53.3426 36.1526 53.1649 36.5902C52.9872 37.0278 52.9185 37.5612 52.9588 38.1906C52.9992 38.82 53.1666 39.3677 53.461 39.8339C53.7701 40.299 54.1892 40.6469 54.7183 40.8775C55.2622 41.1072 55.8927 41.1991 56.6099 41.1531C57.0929 41.1221 57.5273 41.0208 57.9131 40.8491C58.2989 40.6774 58.7074 40.4014 59.1386 40.021L60.9344 42.2426C60.5051 42.6523 60.0427 43.0053 59.5473 43.3016C59.051 43.5832 58.5358 43.8 58.0018 43.9518C57.4833 44.1173 56.9533 44.2174 56.4117 44.2521ZM67.6727 43.5302C66.5603 43.6015 65.5538 43.4897 64.6531 43.1947C63.7514 42.8851 63.0169 42.4325 62.4497 41.8369L64.483 39.8547C64.9658 40.2794 65.4997 40.5832 66.0846 40.7661C66.6686 40.9344 67.2167 41.0022 67.729 40.9693C67.9193 40.9571 68.0862 40.9244 68.2297 40.8711C68.3733 40.8178 68.4939 40.7513 68.5917 40.6715C68.7032 40.5762 68.7849 40.4754 68.8369 40.3692C68.8879 40.2484 68.9087 40.1148 68.8993 39.9684C68.8806 39.6757 68.7421 39.4641 68.4839 39.3337C68.3621 39.268 68.1442 39.1938 67.8303 39.111C67.5154 39.0136 67.1127 38.9219 66.6222 38.8358C65.923 38.7042 65.3093 38.5305 64.7811 38.3145C64.2675 38.0976 63.8394 37.8384 63.4967 37.5371C63.1852 37.2631 62.9368 36.941 62.7514 36.5708C62.5806 36.1996 62.4802 35.7798 62.4502 35.3115C62.4042 34.5943 62.5761 33.9513 62.9658 33.3825C63.3702 32.8128 63.9143 32.3591 64.5981 32.0213C65.2809 31.6689 66.0322 31.4664 66.8518 31.4139C67.4958 31.3726 68.108 31.4068 68.6882 31.5166C69.283 31.6254 69.8377 31.7956 70.3522 32.0272C70.8814 32.2578 71.3553 32.5434 71.774 32.884L70.0415 35.0893C69.7767 34.8565 69.4699 34.6557 69.1211 34.487C68.7713 34.3036 68.4244 34.1642 68.0802 34.0687C67.7351 33.9586 67.4162 33.9129 67.1235 33.9316C66.9039 33.9457 66.7077 33.9803 66.5349 34.0355C66.3758 34.0751 66.2405 34.1426 66.129 34.2379C66.0313 34.3177 65.9569 34.4179 65.9058 34.5388C65.8539 34.645 65.8321 34.764 65.8405 34.8957C65.8509 35.0567 65.8968 35.2007 65.9785 35.3278C66.0738 35.4392 66.1979 35.5415 66.3508 35.6346C66.4873 35.6993 66.7202 35.7799 67.0497 35.8763C67.3939 35.9719 67.8414 36.0754 68.3924 36.1871C69.0925 36.3333 69.692 36.5153 70.191 36.7331C70.7037 36.9354 71.1167 37.1882 71.4301 37.4914C71.6948 37.7243 71.8892 38.0058 72.0133 38.3358C72.151 38.6503 72.2321 38.9978 72.2565 39.3784C72.3043 40.1249 72.1348 40.8044 71.7479 41.4171C71.3746 42.0142 70.8329 42.5046 70.1227 42.8881C69.4261 43.2561 68.6095 43.4701 67.6727 43.5302ZM75.565 42.8037L74.629 28.2037L78.1637 27.9771L79.0997 42.5771L75.565 42.8037ZM72.9523 34.3736L72.7538 31.278L80.5917 30.7755L80.7902 33.8711L72.9523 34.3736ZM95.0774 41.5528L87.9448 26.5785L91.8527 26.3279L95.2916 33.8894C95.4963 34.3319 95.6685 34.725 95.8081 35.0688C95.9623 35.4116 96.0932 35.7339 96.2007 36.0356C96.322 36.3218 96.4363 36.6157 96.5439 36.9175C96.6504 37.2046 96.7672 37.5351 96.894 37.9091L96.2134 37.9527C96.3123 37.432 96.4076 36.9703 96.4994 36.5676C96.5911 36.1649 96.6966 35.7466 96.8158 35.3128C96.9349 34.8789 97.0855 34.3622 97.2675 33.7627L99.6028 25.831L103.423 25.5861L98.2389 41.3501L95.0774 41.5528ZM111 40.532L110.541 33.3747C110.503 32.7746 110.306 32.3463 109.952 32.0897C109.611 31.8177 109.148 31.7004 108.563 31.7379C107.992 31.7745 107.487 31.9171 107.047 32.1658C106.621 32.3988 106.218 32.77 105.84 33.2793L103.601 31.3726C104.258 30.6104 105.027 29.9952 105.908 29.5272C106.789 29.0592 107.764 28.791 108.832 28.7225C109.813 28.6596 110.671 28.7516 111.407 28.9983C112.143 29.2451 112.728 29.6558 113.162 30.2306C113.595 30.8053 113.842 31.5538 113.901 32.4759L114.403 40.3138L111 40.532ZM107.985 40.9458C107.253 40.9927 106.577 40.889 105.958 40.6347C105.354 40.3795 104.86 40.0071 104.476 39.5173C104.106 39.012 103.898 38.408 103.853 37.7055C103.814 37.1054 103.89 36.5714 104.081 36.1036C104.271 35.6358 104.569 35.2419 104.975 34.922C105.394 34.5864 105.921 34.3249 106.556 34.1372C107.204 33.934 107.96 33.8047 108.824 33.7493L112.359 33.5227L112.303 35.7528L109.054 35.9611C108.746 35.9808 108.478 36.0275 108.247 36.101C108.016 36.16 107.823 36.2531 107.67 36.3805C107.515 36.4933 107.399 36.6257 107.32 36.7777C107.257 36.9288 107.231 37.1067 107.245 37.3117C107.259 37.5312 107.329 37.7177 107.457 37.8712C107.584 38.0247 107.746 38.1393 107.942 38.2149C108.152 38.2896 108.389 38.3185 108.653 38.3016C109.033 38.2772 109.388 38.1957 109.717 38.057C110.06 37.9027 110.356 37.7001 110.604 37.449C110.867 37.197 111.069 36.9121 111.211 36.5944L111.927 38.1358C111.651 38.6531 111.306 39.1162 110.892 39.5249C110.492 39.9326 110.042 40.2627 109.544 40.5151C109.061 40.7665 108.541 40.9101 107.985 40.9458ZM117.222 40.1331L116.181 23.8864L119.716 23.6598L120.757 39.9064L117.222 40.1331ZM127.771 39.6772C126.922 39.7317 126.179 39.5956 125.54 39.2691C124.901 38.928 124.391 38.4242 124.011 37.7579C123.644 37.076 123.429 36.2447 123.366 35.264L122.904 28.0628L126.439 27.8362L126.867 34.5105C126.913 35.2277 127.117 35.7804 127.48 36.1687C127.857 36.5413 128.352 36.708 128.967 36.6686C129.274 36.6488 129.55 36.5871 129.793 36.4833C130.035 36.3649 130.238 36.2123 130.403 36.0254C130.581 35.8229 130.713 35.594 130.8 35.3386C130.886 35.0832 130.92 34.8091 130.901 34.5164L130.457 27.5786L133.991 27.352L134.739 39.0101L131.423 39.2226L131.138 36.838L131.758 36.5337C131.632 37.0856 131.371 37.5947 130.974 38.061C130.593 38.5264 130.124 38.9018 129.569 39.1872C129.015 39.4726 128.415 39.6359 127.771 39.6772ZM143.46 38.6714C142.172 38.754 141.028 38.5701 140.029 38.1198C139.045 37.6685 138.261 37.0133 137.677 36.1543C137.106 35.2796 136.784 34.2642 136.71 33.1079C136.652 32.2004 136.745 31.3641 136.99 30.5988C137.234 29.8189 137.602 29.1413 138.094 28.566C138.601 27.9897 139.204 27.5322 139.902 27.1935C140.614 26.8392 141.402 26.6344 142.265 26.5791C143.085 26.5265 143.841 26.625 144.533 26.8746C145.225 27.1242 145.837 27.4964 146.368 27.9915C146.9 28.4865 147.32 29.0841 147.63 29.7844C147.939 30.4847 148.114 31.2598 148.153 32.1097L148.193 33.0771L138.928 33.6711L138.273 31.707L145.189 31.2636L144.841 31.6827L144.813 31.2436C144.76 30.8796 144.623 30.5724 144.401 30.3221C144.193 30.0562 143.923 29.853 143.591 29.7127C143.273 29.5714 142.917 29.5134 142.521 29.5387C141.936 29.5763 141.446 29.7253 141.051 29.9857C140.67 30.2306 140.39 30.5719 140.213 31.0095C140.035 31.4471 139.966 31.9806 140.007 32.6099C140.047 33.2393 140.214 33.787 140.509 34.2532C140.818 34.7183 141.237 35.0662 141.766 35.2969C142.31 35.5265 142.941 35.6184 143.658 35.5724C144.141 35.5414 144.575 35.4401 144.961 35.2684C145.347 35.0967 145.755 34.8207 146.186 34.4403L147.982 36.662C147.553 37.0716 147.091 37.4246 146.595 37.7209C146.099 38.0025 145.584 38.2193 145.05 38.3711C144.531 38.5366 144.001 38.6367 143.46 38.6714ZM151.12 32.3383C150.93 31.4393 150.746 30.5179 150.568 29.574C150.389 28.6155 150.233 27.6629 150.098 26.7162C149.963 25.7549 149.868 24.8424 149.813 23.9789L149.71 22.3762L153.442 22.1369L153.545 23.7396C153.601 24.6178 153.624 25.5495 153.614 26.5349C153.603 27.5056 153.57 28.4777 153.514 29.4512C153.458 30.4101 153.392 31.3256 153.316 32.1976L151.12 32.3383ZM152.57 38.1094C151.97 38.1478 151.491 38.0096 151.133 37.6945C150.774 37.3648 150.574 36.8853 150.534 36.2559C150.497 35.6851 150.642 35.1981 150.969 34.795C151.296 34.392 151.745 34.1721 152.316 34.1355C152.916 34.0971 153.395 34.2427 153.755 34.5724C154.113 34.8874 154.312 35.367 154.354 36.011C154.391 36.5964 154.246 37.0834 153.918 37.4718C153.591 37.8603 153.141 38.0728 152.57 38.1094Z" fill="#4C4354"/>
</svg>
