<svg width="187" height="73" viewBox="0 0 187 73" fill="none" xmlns="http://www.w3.org/2000/svg">
<mask id="path-1-outside-1_1_388" maskUnits="userSpaceOnUse" x="-1.26861" y="-0.232888" width="188.413" height="76.6838" fill="black">
<rect fill="white" x="-1.26861" y="-0.232888" width="188.413" height="76.6838"/>
<path fill-rule="evenodd" clip-rule="evenodd" d="M17.4591 3.88999C11.4038 3.39846 6.09666 7.90872 5.60513 13.9639L3.50152 39.8787C3.01 45.9339 7.52026 51.2411 13.5755 51.7326L80.1399 57.1359C81.3156 57.2314 82.4197 57.7394 83.257 58.5702L88.9861 64.2545C90.7148 65.9698 93.428 66.1901 95.4108 64.7761L101.982 60.0901C102.942 59.4053 104.114 59.082 105.289 59.1774L169.064 64.3543C175.119 64.8458 180.426 60.3355 180.918 54.2803L183.022 28.3655C183.513 22.3103 179.003 17.0031 172.948 16.5116L17.4591 3.88999Z"/>
</mask>
<path fill-rule="evenodd" clip-rule="evenodd" d="M17.4591 3.88999C11.4038 3.39846 6.09666 7.90872 5.60513 13.9639L3.50152 39.8787C3.01 45.9339 7.52026 51.2411 13.5755 51.7326L80.1399 57.1359C81.3156 57.2314 82.4197 57.7394 83.257 58.5702L88.9861 64.2545C90.7148 65.9698 93.428 66.1901 95.4108 64.7761L101.982 60.0901C102.942 59.4053 104.114 59.082 105.289 59.1774L169.064 64.3543C175.119 64.8458 180.426 60.3355 180.918 54.2803L183.022 28.3655C183.513 22.3103 179.003 17.0031 172.948 16.5116L17.4591 3.88999Z" fill="#DFED5B"/>
<path d="M101.982 60.0901L100.24 57.6476L101.982 60.0901ZM95.4108 64.7761L93.669 62.3335L95.4108 64.7761ZM83.257 58.5702L81.144 60.6998L83.257 58.5702ZM8.59529 14.2067C8.95277 9.80287 12.8125 6.52268 17.2163 6.88015L17.7018 0.899822C9.99514 0.274243 3.24054 6.01458 2.61497 13.7212L8.59529 14.2067ZM6.49169 40.1214L8.59529 14.2067L2.61497 13.7212L0.51136 39.636L6.49169 40.1214ZM13.8182 48.7425C9.4144 48.385 6.13422 44.5252 6.49169 40.1214L0.51136 39.636C-0.114219 47.3426 5.62611 54.0972 13.3327 54.7228L13.8182 48.7425ZM80.3826 54.1458L13.8182 48.7425L13.3327 54.7228L79.8972 60.1261L80.3826 54.1458ZM91.0991 62.1249L85.37 56.4406L81.144 60.6998L86.8731 66.3841L91.0991 62.1249ZM100.24 57.6476L93.669 62.3335L97.1527 67.2186L103.724 62.5327L100.24 57.6476ZM169.307 61.3641L105.532 56.1872L105.047 62.1676L168.821 67.3444L169.307 61.3641ZM177.928 54.0376C177.57 58.4414 173.711 61.7216 169.307 61.3641L168.821 67.3444C176.528 67.97 183.283 62.2297 183.908 54.523L177.928 54.0376ZM180.031 28.1228L177.928 54.0376L183.908 54.523L186.012 28.6083L180.031 28.1228ZM172.705 19.5018C177.109 19.8593 180.389 23.719 180.031 28.1228L186.012 28.6083C186.637 20.9016 180.897 14.147 173.19 13.5215L172.705 19.5018ZM17.2163 6.88015L172.705 19.5018L173.19 13.5215L17.7018 0.899822L17.2163 6.88015ZM103.724 62.5327C104.108 62.2587 104.576 62.1294 105.047 62.1676L105.532 56.1872C103.651 56.0345 101.776 56.5518 100.24 57.6476L103.724 62.5327ZM86.8731 66.3841C89.6391 69.1286 93.9802 69.481 97.1527 67.2186L93.669 62.3335C92.8758 62.8991 91.7906 62.8111 91.0991 62.1249L86.8731 66.3841ZM79.8972 60.1261C80.3675 60.1643 80.8091 60.3675 81.144 60.6998L85.37 56.4406C84.0303 55.1113 82.2637 54.2985 80.3826 54.1458L79.8972 60.1261Z" fill="#CF94FF" mask="url(#path-1-outside-1_1_388)"/>
<path d="M33.2771 38.2825L34.5231 22.933L41.3207 23.4848C42.3879 23.5714 43.2671 23.7973 43.9585 24.1625C44.6657 24.5142 45.1862 24.9905 45.52 25.5915C45.855 26.1778 45.9899 26.873 45.9246 27.6771C45.8546 28.5396 45.5766 29.2454 45.0906 29.7945C44.6192 30.3449 43.9719 30.7043 43.1489 30.873L43.1644 30.4107C43.8092 30.6249 44.3647 30.9422 44.8308 31.3626C45.3128 31.7696 45.6707 32.2549 45.9046 32.8183C46.1396 33.3671 46.2298 33.9777 46.1753 34.6502C46.1124 35.425 45.9183 36.0935 45.5931 36.6557C45.2825 37.2191 44.8626 37.6779 44.3336 38.0323C43.8203 38.3732 43.2197 38.6114 42.5319 38.7469C41.8586 38.8835 41.1199 38.9192 40.3159 38.8539L33.2771 38.2825ZM37.0839 35.4352L40.417 35.7058C41.0309 35.7556 41.5179 35.648 41.8779 35.3829C42.2525 35.119 42.4617 34.7166 42.5056 34.1757C42.5329 33.8395 42.4683 33.5473 42.3119 33.2992C42.1701 33.0522 41.9504 32.8578 41.6529 32.716C41.3554 32.5741 40.9947 32.486 40.5708 32.4515L37.3474 32.1899L37.0839 35.4352ZM37.577 29.3612L40.318 29.5837C40.6981 29.6145 41.0244 29.5822 41.297 29.4866C41.5708 29.3764 41.7824 29.217 41.9318 29.0084C42.097 28.7863 42.192 28.5218 42.2169 28.2148C42.2549 27.747 42.1238 27.3685 41.8235 27.0793C41.5233 26.79 41.0515 26.6193 40.4083 26.5671L37.8208 26.3571L37.577 29.3612ZM53.81 40.17C52.5235 40.0656 51.4187 39.7184 50.4954 39.1284C49.5867 38.5396 48.9054 37.778 48.4515 36.8436C48.0135 35.8957 47.8413 34.8443 47.935 33.6894C48.0086 32.7831 48.2219 31.969 48.5747 31.2472C48.9288 30.5107 49.3909 29.8934 49.9611 29.3953C50.5459 28.8983 51.2083 28.5327 51.9484 28.2985C52.7042 28.0508 53.5134 27.962 54.3759 28.032C55.1945 28.0985 55.9282 28.3052 56.5769 28.6521C57.2257 28.9991 57.7772 29.4559 58.2315 30.0225C58.6858 30.5891 59.0155 31.2412 59.2204 31.9789C59.4254 32.7166 59.4862 33.5088 59.4028 34.3554L59.3025 35.3185L50.0489 34.5673L49.6847 32.5292L56.5919 33.0899L56.1871 33.4543L56.2227 33.0158C56.2232 32.6479 56.1317 32.3241 55.9484 32.0444C55.7809 31.7512 55.5429 31.5112 55.2343 31.3242C54.9404 31.1385 54.5961 31.0296 54.2014 30.9976C53.6166 30.9501 53.1101 31.0267 52.6818 31.2274C52.2693 31.4147 51.9435 31.7119 51.7044 32.1193C51.4654 32.5266 51.3203 33.0445 51.2693 33.6731C51.2183 34.3017 51.3047 34.8679 51.5287 35.3717C51.7673 35.8767 52.1318 36.2815 52.622 36.5861C53.127 36.892 53.7376 37.074 54.4539 37.1321C54.9363 37.1713 55.3808 37.1338 55.7874 37.0197C56.1939 36.9055 56.638 36.6914 57.1197 36.3774L58.5756 38.8352C58.0916 39.1785 57.5831 39.461 57.05 39.6826C56.5182 39.8895 55.9771 40.0296 55.4267 40.1026C54.8898 40.1914 54.3509 40.2139 53.81 40.17ZM65.0571 41.083C63.9461 40.9928 62.9663 40.7367 62.1176 40.3146C61.2702 39.878 60.6088 39.324 60.1336 38.6527L62.432 36.9852C62.8484 37.4751 63.3328 37.8529 63.8851 38.1184C64.4386 38.3694 64.9712 38.5156 65.4829 38.5571C65.6729 38.5726 65.8428 38.5643 65.9925 38.5323C66.1423 38.5003 66.2713 38.4519 66.3795 38.3871C66.5036 38.3089 66.599 38.221 66.6658 38.1234C66.7338 38.0112 66.7737 37.882 66.7856 37.7359C66.8093 37.4435 66.7028 37.2141 66.4662 37.0478C66.3552 36.9652 66.1503 36.8603 65.8516 36.733C65.5541 36.5911 65.1689 36.4421 64.696 36.286C64.0232 36.0548 63.441 35.7942 62.9496 35.5042C62.4727 35.2153 62.0865 34.897 61.791 34.5493C61.5224 34.2332 61.3231 33.8786 61.1931 33.4854C61.0778 33.0935 61.0391 32.6636 61.0771 32.1958C61.1352 31.4795 61.3982 30.8681 61.8661 30.3617C62.3485 29.8564 62.9525 29.486 63.6779 29.2506C64.4045 29.0006 65.1771 28.9088 65.9958 28.9752C66.639 29.0274 67.2397 29.1498 67.798 29.3423C68.3709 29.5359 68.8951 29.7845 69.3708 30.0879C69.8611 30.3926 70.2888 30.7437 70.6538 31.1412L68.6208 33.0731C68.3925 32.8044 68.1179 32.5614 67.7971 32.344C67.4775 32.1121 67.1543 31.924 66.8276 31.7797C66.5021 31.6209 66.1931 31.5296 65.9007 31.5058C65.6814 31.488 65.4823 31.4939 65.3033 31.5236C65.1402 31.5397 64.9965 31.5869 64.8725 31.6652C64.7642 31.73 64.6761 31.8184 64.6081 31.9306C64.5413 32.0282 64.5026 32.1428 64.4919 32.2744C64.4789 32.4352 64.5036 32.5843 64.566 32.7218C64.6442 32.8459 64.7522 32.965 64.8901 33.0792C65.0157 33.163 65.2346 33.2764 65.5467 33.4195C65.8735 33.5637 66.3014 33.7309 66.8304 33.921C67.502 34.1668 68.069 34.4335 68.5312 34.7212C69.0092 34.9955 69.3814 35.3052 69.6477 35.6506C69.876 35.9193 70.0277 36.2259 70.1027 36.5704C70.1936 36.9015 70.2236 37.2571 70.1927 37.6372C70.1322 38.3827 69.8662 39.0307 69.3948 39.581C68.9392 40.1179 68.3323 40.5248 67.5741 40.8017C66.8317 41.0652 65.9927 41.1589 65.0571 41.083ZM72.9715 41.5047L74.1552 26.9227L77.6856 27.2092L76.5019 41.7913L72.9715 41.5047ZM71.6045 32.7855L71.8554 29.6937L79.6837 30.3291L79.4327 33.421L71.6045 32.7855ZM93.2096 43.3682C91.6892 43.2448 90.4242 42.8773 89.4143 42.2656C88.4203 41.6404 87.5903 40.8079 86.9243 39.7679L89.413 37.3875C90.0498 38.425 90.72 39.1416 91.4237 39.5372C92.1273 39.9327 92.8665 40.162 93.6413 40.2249C94.036 40.2569 94.391 40.2342 94.7063 40.1568C95.0362 40.0806 95.2966 39.9546 95.4875 39.7788C95.6941 39.5895 95.8087 39.356 95.8313 39.0783C95.8491 38.859 95.8066 38.6569 95.7039 38.472C95.6158 38.2883 95.4821 38.1229 95.3027 37.9759C95.1234 37.8289 94.9136 37.6942 94.6734 37.5717C94.4343 37.4345 94.1643 37.317 93.8632 37.219C93.5768 37.1221 93.2825 37.032 92.9802 36.9486C92.1466 36.7044 91.4267 36.4179 90.8207 36.0891C90.2304 35.7469 89.7394 35.3612 89.3475 34.9321C88.9714 34.4896 88.7018 34.0041 88.5386 33.4759C88.3767 32.933 88.3224 32.3326 88.3758 31.6748C88.4518 30.7392 88.7813 29.9419 89.3646 29.283C89.9624 28.6252 90.7159 28.1345 91.6251 27.811C92.5342 27.4875 93.5005 27.3673 94.5238 27.4504C96.0149 27.5714 97.194 27.9099 98.0612 28.4659C98.9442 29.0085 99.6223 29.7183 100.096 30.5955L97.5879 32.6654C97.1822 32.0439 96.6988 31.5632 96.1378 31.2233C95.5914 30.8847 95.0039 30.6898 94.3753 30.6388C93.9514 30.6044 93.5744 30.6253 93.2445 30.7015C92.9146 30.7778 92.6536 30.9111 92.4616 31.1015C92.2854 31.2785 92.186 31.5059 92.1634 31.7836C92.1444 32.0175 92.193 32.2348 92.3092 32.4355C92.4411 32.6228 92.626 32.7923 92.8638 32.9441C93.1017 33.0958 93.3772 33.2359 93.6905 33.3643C94.005 33.4782 94.3353 33.5786 94.6814 33.6655C95.4724 33.8916 96.1788 34.1623 96.8007 34.4776C97.4371 34.7942 97.9733 35.1688 98.409 35.6014C98.846 36.0195 99.1673 36.5017 99.3731 37.0482C99.5947 37.5812 99.6782 38.1839 99.6236 38.8564C99.5382 39.9089 99.2094 40.7872 98.6372 41.4912C98.0651 42.1952 97.3098 42.7078 96.3714 43.0289C95.433 43.3501 94.3791 43.4632 93.2096 43.3682ZM107.216 44.5052C105.93 44.4008 104.825 44.0536 103.902 43.4636C102.993 42.8748 102.312 42.1132 101.858 41.1788C101.42 40.2309 101.248 39.1795 101.341 38.0246C101.415 37.1183 101.628 36.3042 101.981 35.5824C102.335 34.846 102.797 34.2287 103.367 33.7305C103.952 33.2335 104.615 32.8679 105.355 32.6337C106.111 32.386 106.92 32.2972 107.782 32.3672C108.601 32.4337 109.335 32.6404 109.983 32.9873C110.632 33.3343 111.184 33.7911 111.638 34.3577C112.092 34.9243 112.422 35.5764 112.627 36.3141C112.832 37.0518 112.893 37.844 112.809 38.6907L112.709 39.6537L103.455 38.9026L103.091 36.8644L109.998 37.4251L109.593 37.7895L109.629 37.351C109.63 36.9831 109.538 36.6593 109.355 36.3796C109.187 36.0864 108.949 35.8464 108.641 35.6595C108.347 35.4737 108.002 35.3649 107.608 35.3328C107.023 35.2853 106.516 35.362 106.088 35.5626C105.676 35.7499 105.35 36.0471 105.111 36.4545C104.872 36.8618 104.727 37.3798 104.676 38.0084C104.625 38.637 104.711 39.2031 104.935 39.7069C105.174 40.2119 105.538 40.6167 106.028 40.9214C106.533 41.2272 107.144 41.4092 107.86 41.4674C108.343 41.5065 108.787 41.469 109.194 41.3549C109.6 41.2407 110.044 41.0266 110.526 40.7126L111.982 43.1704C111.498 43.5137 110.989 43.7962 110.456 44.0178C109.925 44.2248 109.383 44.3648 108.833 44.4378C108.296 44.5267 107.757 44.5491 107.216 44.5052ZM114.556 44.8803L115.873 28.6537L119.404 28.9402L118.087 45.1669L114.556 44.8803ZM121.216 45.4209L122.533 29.1943L126.063 29.4808L124.746 45.7075L121.216 45.4209ZM133.191 46.6137C131.905 46.5093 130.8 46.1621 129.877 45.5721C128.968 44.9833 128.287 44.2217 127.833 43.2873C127.395 42.3394 127.223 41.288 127.317 40.1331C127.39 39.2268 127.603 38.4127 127.956 37.6909C128.31 36.9545 128.772 36.3372 129.343 35.839C129.927 35.342 130.59 34.9764 131.33 34.7422C132.086 34.4945 132.895 34.4057 133.757 34.4757C134.576 34.5422 135.31 34.7489 135.958 35.0958C136.607 35.4428 137.159 35.8996 137.613 36.4662C138.067 37.0328 138.397 37.6849 138.602 38.4226C138.807 39.1603 138.868 39.9525 138.784 40.7992L138.684 41.7622L129.43 41.0111L129.066 38.9729L135.973 39.5336L135.569 39.898L135.604 39.4595C135.605 39.0916 135.513 38.7678 135.33 38.4881C135.162 38.1949 134.924 37.9549 134.616 37.768C134.322 37.5822 133.978 37.4734 133.583 37.4413C132.998 37.3939 132.492 37.4705 132.063 37.6711C131.651 37.8584 131.325 38.1556 131.086 38.563C130.847 38.9703 130.702 39.4883 130.651 40.1169C130.6 40.7455 130.686 41.3116 130.91 41.8154C131.149 42.3204 131.513 42.7252 132.004 43.0299C132.508 43.3357 133.119 43.5177 133.835 43.5759C134.318 43.615 134.762 43.5775 135.169 43.4634C135.575 43.3492 136.02 43.1351 136.501 42.8211L137.957 45.2789C137.473 45.6222 136.965 45.9047 136.432 46.1263C135.9 46.3333 135.359 46.4733 134.808 46.5463C134.271 46.6352 133.732 46.6576 133.191 46.6137ZM140.531 46.9888L141.476 35.3451L144.831 35.6174L144.677 39.4234L144.08 38.6245C144.32 38.0259 144.657 37.4941 145.092 37.0292C145.527 36.5642 146.027 36.2074 146.592 35.959C147.171 35.7117 147.76 35.6124 148.359 35.661C148.623 35.6824 148.862 35.7239 149.078 35.7856C149.309 35.8338 149.51 35.9016 149.679 35.9889L148.421 39.7936C148.268 39.6928 148.054 39.6019 147.781 39.5209C147.524 39.4264 147.249 39.3674 146.957 39.3436C146.635 39.3175 146.331 39.3517 146.044 39.4461C145.772 39.527 145.526 39.6615 145.305 39.8496C145.098 40.0388 144.925 40.2676 144.785 40.5358C144.66 40.8053 144.584 41.1154 144.555 41.4663L144.084 47.2772L140.531 46.9888ZM151.687 42.2659C151.629 41.3489 151.58 40.4105 151.54 39.4508C151.502 38.4765 151.485 37.5113 151.489 36.5551C151.494 35.5844 151.531 34.6677 151.601 33.8052L151.731 32.2045L155.459 32.5071L155.329 34.1078C155.258 34.985 155.146 35.9103 154.993 36.8838C154.842 37.8427 154.669 38.7998 154.473 39.7551C154.279 40.6958 154.082 41.5921 153.88 42.4439L151.687 42.2659ZM152.288 48.186C151.689 48.1373 151.235 47.9312 150.926 47.5677C150.618 47.1896 150.49 46.6862 150.541 46.0576C150.587 45.4875 150.801 45.0266 151.183 44.675C151.564 44.3234 152.04 44.1707 152.61 44.217C153.21 44.2657 153.663 44.4791 153.971 44.8572C154.28 45.2207 154.408 45.7241 154.356 46.3673C154.309 46.952 154.095 47.4129 153.714 47.7499C153.334 48.0869 152.858 48.2322 152.288 48.186Z" fill="#4C4354"/>
</svg>
